<?xml version="1.0" encoding="UTF-8" standalone="no"?>
<svg
   xmlns:dc="http://purl.org/dc/elements/1.1/"
   xmlns:cc="http://creativecommons.org/ns#"
   xmlns:rdf="http://www.w3.org/1999/02/22-rdf-syntax-ns#"
   xmlns:svg="http://www.w3.org/2000/svg"
   xmlns="http://www.w3.org/2000/svg"
   xmlns:xlink="http://www.w3.org/1999/xlink"
   xmlns:sodipodi="http://sodipodi.sourceforge.net/DTD/sodipodi-0.dtd"
   xmlns:inkscape="http://www.inkscape.org/namespaces/inkscape"
   width="487.831"
   height="550.681"
   viewBox="0 0 129.072 145.701"
   version="1.1"
   id="svg352"
   sodipodi:docname="Seal of Kuningan Regency (1).svg"
   inkscape:version="1.0.1 (3bc2e813f5, 2020-09-07)">
  <metadata
     id="metadata356">
    <rdf:RDF>
      <cc:Work
         rdf:about="">
        <dc:format>image/svg+xml</dc:format>
        <dc:type
           rdf:resource="http://purl.org/dc/dcmitype/StillImage" />
      </cc:Work>
    </rdf:RDF>
  </metadata>
  <sodipodi:namedview
     pagecolor="#ffffff"
     bordercolor="#666666"
     borderopacity="1"
     objecttolerance="10"
     gridtolerance="10"
     guidetolerance="10"
     inkscape:pageopacity="0"
     inkscape:pageshadow="2"
     inkscape:window-width="1366"
     inkscape:window-height="705"
     id="namedview354"
     showgrid="false"
     inkscape:zoom="1.1554858"
     inkscape:cx="253.77156"
     inkscape:cy="237.94498"
     inkscape:window-x="-8"
     inkscape:window-y="-8"
     inkscape:window-maximized="1"
     inkscape:current-layer="svg352" />
  <style
     id="style2"><![CDATA[.B{opacity:.999}.C{stroke-width:.565}.D{fill:#fff}.E{fill:#ffff05}.F{stroke:#5b5b00}.G{fill:#ffff73}.H{fill:#e0e0e0}.I{stroke:#b9b9b9}.J{fill:#227222}.K{stroke:#174d17}.L{fill:#eaeaea}.M{fill-rule:evenodd}.N{fill:#cfcfcf}.O{stroke:#6f6c6c}.P{stroke-width:.265}.Q{stroke-linejoin:round}]]></style>
  <defs
     id="defs48">
    <linearGradient
       id="A"
       gradientUnits="userSpaceOnUse">
      <stop
         offset="0"
         stop-color="#acac00"
         id="stop4" />
      <stop
         offset="1"
         stop-color="#ff0"
         id="stop6" />
    </linearGradient>
    <linearGradient
       id="B"
       gradientUnits="userSpaceOnUse">
      <stop
         offset="0"
         stop-color="#ff0"
         id="stop9" />
      <stop
         offset=".503"
         stop-color="#ff9"
         id="stop11" />
      <stop
         offset="1"
         stop-color="#ff0"
         id="stop13" />
    </linearGradient>
    <g
       id="g19">
      <path
         id="D"
         d="M0 0v1h.5z"
         transform="rotate(18 3.157 -.5)" />
      <use
         xlink:href="#D"
         transform="scale(-1 1)"
         width="810"
         height="540"
         id="use17" />
    </g>
    <linearGradient
       id="E"
       x1="106.166"
       y1="149.688"
       x2="106.166"
       y2="169.35"
       gradientUnits="userSpaceOnUse"
       gradientTransform="translate(-40.464,-77.1)">
      <stop
         offset="0"
         stop-color="#047ac4"
         id="stop21" />
      <stop
         offset="1"
         stop-color="#035d96"
         id="stop23" />
    </linearGradient>
    <linearGradient
       xlink:href="#B"
       id="F"
       x1="49.893"
       y1="216.769"
       x2="155.159"
       y2="216.769" />
    <linearGradient
       xlink:href="#A"
       id="G"
       x1="54.234"
       y1="191.421"
       x2="46.858"
       y2="168.64"
       gradientTransform="translate(-40.464,-77.1)" />
    <linearGradient
       xlink:href="#A"
       id="H"
       x1="155.766"
       y1="191.421"
       x2="163.142"
       y2="168.64"
       gradientTransform="translate(-40.464,-77.1)" />
    <linearGradient
       id="I"
       x1="85.682"
       y1="183.203"
       x2="124.317"
       y2="183.203"
       gradientUnits="userSpaceOnUse">
      <stop
         offset="0"
         stop-color="#ff0"
         id="stop29" />
      <stop
         offset="1"
         stop-color="#ffff92"
         id="stop31" />
    </linearGradient>
    <g
       id="g37">
      <path
         id="K"
         d="M0 0v1h.5z"
         transform="rotate(18 3.157 -.5)" />
      <use
         xlink:href="#K"
         transform="scale(-1 1)"
         width="810"
         height="540"
         id="use35" />
    </g>
    <linearGradient
       xlink:href="#B"
       id="L"
       x1="49.893"
       y1="216.769"
       x2="155.159"
       y2="216.769" />
    <path
       id="M"
       d="M72.812 181.042c4.569-.232 8.307 1.67 11.632 4.637-4.945 1.176-8.452-1.312-11.632-4.637z" />
    <path
       id="N"
       d="M75.005 182.019c2.17.574 4.541.083 6.307 2.788-2.299-1.717-4.235-1.979-6.307-2.788z" />
    <path
       id="O"
       d="M302.003 176.137c.077-2.215 1.883-2.17 3.544-2.315 3.954-3.128 6.828 1.041 4.536 3.071 4.039 1.647-1.376 6.183-3.213 5.575l-4.536-2.504z" />
    <path
       id="P"
       d="M300.812 181.142l.935 1.871c2.356.508 4.949.16 7.751-.935-3.543-.532-3.849-2.269-3.608-4.209-1.94 1.236-3.692.132-3.775-3.274-1.109 2.015-1.508 4.445-1.303 6.548z" />
    <path
       id="Q"
       d="M308.343 174.524c-.608-.425-1.35-.151-1.941.148-.666.531-1.403-.001-2.097.156-.573.305-.546 1.285-.07 1.673.62.254 1.308.609 2.006.449.793-.626 1.185.351.856 1.004-.243.709-.133 1.655.65 1.968.55.5 1.623.559 1.857-.296.294-.882-.783-1.339-.834-2.17-.187-.828.829-1.52.417-2.351-.105-.35-.453-.685-.843-.58z" />
    <path
       id="R"
       d="M160.651 185.415a27 27 0 0 0-9.268-1.48 51.405 51.405 0 0 1-92.764 0 27 27 0 0 0-9.269 1.481c3.025 7.124 7.378 13.683 12.851 19.157 11.205 11.205 26.954 17.729 42.801 17.728s31.594-6.523 42.799-17.728c5.474-5.474 9.826-12.034 12.851-19.157z" />
    <path
       id="S"
       d="M95.477 120.845l-1.034-.046c.051-.222.138-.408.262-.556.268.131.569.183.873.23-.06.111-.113.225-.101.372z" />
    <path
       id="T"
       d="M94.923 90.31c.13.551.189 1.305.85 1.457.696.293 1.192.962 1.274 1.71.19.643.68 1.096 1.171 1.529a30.86 30.86 0 0 0 1.78 2.812c.21.288 1.213.784.618.104-.469-.598-.368-1.361-.452-2.062-.564-1.107-.895-1.792-1.505-2.541-.715-.554-1.196-1.325-1.754-2.022-.475-.557-1.179-.79-1.835-1.042l-.075.01-.072.045z" />
    <linearGradient
       inkscape:collect="always"
       xlink:href="#I"
       id="linearGradient1181"
       gradientUnits="userSpaceOnUse"
       x1="85.682"
       y1="183.203"
       x2="124.317"
       y2="183.203" />
    <linearGradient
       inkscape:collect="always"
       xlink:href="#I"
       id="linearGradient1183"
       gradientUnits="userSpaceOnUse"
       x1="85.682"
       y1="183.203"
       x2="124.317"
       y2="183.203" />
    <linearGradient
       inkscape:collect="always"
       xlink:href="#I"
       id="linearGradient1185"
       gradientUnits="userSpaceOnUse"
       x1="85.682"
       y1="183.203"
       x2="124.317"
       y2="183.203" />
    <linearGradient
       inkscape:collect="always"
       xlink:href="#I"
       id="linearGradient1187"
       gradientUnits="userSpaceOnUse"
       x1="85.682"
       y1="183.203"
       x2="124.317"
       y2="183.203" />
    <linearGradient
       inkscape:collect="always"
       xlink:href="#I"
       id="linearGradient1189"
       gradientUnits="userSpaceOnUse"
       x1="85.682"
       y1="183.203"
       x2="124.317"
       y2="183.203" />
  </defs>
  <g
     class="M"
     id="g56"
     transform="translate(-40.464,-77.1)">
    <path
       d="m 76.432,79.197 v 6.307 h -9.644 c 0,5.327 -4.318,9.644 -9.644,9.644 v 26.727 38.686 c 0,28.049 31.697,31.228 47.865,46.262 16.168,-15.051 47.866,-18.213 47.866,-46.279 h -0.018 V 95.148 c -5.327,0 -9.644,-4.318 -9.644,-9.644 h -9.645 v -6.307 z"
       fill="#67b432"
       class="B"
       id="path50" />
    <path
       d="m 74.835,77.6 v 1.597 4.71 h -9.644 v 1.597 c 0,4.464 -3.584,8.047 -8.048,8.047 h -1.597 v 28.324 38.686 c 0,14.626 8.489,23.071 18.624,29.368 10.135,6.297 22.007,10.863 29.751,18.064 l 1.088,1.012 1.088,-1.012 c 7.744,-7.209 19.616,-11.774 29.751,-18.071 10.135,-6.297 18.624,-14.742 18.624,-29.377 v -1.597 h -0.018 V 93.551 h -1.597 c -4.464,0 -8.048,-3.584 -8.048,-8.048 v -1.597 h -9.645 V 77.6 Z m 3.194,3.194 h 53.942 v 6.307 h 9.807 c 0.71,4.906 4.577,8.773 9.483,9.482 v 64.465 c -0.186,13.101 -7.467,20.176 -17.098,26.16 -9.357,5.814 -20.798,10.261 -29.154,17.53 C 96.654,197.477 85.213,193.031 75.857,187.217 66.101,181.154 58.741,173.984 58.741,160.561 V 121.875 96.583 c 4.906,-0.709 8.773,-4.576 9.483,-9.482 h 9.806 z"
       stroke="#000000"
       class="B N"
       id="path52" />
    <path
       d="m 75.914,78.678 v 0.52 4.709 a 1.079,1.079 0 0 1 -1.078,1.078 H 66.27 v 0.52 c 0,5.041 -4.086,9.125 -9.127,9.125 h -0.518 v 27.246 38.686 c 0,14.209 8.119,22.241 18.115,28.453 10.012,6.222 21.936,10.767 29.916,18.188 l 0.354,0.33 0.354,-0.33 v 0.002 c 7.98,-7.429 19.902,-11.978 29.914,-18.199 9.997,-6.212 18.115,-14.242 18.115,-28.459 v -1.4 a 1.079,1.079 0 0 1 -0.018,-0.197 V 94.629 h -0.518 c -5.041,0 -9.127,-4.084 -9.127,-9.125 v -0.52 h -8.566 a 1.079,1.079 0 0 1 -1.078,-1.078 v -5.229 z m 2.08,1.037 a 1.079,1.079 0 0 1 0.035,0 h 53.941 a 1.079,1.079 0 0 1 1.078,1.078 v 5.23 h 8.729 a 1.079,1.079 0 0 1 1.068,0.924 c 0.642,4.435 4.133,7.925 8.568,8.566 a 1.079,1.079 0 0 1 0.924,1.068 v 64.467 a 1.079,1.079 0 0 1 0,0.016 c -0.192,13.495 -7.858,21.003 -17.605,27.061 -9.482,5.892 -20.864,10.336 -29.016,17.428 a 1.079,1.079 0 0 1 -1.416,0 C 96.148,198.469 84.766,194.025 75.284,188.133 70.347,185.065 65.947,181.68 62.764,177.281 59.581,172.882 57.66,167.469 57.66,160.56 V 121.874 96.581 a 1.079,1.079 0 0 1 0.924,-1.068 c 4.436,-0.642 7.927,-4.131 8.568,-8.566 a 1.079,1.079 0 0 1 1.068,-0.924 h 8.729 v -5.23 a 1.079,1.079 0 0 1 1.043,-1.078 z"
       class="B D"
       id="path54" />
  </g>
  <path
     d="M 90.588,66.837 C 89.52,65.093 88.142,63.592 86.906,61.993 L 81.29,56.966 c -1.936,-1.266 -2.867,-3.791 -5.087,-4.617 -1.666,-0.835 -3.502,-1.189 -5.165,-2.01 -1.439,-1.823 -3.332,-2.698 -5.527,-2.103 -1.961,0.257 -4.401,-1.244 -5.276,1.495 -1.294,1.408 -2.477,2.861 -3.535,4.534 -1.055,1.764 -2.814,2.642 -4.507,3.491 l -7.249,3.505 c -2.172,1.127 -4.211,2.53 -5.854,4.455 -0.639,0.631 -2.583,2.383 -0.482,1.931 l 52.805,0.011 c -0.151,-0.401 -0.551,-0.548 -0.826,-0.82 z"
     id="path58" />
  <path
     d="m 91.401,68.667 c -3.567,1.538 -7.413,2.402 -12.48,0.321 -2.741,0.707 -5.404,1.842 -8.599,0.898 -4.925,-1.456 -8.931,-1.036 -12.19,1.323 -4.152,-1.965 -7.947,-2.518 -11.278,-1.31 -3.905,1.417 -6.518,0.056 -9.183,-1.214 a 26.994,46.231 0 0 0 0.266,3.364 c 2.776,1.315 5.427,2.878 9.483,1.394 3.303,-1.209 7.066,-0.655 11.183,1.311 3.231,-2.359 7.204,-2.779 12.087,-1.323 3.168,0.944 5.808,-0.191 8.526,-0.898 4.791,1.984 8.481,1.289 11.88,-0.113 a 26.994,46.231 0 0 0 0.306,-3.751 z m -53.298,4.878 a 26.994,46.231 0 0 0 0.555,3.775 c 2.631,1.274 5.208,2.645 9.063,1.225 3.28,-1.209 7.017,-0.655 11.106,1.311 3.209,-2.36 7.154,-2.779 12.004,-1.323 3.146,0.945 5.769,-0.191 8.468,-0.898 4.396,1.834 7.859,1.38 11.023,0.194 a 26.994,46.231 0 0 0 0.6,-3.92 c -3.351,1.354 -6.998,1.992 -11.707,0.041 -2.718,0.707 -5.358,1.842 -8.526,0.898 -4.883,-1.456 -8.855,-1.036 -12.087,1.323 -4.117,-1.965 -7.88,-2.519 -11.183,-1.311 -3.974,1.455 -6.6,-0.017 -9.316,-1.315 z m 0.823,5.234 a 26.994,46.231 0 0 0 0.825,3.704 c 2.311,1.154 4.675,2.175 8.06,0.882 3.167,-1.21 6.776,-0.656 10.724,1.312 3.099,-2.361 6.908,-2.782 11.592,-1.324 3.038,0.945 5.571,-0.191 8.177,-0.899 4.415,1.909 7.855,1.34 11.009,0.047 a 26.994,46.231 0 0 0 0.716,-3.147 c -3.073,1.103 -6.443,1.475 -10.688,-0.302 -2.69,0.707 -5.304,1.843 -8.439,0.898 -4.833,-1.456 -8.764,-1.036 -11.963,1.323 -4.075,-1.966 -7.799,-2.519 -11.068,-1.311 -3.8,1.405 -6.354,0.078 -8.946,-1.183 z m 1.283,5.422 a 26.994,46.231 0 0 0 1.121,3.578 c 2.092,1.069 4.275,1.909 7.326,0.688 3.027,-1.211 6.474,-0.656 10.247,1.313 2.961,-2.364 6.602,-2.785 11.076,-1.326 2.903,0.946 5.323,-0.191 7.813,-0.9 3.942,1.785 7.07,1.405 9.923,0.292 a 26.994,46.231 0 0 0 1.102,-3.496 c -3.056,1.253 -6.393,1.779 -10.659,-0.103 -2.555,0.708 -5.038,1.845 -8.017,0.899 -4.591,-1.458 -8.326,-1.038 -11.365,1.325 -3.871,-1.968 -7.409,-2.522 -10.515,-1.312 -3.393,1.322 -5.739,0.227 -8.053,-0.959 z m 37.396,4.96 c -2.449,0.709 -4.828,1.846 -7.682,0.9 -4.4,-1.459 -7.979,-1.038 -10.891,1.327 -3.71,-1.97 -7.1,-2.525 -10.076,-1.314 -2.904,1.182 -5.008,0.432 -7.005,-0.588 a 26.994,46.231 0 0 0 1.589,3.733 c 1.555,0.568 3.265,0.754 5.416,-0.121 2.976,-1.212 6.366,-0.656 10.076,1.314 2.912,-2.365 6.491,-2.785 10.891,-1.326 2.854,0.947 5.233,-0.192 7.682,-0.9 3.085,1.421 5.663,1.471 8.001,0.871 A 26.994,46.231 0 0 0 87.09,89.56 c -2.732,1.03 -5.734,1.331 -9.485,-0.397 z"
     fill="url(#E)"
     id="path60"
     style="fill:url(#E)" />
  <g
     stroke="#808000"
     id="g76"
     transform="translate(-40.464,-77.1)">
    <g
       stroke-width="0.2"
       id="g68">
      <path
         d="m 100.757,183.614 h 8.486 v 5.078 h -8.486 z"
         fill="url(#I)"
         class="B M"
         id="path62"
         style="fill:url(#linearGradient1181)" />
      <path
         d="m 101.559,188.692 -1.537,2.773 h 4.978 4.977 l -1.536,-2.773 H 105 Z"
         fill="url(#I)"
         id="path64"
         style="fill:url(#linearGradient1183)" />
      <path
         d="m 99.254,191.452 -1.485,2.032 h 14.462 l -1.485,-2.032 z"
         fill="url(#I)"
         id="path66"
         style="fill:url(#linearGradient1185)" />
    </g>
    <g
       stroke-width="0.2"
       id="g74">
      <path
         d="M 88.256,175.329 A 24.757,46.252 0 0 0 105,187.512 24.757,46.252 0 0 0 121.744,175.329 Z"
         fill="url(#I)"
         class="B M"
         id="path70"
         style="fill:url(#linearGradient1187)" />
      <path
         d="m 86.492,172.923 1.203,2.406 H 105 122.306 l 1.203,-2.406 H 105 Z"
         fill="url(#I)"
         id="path72"
         style="fill:url(#linearGradient1189)" />
    </g>
  </g>
  <g
     id="g1431">
    <use
       xlink:href="#M"
       class="C E F"
       id="use78"
       x="0"
       y="0"
       width="100%"
       height="100%"
       transform="translate(-40.464,-77.1)" />
    <use
       xlink:href="#N"
       class="B G"
       id="use80"
       x="0"
       y="0"
       width="100%"
       height="100%"
       transform="translate(-40.464,-77.1)" />
    <g
       transform="rotate(11.507023,568.08217,-962.82844)"
       id="g86">
      <use
         xlink:href="#M"
         x="175.381"
         class="C E F"
         id="use82"
         y="0"
         width="100%"
         height="100%" />
      <use
         xlink:href="#N"
         x="175.381"
         class="B G"
         id="use84"
         y="0"
         width="100%"
         height="100%" />
    </g>
    <g
       transform="rotate(24.044993,363.45968,-394.22877)"
       id="g92">
      <use
         xlink:href="#M"
         x="175.381"
         class="C E F"
         id="use88"
         y="0"
         width="100%"
         height="100%" />
      <use
         xlink:href="#N"
         x="175.381"
         class="B G"
         id="use90"
         y="0"
         width="100%"
         height="100%" />
    </g>
    <g
       transform="rotate(35.93103,300.79344,-220.80097)"
       id="g98">
      <use
         xlink:href="#M"
         x="175.381"
         class="C E F"
         id="use94"
         y="0"
         width="100%"
         height="100%" />
      <use
         xlink:href="#N"
         x="175.381"
         class="B G"
         id="use96"
         y="0"
         width="100%"
         height="100%" />
    </g>
    <g
       transform="rotate(43.339009,284.63761,-163.13491)"
       id="g104">
      <use
         xlink:href="#M"
         x="175.381"
         class="C E F"
         id="use100"
         y="0"
         width="100%"
         height="100%" />
      <use
         xlink:href="#N"
         x="175.381"
         class="B G"
         id="use102"
         y="0"
         width="100%"
         height="100%" />
    </g>
    <g
       transform="rotate(49.806001,274.69495,-126.32413)"
       id="g110">
      <use
         xlink:href="#M"
         x="175.381"
         class="C E F"
         id="use106"
         y="0"
         width="100%"
         height="100%" />
      <use
         xlink:href="#N"
         x="175.381"
         class="B G"
         id="use108"
         y="0"
         width="100%"
         height="100%" />
    </g>
    <g
       transform="matrix(0.447332,0.752182,-0.752182,0.447332,51.07523,-225.87454)"
       id="g116">
      <use
         xlink:href="#M"
         x="175.381"
         class="C E F"
         id="use112"
         y="0"
         width="100%"
         height="100%" />
      <use
         xlink:href="#N"
         x="175.381"
         class="B G"
         id="use114"
         y="0"
         width="100%"
         height="100%" />
    </g>
    <g
       transform="matrix(0.33941,0.80665,-0.80665,0.33941,90.68937,-228.73098)"
       id="g122">
      <use
         xlink:href="#M"
         x="175.381"
         class="C E F"
         id="use118"
         y="0"
         width="100%"
         height="100%" />
      <use
         xlink:href="#N"
         x="175.381"
         class="B G"
         id="use120"
         y="0"
         width="100%"
         height="100%" />
    </g>
    <g
       transform="matrix(-0.042685,0.874106,-0.874106,-0.042685,204.51774,-181.70644)"
       id="g128">
      <use
         xlink:href="#M"
         x="175.381"
         class="C E F"
         id="use124"
         y="0"
         width="100%"
         height="100%" />
      <use
         xlink:href="#N"
         x="175.381"
         class="B G"
         id="use126"
         y="0"
         width="100%"
         height="100%" />
    </g>
    <g
       transform="matrix(-0.268105,0.833069,-0.833069,-0.268105,254.24521,-123.12506)"
       id="g134">
      <use
         xlink:href="#M"
         x="175.381"
         class="C E F"
         id="use130"
         y="0"
         width="100%"
         height="100%" />
      <use
         xlink:href="#N"
         x="175.381"
         class="B G"
         id="use132"
         y="0"
         width="100%"
         height="100%" />
    </g>
    <g
       transform="matrix(-0.15015,0.862171,-0.862171,-0.15015,227.25818,-143.68184)"
       id="g140">
      <use
         xlink:href="#M"
         x="175.381"
         class="C E F"
         id="use136"
         y="0"
         width="100%"
         height="100%" />
      <use
         xlink:href="#N"
         x="175.381"
         class="B G"
         id="use138"
         y="0"
         width="100%"
         height="100%" />
    </g>
    <g
       transform="matrix(-0.052059,0.873598,-0.873598,-0.052059,203.02127,-154.36255)"
       id="g146">
      <use
         xlink:href="#M"
         x="175.381"
         class="C E F"
         id="use142"
         y="0"
         width="100%"
         height="100%" />
      <use
         xlink:href="#N"
         x="175.381"
         class="B G"
         id="use144"
         y="0"
         width="100%"
         height="100%" />
    </g>
    <g
       transform="matrix(0.029014,0.874667,-0.874667,0.029014,182.38864,-159.11189)"
       id="g152">
      <use
         xlink:href="#M"
         x="175.381"
         class="C E F"
         id="use148"
         y="0"
         width="100%"
         height="100%" />
      <use
         xlink:href="#N"
         x="175.381"
         class="B G"
         id="use150"
         y="0"
         width="100%"
         height="100%" />
    </g>
    <g
       transform="matrix(0.113264,0.867787,-0.867787,0.113264,161.28726,-162.52666)"
       id="g158">
      <use
         xlink:href="#M"
         x="175.381"
         class="C E F"
         id="use154"
         y="0"
         width="100%"
         height="100%" />
      <use
         xlink:href="#N"
         x="175.381"
         class="B G"
         id="use156"
         y="0"
         width="100%"
         height="100%" />
    </g>
    <g
       transform="matrix(0.313448,0.817089,-0.817089,0.313448,103.31565,-176.99915)"
       id="g164">
      <use
         xlink:href="#M"
         x="175.381"
         class="C E F"
         id="use160"
         y="0"
         width="100%"
         height="100%" />
      <use
         xlink:href="#N"
         x="175.381"
         class="B G"
         id="use162"
         y="0"
         width="100%"
         height="100%" />
    </g>
    <g
       transform="matrix(0.413041,0.771544,-0.771544,0.413041,73.40192,-176.39864)"
       id="g170">
      <use
         xlink:href="#M"
         x="175.381"
         class="C E F"
         id="use166"
         y="0"
         width="100%"
         height="100%" />
      <use
         xlink:href="#N"
         x="175.381"
         class="B G"
         id="use168"
         y="0"
         width="100%"
         height="100%" />
    </g>
    <g
       transform="matrix(0.569112,0.664827,-0.664827,0.569112,20.19394,-170.25309)"
       id="g176">
      <use
         xlink:href="#M"
         x="175.381"
         class="C E F"
         id="use172"
         y="0"
         width="100%"
         height="100%" />
      <use
         xlink:href="#N"
         x="175.381"
         class="B G"
         id="use174"
         y="0"
         width="100%"
         height="100%" />
    </g>
    <path
       d="m 30.884,37.02 c -5.504,15.117 -11.247,54.993 15.587,73.404 3.074,1.126 5.365,2.497 6.426,4.252 l 0.331,-3.402 c -2.99,-1.489 -6.17,-1.929 -8.693,-3.591 C 19.333,88.659 28.41,47.509 31.846,37.223 Z"
       fill="#5b5b00"
       id="path178" />
  </g>
  <g
     id="g1472"
     transform="matrix(1.0319501,0,0,1.0319501,-3.4358549,-2.7034362)">
    <g
       transform="matrix(0.209097,-0.793787,0.793787,0.209097,-110.66656,239.59004)"
       id="g188">
      <g
         class="C"
         id="g184">
        <use
           xlink:href="#O"
           class="H I"
           id="use180"
           x="0"
           y="0"
           width="100%"
           height="100%" />
        <use
           xlink:href="#P"
           class="J K"
           id="use182"
           x="0"
           y="0"
           width="100%"
           height="100%" />
      </g>
      <use
         xlink:href="#Q"
         class="D"
         id="use186"
         x="0"
         y="0"
         width="100%"
         height="100%" />
    </g>
    <g
       transform="matrix(0.438359,-0.694017,0.694017,0.438359,-159.53522,175.79582)"
       id="g198">
      <g
         class="C"
         id="g194">
        <use
           xlink:href="#O"
           class="H I"
           id="use190"
           x="0"
           y="0"
           width="100%"
           height="100%" />
        <use
           xlink:href="#P"
           class="J K"
           id="use192"
           x="0"
           y="0"
           width="100%"
           height="100%" />
      </g>
      <use
         xlink:href="#Q"
         class="D"
         id="use196"
         x="0"
         y="0"
         width="100%"
         height="100%" />
    </g>
    <g
       transform="matrix(0.650026,-0.661855,0.661855,0.650026,-216.32823,136.94839)"
       id="g208">
      <g
         class="C"
         id="g204">
        <use
           xlink:href="#O"
           class="H I"
           id="use200"
           x="0"
           y="0"
           width="100%"
           height="100%" />
        <use
           xlink:href="#P"
           class="J K"
           id="use202"
           x="0"
           y="0"
           width="100%"
           height="100%" />
      </g>
      <use
         xlink:href="#Q"
         class="D"
         id="use206"
         x="0"
         y="0"
         width="100%"
         height="100%" />
    </g>
    <g
       transform="rotate(-45.516969,62.691554,362.61041)"
       id="g218">
      <g
         class="C"
         id="g214">
        <use
           xlink:href="#O"
           class="H I"
           id="use210"
           x="0"
           y="0"
           width="100%"
           height="100%" />
        <use
           xlink:href="#P"
           class="J K"
           id="use212"
           x="0"
           y="0"
           width="100%"
           height="100%" />
      </g>
      <use
         xlink:href="#Q"
         class="D"
         id="use216"
         x="0"
         y="0"
         width="100%"
         height="100%" />
    </g>
    <g
       transform="rotate(-40.779014,57.74925,398.85811)"
       id="g228">
      <g
         class="C"
         id="g224">
        <use
           xlink:href="#O"
           class="H I"
           id="use220"
           x="0"
           y="0"
           width="100%"
           height="100%" />
        <use
           xlink:href="#P"
           class="J K"
           id="use222"
           x="0"
           y="0"
           width="100%"
           height="100%" />
      </g>
      <use
         xlink:href="#Q"
         class="D"
         id="use226"
         x="0"
         y="0"
         width="100%"
         height="100%" />
    </g>
    <g
       transform="matrix(0.812908,-0.582393,0.582393,0.812908,-251.57745,113.92693)"
       id="g238">
      <g
         class="C"
         id="g234">
        <use
           xlink:href="#O"
           class="H I"
           id="use230"
           x="0"
           y="0"
           width="100%"
           height="100%" />
        <use
           xlink:href="#P"
           class="J K"
           id="use232"
           x="0"
           y="0"
           width="100%"
           height="100%" />
      </g>
      <use
         xlink:href="#Q"
         class="D"
         id="use236"
         x="0"
         y="0"
         width="100%"
         height="100%" />
    </g>
    <g
       transform="rotate(-19.077028,-55.467266,753.59225)"
       id="g248">
      <g
         class="C"
         id="g244">
        <use
           xlink:href="#O"
           class="H I"
           id="use240"
           x="0"
           y="0"
           width="100%"
           height="100%" />
        <use
           xlink:href="#P"
           class="J K"
           id="use242"
           x="0"
           y="0"
           width="100%"
           height="100%" />
      </g>
      <use
         xlink:href="#Q"
         class="D"
         id="use246"
         x="0"
         y="0"
         width="100%"
         height="100%" />
    </g>
    <g
       class="C"
       id="g254"
       transform="translate(-40.464,-77.1)">
      <use
         xlink:href="#O"
         x="-173.72501"
         class="H I"
         id="use250"
         y="0"
         width="100%"
         height="100%" />
      <path
         d="m 127.087,181.142 c -3.4,2.125 -5.991,4.868 -10.758,5.947 l -0.267,2.005 c 1.758,0.613 6.908,-2.792 11.96,-6.08 2.356,0.508 4.949,0.16 7.751,-0.935 -3.543,-0.532 -3.849,-2.269 -3.608,-4.209 -1.94,1.236 -3.692,0.132 -3.775,-3.274 -1.109,2.015 -1.508,4.445 -1.303,6.548 z"
         class="J K"
         id="path252" />
    </g>
    <use
       xlink:href="#Q"
       x="-173.72501"
       class="D"
       id="use256"
       y="0"
       width="100%"
       height="100%"
       transform="translate(-40.464,-77.1)" />
  </g>
  <g
     id="g1488">
    <path
       d="m 119.625,115.384 -8.646,-2.126 c 1.866,-6.313 -1.569,-7.229 9.308,-22.713 -0.578,3.315 -1.334,6.603 -0.802,10.089 3.408,-5.234 6.296,-7.352 9.087,-8.887 -3.932,7.79 -7.803,15.586 -8.947,23.637 z"
       fill="url(#H)"
       id="path258"
       style="fill:url(#H);stroke:#808000;stroke-linejoin:round" />
    <path
       d="m 9.447,115.384 8.646,-2.126 c -1.866,-6.313 1.569,-7.229 -9.308,-22.713 0.578,3.315 1.334,6.603 0.802,10.089 C 6.179,95.4 3.291,93.282 0.5,91.747 c 3.932,7.79 7.803,15.586 8.947,23.637 z"
       fill="url(#G)"
       id="path260"
       style="fill:url(#G);stroke:#808000;stroke-linejoin:round" />
    <path
       d="m 8.885,108.316 9.269,-1.481 -0.062,6.423 -8.646,2.126 c 0.726,-1.9 -0.362,-4.706 -0.561,-7.069 z m 111.302,-0.001 -9.269,-1.481 0.062,6.423 8.646,2.126 c -0.726,-1.9 0.362,-4.706 0.561,-7.069 z"
       fill="#acac00"
       id="path262"
       style="stroke:#808000;stroke-linejoin:round" />
    <g
       class="M"
       id="g268"
       style="stroke:#808000;stroke-linejoin:round"
       transform="translate(-40.464,-77.1)">
      <use
         xlink:href="#R"
         fill="url(#F)"
         class="B"
         id="use264"
         style="fill:url(#F)"
         x="0"
         y="0"
         width="100%"
         height="100%" />
      <use
         xlink:href="#R"
         fill="url(#L)"
         class="B"
         id="use266"
         style="fill:url(#L)"
         x="0"
         y="0"
         width="100%"
         height="100%" />
    </g>
    <path
       d="m 13.864,114.051 3.878,-2.371 1.008,1.648 q 0.38,0.622 0.446,0.967 0.07,0.346 -0.094,0.679 -0.164,0.333 -0.508,0.543 -0.436,0.267 -0.879,0.185 -0.44,-0.083 -0.826,-0.549 0.007,0.345 -0.07,0.617 -0.075,0.275 -0.356,0.832 l -0.467,0.936 -0.573,-0.936 0.498,-1.082 q 0.268,-0.578 0.316,-0.76 0.051,-0.184 0.017,-0.334 -0.031,-0.152 -0.196,-0.422 l -0.097,-0.159 -1.619,0.99 z m 2.717,-0.585 0.354,0.579 q 0.345,0.563 0.478,0.675 0.133,0.111 0.298,0.119 0.165,0.008 0.34,-0.099 0.196,-0.12 0.25,-0.298 0.059,-0.178 -0.026,-0.387 -0.045,-0.103 -0.336,-0.579 l -0.374,-0.611 z m 2.106,7.799 -0.585,-0.809 0.604,-0.927 -1.065,-1.472 -1.056,0.301 -0.571,-0.789 4.72,-1.23 0.569,0.786 z m 0.466,-2.423 0.999,-1.496 -1.726,0.491 z m -0.147,2.794 3.464,-2.943 0.954,1.122 q 0.542,0.638 0.655,0.876 0.175,0.364 0.083,0.788 -0.089,0.422 -0.503,0.773 -0.319,0.271 -0.635,0.34 -0.316,0.069 -0.594,-0.004 -0.273,-0.073 -0.47,-0.223 -0.262,-0.208 -0.666,-0.683 l -0.387,-0.456 -1.307,1.11 z m 3.472,-1.746 -0.983,0.835 0.325,0.383 q 0.351,0.414 0.524,0.507 0.173,0.093 0.355,0.073 0.184,-0.018 0.338,-0.149 0.189,-0.161 0.218,-0.376 0.029,-0.215 -0.085,-0.412 -0.083,-0.145 -0.404,-0.523 z m -0.705,4.915 3.298,-3.128 0.632,0.666 -3.298,3.128 z m 1.227,1.312 3.112,-3.313 0.669,0.628 -1.225,1.304 1.311,1.231 1.225,-1.304 0.669,0.628 -3.112,3.313 -0.669,-0.628 1.361,-1.449 -1.311,-1.231 -1.361,1.449 z m 8.081,6.722 1.543,-4.411 0.791,0.508 -1.111,2.997 2.386,-2.178 0.918,0.59 -1.045,3.102 2.303,-2.295 0.777,0.499 -3.385,3.228 -0.819,-0.526 1.074,-3.349 -2.595,2.372 z m 4.528,2.792 2.202,-3.977 0.803,0.445 -2.202,3.977 z m 1.571,0.884 1.988,-4.087 0.803,0.391 0.345,3.543 1.328,-2.73 0.767,0.373 -1.988,4.087 -0.828,-0.403 -0.351,-3.467 -1.297,2.665 z m 7.943,3.478 -0.928,-0.367 0.011,-1.106 -1.69,-0.668 -0.729,0.822 -0.905,-0.358 3.318,-3.576 0.902,0.357 z m -0.91,-2.294 0.038,-1.799 -1.191,1.343 z m 1.385,2.444 1.345,-4.342 0.853,0.264 0.878,3.45 0.899,-2.899 0.814,0.252 -1.345,4.342 -0.88,-0.273 -0.873,-3.374 -0.877,2.831 z m 6.811,0.159 0.168,-0.747 1.93,0.433 -0.396,1.767 q -0.342,0.209 -0.925,0.298 -0.579,0.086 -1.126,-0.036 -0.696,-0.156 -1.148,-0.563 -0.452,-0.41 -0.59,-1.009 -0.138,-0.603 0.005,-1.241 0.155,-0.693 0.567,-1.166 0.411,-0.473 1.035,-0.635 0.476,-0.125 1.111,0.017 0.826,0.185 1.211,0.637 0.389,0.449 0.385,1.09 l -0.927,-0.033 q -0.02,-0.348 -0.239,-0.594 -0.214,-0.248 -0.602,-0.335 -0.587,-0.132 -1.018,0.162 -0.428,0.295 -0.593,1.027 -0.177,0.79 0.085,1.265 0.263,0.472 0.832,0.6 0.281,0.063 0.587,0.017 0.309,-0.048 0.547,-0.16 l 0.126,-0.563 z m 3.027,-2.296 0.909,0.128 -0.342,2.438 q -0.081,0.58 -0.072,0.757 0.02,0.285 0.214,0.484 0.198,0.197 0.579,0.25 0.387,0.054 0.605,-0.075 0.219,-0.132 0.291,-0.357 0.072,-0.225 0.147,-0.759 l 0.35,-2.49 0.909,0.128 -0.332,2.364 q -0.114,0.811 -0.235,1.135 -0.121,0.324 -0.353,0.527 -0.229,0.203 -0.58,0.294 -0.351,0.089 -0.885,0.013 -0.645,-0.09 -0.959,-0.285 -0.31,-0.197 -0.471,-0.461 -0.16,-0.267 -0.185,-0.536 -0.035,-0.399 0.071,-1.155 z m 3.93,5.105 0.271,-4.537 0.891,0.053 1.676,3.141 0.181,-3.03 0.851,0.051 -0.271,4.537 -0.919,-0.055 -1.653,-3.068 -0.177,2.959 z m 9.874,0.041 -0.522,-4.515 0.912,-0.105 0.232,2.005 1.61,-2.218 1.226,-0.142 -1.497,1.955 2.111,2.55 -1.18,0.136 -1.486,-1.976 -0.652,0.84 0.158,1.364 z m 4.539,-0.568 -0.862,-4.463 3.309,-0.639 0.146,0.755 -2.408,0.465 0.191,0.989 2.241,-0.433 0.145,0.752 -2.241,0.433 0.235,1.215 2.493,-0.481 0.145,0.752 z m 4.157,-0.831 -1.191,-4.387 1.864,-0.506 q 0.703,-0.191 1.053,-0.157 0.352,0.03 0.625,0.28 0.274,0.25 0.379,0.639 0.134,0.494 -0.069,0.896 -0.203,0.399 -0.758,0.64 0.333,0.09 0.573,0.24 0.243,0.149 0.699,0.575 l 0.768,0.71 -1.059,0.288 -0.899,-0.781 q -0.48,-0.419 -0.641,-0.517 -0.162,-0.101 -0.316,-0.11 -0.154,-0.013 -0.46,0.07 l -0.18,0.049 0.497,1.831 z m 0.198,-2.772 0.655,-0.178 q 0.637,-0.173 0.781,-0.27 0.144,-0.097 0.198,-0.253 0.054,-0.156 0,-0.354 -0.06,-0.221 -0.216,-0.324 -0.154,-0.106 -0.379,-0.083 -0.112,0.014 -0.65,0.161 l -0.691,0.188 z"
       id="path272" />
    <path
       d="m 83.313,140.17 -1.23,-3.571 -1.275,0.439 -0.25,-0.727 3.415,-1.176 0.25,0.727 -1.272,0.438 1.23,3.571 z m 6.032,-2.372 -0.921,0.385 -0.764,-0.799 -1.676,0.701 0.052,1.097 -0.898,0.376 -0.12,-4.877 0.895,-0.374 z m -2.253,-1.007 -1.229,-1.314 0.084,1.793 z m 7.162,-1.582 -2.41,-3.854 1.638,-1.024 q 0.618,-0.386 0.962,-0.455 0.345,-0.073 0.68,0.087 0.334,0.16 0.548,0.502 0.271,0.434 0.194,0.877 -0.079,0.441 -0.54,0.832 0.344,-0.011 0.618,0.064 0.276,0.073 0.836,0.348 l 0.941,0.458 -0.931,0.582 -1.087,-0.487 q -0.581,-0.262 -0.764,-0.309 -0.184,-0.049 -0.334,-0.014 -0.152,0.033 -0.42,0.2 l -0.158,0.099 1.006,1.609 z m -0.613,-2.711 0.576,-0.36 q 0.56,-0.35 0.67,-0.485 0.11,-0.134 0.116,-0.299 0.007,-0.165 -0.102,-0.338 -0.122,-0.195 -0.301,-0.247 -0.178,-0.057 -0.387,0.03 -0.103,0.046 -0.576,0.342 l -0.607,0.38 z m 7.776,-2.187 -0.803,0.594 -0.933,-0.594 -1.461,1.08 0.312,1.053 -0.783,0.579 -1.28,-4.707 0.78,-0.577 z m -2.428,-0.441 -1.507,-0.984 0.509,1.721 z m 2.802,0.12 -2.985,-3.428 0.692,-0.603 1.175,1.349 1.356,-1.181 -1.175,-1.349 0.692,-0.603 2.985,3.428 -0.692,0.603 -1.305,-1.499 -1.356,1.181 1.305,1.499 z m 6.292,-5.974 -0.697,0.715 -1.017,-0.436 -1.268,1.302 0.478,0.989 -0.679,0.698 -2.022,-4.439 0.677,-0.695 z m -2.467,-0.044 -1.645,-0.728 0.78,1.617 z m 2.781,-0.336 -3.51,-2.888 1.227,-1.492 q 0.463,-0.563 0.768,-0.738 0.304,-0.179 0.672,-0.134 0.368,0.046 0.679,0.302 0.395,0.325 0.463,0.77 0.065,0.443 -0.248,0.96 0.323,-0.12 0.606,-0.136 0.285,-0.019 0.903,0.064 l 1.037,0.135 -0.697,0.848 -1.185,-0.116 q -0.634,-0.064 -0.822,-0.05 -0.19,0.012 -0.321,0.093 -0.133,0.079 -0.334,0.323 l -0.118,0.144 1.465,1.206 z m -1.442,-2.375 0.431,-0.524 q 0.42,-0.51 0.481,-0.672 0.061,-0.162 0.015,-0.321 -0.046,-0.159 -0.204,-0.289 -0.177,-0.146 -0.364,-0.139 -0.187,0.003 -0.358,0.152 -0.083,0.076 -0.437,0.507 l -0.455,0.553 z m 1.555,-5.165 0.529,-0.746 2.346,1.665 q 0.46,0.327 0.651,0.583 0.246,0.338 0.241,0.764 -0.008,0.424 -0.34,0.892 -0.389,0.549 -0.905,0.627 -0.518,0.077 -1.114,-0.342 l 0.42,-0.763 q 0.328,0.213 0.516,0.226 0.286,0.02 0.462,-0.227 0.178,-0.25 0.11,-0.454 -0.071,-0.206 -0.521,-0.525 z m 6.928,-2.419 -0.521,0.852 -1.088,-0.2 -0.948,1.55 0.685,0.859 -0.508,0.831 -2.954,-3.882 0.506,-0.828 z m -2.416,0.504 -1.766,-0.346 1.119,1.404 z"
       id="path274" />
  </g>
  <g
     id="g1378">
    <path
       d="m 73.778,23.77 0.52,1.274 c 5.287,2.403 -0.753,7.656 6.291,9.905 l -1.534,-3.926 c 1.171,1.844 2.268,3.868 4.108,4.108 -5.173,-5.505 0.811,-10.452 -5.836,-11.957 -0.94,-0.213 -2.031,0.713 -3.549,0.596 z"
       class="N O P"
       id="path276" />
    <path
       d="m 76.976,24.03 c -0.615,-0.129 -1.344,0.079 -1.908,0.24 -0.141,0.798 1.191,0.418 1.437,1.147 0.454,0.592 0.713,1.321 0.683,2.072 0.332,1.108 0.209,2.263 0.279,3.399 0.094,0.769 0.517,1.465 1.003,2.052 -0.029,-0.729 -0.456,-1.467 -0.184,-2.198 0.385,-0.848 1.883,-0.481 1.864,0.462 0.054,0.332 0.612,1.444 0.457,0.595 -0.285,-1.113 -0.64,-2.231 -0.538,-3.396 0.113,-1.284 -0.292,-2.663 -1.226,-3.57 -0.499,-0.483 -1.183,-0.591 -1.787,-0.815 z"
       class="L"
       id="path278" />
    <path
       d="m 77.626,25.148 c -0.663,0.392 0.399,1.132 0.258,1.735 0.187,0.937 0.204,1.902 0.233,2.847 0.19,-0.521 0.764,-0.839 1.218,-0.282 -0.025,-0.584 -0.486,-0.744 -0.725,-1.434 -0.26,-0.705 -0.001,-1.504 -0.325,-2.185 -0.223,-0.217 -0.324,-0.606 -0.658,-0.68 z"
       class="D"
       id="path280" />
    <g
       stroke-width="0.306"
       class="O"
       id="g286"
       transform="translate(-40.464,-77.1)">
      <path
         d="m 97.253,103.81 c -0.206,0.559 -0.667,0.928 -1.154,1.222 -0.543,0.46 -1.187,0.931 -1.942,0.827 -0.666,-0.067 -1.356,0.044 -2.005,-0.145 -0.415,-0.299 -0.934,-0.359 -1.39,-0.567 -0.606,-0.12 -1.23,10e-4 -1.842,-0.068 -0.583,-0.002 -0.892,0.583 -0.939,1.093 -0.032,0.532 -10e-4,1.103 0.222,1.592 0.299,0.406 0.581,0.34 1.044,0.78 -1.026,0.491 1.25,1.238 1.718,1.516 0.584,0.209 0.088,0.848 -0.045,1.208 -0.108,0.481 -0.182,0.968 -0.465,1.385 -0.386,0.576 -0.633,-0.493 -0.846,-0.747 A 2.65,2.65 0 0 0 88.26,110.63 c -0.493,-0.475 -1.211,-0.545 -1.737,-0.96 -0.509,-0.438 -0.301,-1.176 -0.318,-1.762 0.095,-1.535 -0.177,-3.053 0.371,-4.408 0.155,-0.614 0.829,-0.742 1.372,-0.677 0.811,-0.033 1.61,0.185 2.422,0.089 0.539,-0.025 1.094,-0.089 1.604,0.131 0.894,0.28 1.84,0.15 2.76,0.201 0.559,0.04 1.128,-0.077 1.68,0.009 0.34,0.091 0.568,0.396 0.84,0.556 z"
         class="N"
         id="path282" />
      <path
         d="m 89.394,111.546 c 0.488,-1.19 1.038,-1.16 1.569,-1.485"
         fill="none"
         id="path284" />
    </g>
    <path
       d="m 50.156,33.403 c -0.335,0.22 -0.692,0.445 -0.897,0.801 -0.029,0.339 0.38,0.521 0.351,0.869 0.044,0.264 0.321,0.229 0.234,-0.051 -0.039,-0.428 0.215,-0.787 0.4,-1.149 0.071,-0.133 0.262,-0.636 -0.088,-0.471 z"
       class="L"
       id="path288" />
    <path
       d="m 50.149,33.619 c -0.282,0.186 -0.542,0.378 -0.705,0.631 0.003,0.087 0.043,0.166 0.129,0.285 0.038,0.053 0.081,0.119 0.119,0.188 0.062,-0.356 0.261,-0.656 0.398,-0.926 a 0.172,0.172 0 0 1 0,-0.002 c 0.014,-0.027 0.036,-0.106 0.059,-0.176 z m -0.369,1.428 c -0.004,0.019 0.003,0.028 0.002,0.041 z"
       class="D"
       id="path290" />
    <path
       d="m 53.083,26.687 c -0.483,0.259 -1.039,0.293 -1.544,0.485 -0.803,0.26 -1.655,0.034 -2.471,0.191 -0.41,0.201 -0.955,0.137 -1.297,0.44 -0.205,0.328 -0.442,0.642 -0.595,0.997 -0.136,0.403 -0.265,0.821 -0.188,1.252 0.094,0.451 0.057,0.971 0.406,1.322 0.341,0.285 0.548,0.719 0.969,0.91 0.347,0.139 0.752,0.434 0.818,0.797 l -0.622,0.625 C 48.208,33.475 47.934,33.092 47.477,32.985 47.105,32.771 46.639,32.706 46.325,32.404 46.014,32.005 46.22,31.477 46.171,31.018 l 0.006,-3.876 c 0.026,-0.374 0.209,-1.001 0.598,-1.043 0.151,-0.061 0.488,-0.211 0.472,-0.105 0.685,-0.233 1.612,0.223 2.31,0.157 l 1.581,0.045 c 0.557,-0.003 1.355,0.19 1.905,0.291 0.117,0.016 0.133,0.135 0.04,0.2 z"
       class="L"
       id="path292" />
    <path
       d="m 46.888,26.429 c -0.694,0.284 -0.191,1.177 -0.407,1.729 -0.197,0.836 0.097,1.664 0.035,2.498 -0.159,0.762 -0.267,1.682 0.622,1.99 0.52,0.343 0.473,-0.127 0.08,-0.368 -0.432,-0.663 -0.239,-1.596 -0.371,-2.379 0.077,-0.849 -0.266,-1.94 0.523,-2.548 0.473,-0.494 1.17,-0.518 1.802,-0.554 0.491,-0.1 1.612,0.247 1.72,-0.272 -0.625,-0.022 -1.257,0.02 -1.882,-0.099 -0.7,-0.1 -1.434,-0.236 -2.122,0.003 z"
       class="D"
       id="path294" />
    <g
       class="O P"
       id="g300"
       transform="translate(-40.464,-77.1)">
      <path
         d="m 112.292,112.257 -0.316,4.953 c -2.438,2.11 -2.434,2.535 -2.427,3.162 h 2.059 c 0.851,-1.763 2,-1.091 2.279,-2.132 -0.409,-2.944 0.444,-4.913 1.544,-6.691 -1.37,-3.28 -2.789,-6.516 -9.044,-5.294 2.466,1.803 3.666,4.373 5.905,6.003 z"
         class="N"
         id="path296" />
      <path
         d="m 110.435,118.641 c 0.747,0.184 1.315,0.527 1.44,1.264"
         fill="none"
         id="path298" />
    </g>
    <path
       d="m 69.937,41.903 c -0.179,0.329 -0.45,0.599 -0.608,0.94 0.097,0.237 0.439,0.084 0.64,0.126 a 2.09,2.09 0 0 1 0.77,0.095 c 0.193,0.076 0.441,-0.137 0.327,-0.332 -0.197,-0.198 -0.431,-0.359 -0.625,-0.563 -0.143,-0.119 -0.312,-0.26 -0.505,-0.266 z"
       class="L"
       id="path302" />
    <path
       d="m 69.995,42.273 c -0.109,0.116 -0.241,0.233 -0.284,0.391 -0.01,0.181 0.219,0.07 0.326,0.108 0.202,0.038 0.41,0.05 0.604,0.123 0.071,0.031 0.287,0.057 0.162,-0.065 -0.12,-0.121 -0.275,-0.198 -0.401,-0.312 -0.127,-0.07 -0.166,-0.239 -0.309,-0.285 -0.038,-0.012 -0.079,0.006 -0.099,0.04 z"
       class="D"
       id="path304" />
    <path
       d="m 73.277,34.594 -3.125,-2.022 c 0.141,0.773 0.501,1.335 1.912,2.353 0.185,0.587 -0.074,3.502 -0.294,5.552 l -1.14,0.809 0.699,0.588 c 0.18,-0.308 0.535,-0.49 0.956,-0.625 0.368,-0.18 0.324,-0.497 0.404,-0.772 z"
       class="L"
       id="path306" />
    <path
       d="m 71.165,41.552 -0.299,-0.26 1.105,-0.767 0.338,-5.472 c -0.841,-0.758 -1.375,-1.073 -1.56,-1.729 l 2.002,1.469 c 0.06,1.906 -0.269,3.908 -0.403,5.862 z"
       class="D"
       id="path308" />
    <path
       d="m 49.47,9.939 c 0.028,0.579 0.115,1.382 -0.118,1.808 -0.393,0.718 -1.189,0.984 -1.026,1.832 0.434,1.952 -1.373,3.646 -1.645,5.924 -0.062,0.514 0.061,0.926 0.292,1.147 l 1.766,0.775 c 0.352,0.037 0.782,-0.223 0.939,-0.723 L 50.51,18.57 c 0.549,0.293 1.271,-0.163 1.508,-0.624 -0.007,2.477 0.503,4.982 1.04,6.499 -0.673,5.979 1.181,5.133 2.236,6.447 v 10.659 c -1.264,0.652 -1.865,1.606 -2.08,2.6 h 2.392 c 0.242,-0.942 0.636,-1.709 1.56,-1.872 -0.932,-6.759 0.017,-7.354 0.936,-10.139 3.63,0.185 6.738,1.974 11.543,-1.456 0.464,1.028 1.644,2.342 5.511,4.731 l -0.208,5.823 c -1.409,0.688 -2.158,1.407 -2.288,2.339 h 2.704 c 0,-1.058 1.352,-1.118 1.352,-2.236 -0.589,-2.119 0.23,-3.775 0.312,-4.315 C 77.589,33.296 76.3,34.044 75.936,32.554 75.633,26.121 79.614,22.728 71.361,22.363 67.79,22.205 62.818,22.248 60.714,19.576 56.643,14.405 52.635,11.171 50.462,11.602 Z"
       class="N O P"
       id="path310" />
    <path
       d="m 48.739,21.425 c -0.229,-0.358 0.267,-1.092 0.401,-1.638 -0.294,0.482 -0.716,1.471 -0.936,1.398 z"
       fill="#6f6c6c"
       id="path312" />
    <path
       d="m 47.837,20.059 a 0.251,0.088 29.409 0 1 0.175,0.2 0.251,0.088 29.409 0 1 -0.261,-0.046 0.251,0.088 29.409 0 1 -0.175,-0.2 0.251,0.088 29.409 0 1 0.261,0.046 z"
       class="B M"
       id="path314" />
    <path
       d="m 50.885,12.142 c -0.648,0.004 -2.087,0.183 -2.065,1.203 l -0.202,1.813 c -0.442,1.594 -1.335,2.985 -1.547,4.487 -0.083,0.324 0.457,0.859 0.349,0.251 -0.016,-0.301 1.271,0.178 0.685,0.508 -0.294,0.462 0.568,0.184 0.538,-0.208 0.455,-0.779 0.713,-1.663 0.981,-2.523 0.016,-0.106 0.042,-0.211 0.071,-0.314 l 0.008,0.014 c -0.027,1.159 -0.342,2.407 -0.819,3.705 0.851,-0.577 1.118,-2.175 1.677,-3.263 0.344,0.622 1.067,0.063 1.534,-0.364 0.241,2.557 0.693,4.849 1.326,6.915 -0.52,3.747 0.152,4.774 1.067,5.251 -0.026,-4.089 1.204,-6.4 2.207,-9.033 -1.291,3.933 -2.478,7.901 -0.966,9.623 l -0.019,1.697 c -0.192,3.367 -0.124,6.627 -0.026,9.874 -0.631,0.228 -0.492,0.396 -0.754,0.603 l 0.676,0.364 c 0.275,-0.437 0.671,-0.633 1.118,-0.728 -0.473,-3.759 -0.782,-7.486 1.248,-10.763 6.789,1.482 9.355,0.148 11.829,-1.247 1.325,2.596 3.431,3.872 5.745,5.121 l -0.234,6.239 -0.936,0.624 1.248,0.312 c 0.462,-0.394 1.047,-0.579 0.634,-1.613 -0.579,-1.446 1.301,-5.033 0.146,-6.498 -2.955,-3.749 1.894,-8.573 -1.248,-10.191 -4.828,-2.485 -13.657,1.836 -16.88,-3.178 -2.116,-3.292 -4.611,-6.895 -7.167,-8.677 a 2.52,2.52 0 0 0 -0.223,-0.007 z"
       class="L"
       id="path316" />
    <path
       d="m 52.545,13.59 c 0.614,1.063 1.155,3.079 -0.215,3.753 0.111,2.449 0.857,4.993 1.398,6.916 -0.437,1.186 -0.281,3.914 0.266,4.813 0.05,-3.243 0.92,-5.1 1.976,-7.903 -0.074,-4.693 -2.454,-6.366 -3.425,-7.58 z m -1.901,-0.917 c -0.796,-0.016 -1.691,0.464 -1.743,1.517 1.074,-0.177 1.19,0.184 1.525,0.423 0.021,0.439 -0.385,1.004 -1.636,1.269 0.313,0.614 0.633,1.186 1.161,1.559 a 10.12,10.12 0 0 1 -0.636,2.963 c 0.51,-0.907 0.808,-1.813 1.079,-2.72 a 2.56,2.56 0 0 0 0.64,0.164 c 2.603,-1.193 1.823,-4.189 0.337,-4.996 a 1.61,1.61 0 0 0 -0.727,-0.179 z m -1.925,3.55 c -0.101,0.007 -0.238,0.436 -0.288,0.494 -0.104,0.329 -0.345,0.634 -0.411,0.973 l -0.005,-0.017 c -0.708,1.729 -0.481,1.813 -0.481,1.813 0.416,-0.21 0.684,-0.014 0.972,0.125 0.019,0.215 -0.035,0.487 0.199,0.258 0.111,-0.282 0.11,-0.615 0.286,-0.874 0.277,-0.483 0.345,-1.063 0.338,-1.612 C 49.22,17 48.789,16.737 48.782,16.294 48.764,16.241 48.742,16.22 48.719,16.222 Z"
       class="D"
       id="path318" />
    <g
       class="M"
       id="g324"
       transform="translate(-40.464,-77.1)">
      <path
         d="m 90.239,91.963 a 0.268,0.268 0 0 1 -0.536,0 0.268,0.268 0 0 1 0.536,0 z"
         class="B"
         id="path320" />
      <path
         d="m 90.1,91.845 a 0.064,0.064 0 0 1 -0.064,0.064 0.0645,0.0645 0 0 1 0,-0.129 0.064,0.064 0 0 1 0.064,0.064 z"
         fill="#a9a9a9"
         class="B"
         id="path322" />
    </g>
    <path
       d="m 49.949,14.611 a 0.323,0.473 58.985 0 1 -0.239,0.521 0.323,0.473 58.985 0 1 -0.572,-0.033 0.323,0.473 58.985 0 1 0.239,-0.521 0.323,0.473 58.985 0 1 0.572,0.033 z"
       fill="none"
       stroke="#696969"
       stroke-width="0.065"
       class="B Q"
       id="path326" />
    <path
       d="m 56.542,19.714 c 0.697,3.875 -1.352,5.46 -0.676,9.463 l -0.052,12.479 -0.332,0.457 0.257,0.055 0.68,-0.331 c -0.385,-4.358 0.141,-10.305 1.489,-11.471 5.523,1.151 8.628,-0.045 11.788,-1.189 1.295,1.834 2.974,4.299 6.083,5.875 0.023,2.719 -0.236,4.248 -0.338,6.369 -0.317,0.247 -0.432,0.294 -0.624,0.416 l 0.702,0.26 0.234,-0.572 0.13,-1.638 c 0.092,-1.872 0.993,-3.787 0.234,-5.615 -0.78,-1.878 -2.671,-2.136 -0.65,-8.293 C 75.232,24.871 74.7,24.253 72.815,23.825 67.26,23.413 60.794,26.11 56.541,19.714 Z"
       class="D"
       id="path328" />
    <path
       d="m 54.034,42.51 c 0.599,0.086 1.209,0.312 1.843,0.848 m 17.666,-1.242 c 0.815,0.118 1.569,0.306 2.213,0.62"
       fill="none"
       class="O P"
       id="path330" />
    <path
       d="m 73.608,42.527 c -1.347,1.378 2.83,0.777 1.105,0.148 -0.361,-0.089 -0.732,-0.158 -1.105,-0.148 z m -19.427,0.381 c -0.419,0.402 -0.698,1.179 0.171,0.931 0.809,0.454 1.686,-0.476 0.515,-0.689 a 2.59,2.59 0 0 1 -0.686,-0.242 z"
       fill="#e3e3e3"
       id="path332" />
    <g
       class="D"
       id="g338"
       transform="translate(-40.464,-77.1)">
      <use
         xlink:href="#S"
         id="use334"
         x="0"
         y="0"
         width="100%"
         height="100%" />
      <use
         xlink:href="#S"
         x="19.563999"
         y="-0.54699999"
         id="use336"
         width="100%"
         height="100%" />
    </g>
    <path
       d="m 53.37,12.461 c 0.278,0.691 0.716,1.306 0.982,2.003 0.131,0.438 0.306,0.558 0.702,0.49 0.531,0.317 0.966,0.625 1.007,1.279 0.318,0.399 0.51,1.032 0.934,1.41 0.332,0.513 0.612,1.055 1.091,1.455 0.474,0.599 0.746,1.345 1.348,1.84 0.288,0.593 1.05,0.438 1.463,0.967 0.266,0.24 0.89,0.448 0.471,-0.056 L 60.563,20.2 C 60.409,19.579 60.231,18.959 59.837,18.441 59.563,17.657 59.193,16.914 58.682,16.247 58.171,15.128 56.894,14.669 56.306,13.609 55.99,13.031 55.358,12.847 54.76,12.733 54.302,12.612 53.84,12.504 53.37,12.461 Z"
       class="N O P"
       id="path340" />
    <g
       class="L"
       id="g346"
       transform="translate(-40.464,-77.1)">
      <use
         xlink:href="#T"
         id="use342"
         x="0"
         y="0"
         width="100%"
         height="100%" />
      <use
         xlink:href="#T"
         id="use344"
         x="0"
         y="0"
         width="100%"
         height="100%" />
    </g>
    <path
       d="m 54.964,13.701 c 0.021,0.079 0.036,0.183 0.063,0.248 0.089,0.215 0.162,0.314 0.365,0.361 a 0.368,0.368 0 0 1 0.061,0.02 2.48,2.48 0 0 1 1.496,2.006 l -0.014,-0.062 c 0.155,0.523 0.577,0.928 1.063,1.357 a 0.368,0.368 0 0 1 0.076,0.096 c 0.405,0.724 0.869,1.417 1.334,2.107 L 59.34,18.863 c -0.542,-1.065 -0.861,-1.714 -1.43,-2.412 l 0.061,0.059 c -0.781,-0.605 -1.274,-1.406 -1.812,-2.078 -0.29,-0.338 -0.725,-0.541 -1.193,-0.73 z"
       class="D"
       id="path348" />
  </g>
</svg>
