<?xml version="1.0" encoding="UTF-8"?>
<!DOCTYPE svg PUBLIC "-//W3C//DTD SVG 1.1//EN" "http://www.w3.org/Graphics/SVG/1.1/DTD/svg11.dtd">
<svg xmlns="http://www.w3.org/2000/svg" version="1.1" width="200px" height="189px" style="shape-rendering:geometricPrecision; text-rendering:geometricPrecision; image-rendering:optimizeQuality; fill-rule:evenodd; clip-rule:evenodd" xmlns:xlink="http://www.w3.org/1999/xlink">
<g><path style="opacity:1" fill="#fcfcfc" d="M -0.5,-0.5 C 32.5,-0.5 65.5,-0.5 98.5,-0.5C 66.4892,23.4966 34.1559,47.1633 1.5,70.5C 1.16667,71.3333 0.833333,72.1667 0.5,73C 13.3508,111.384 25.6841,149.884 37.5,188.5C 24.8333,188.5 12.1667,188.5 -0.5,188.5C -0.5,125.5 -0.5,62.5 -0.5,-0.5 Z"/></g>
<g><path style="opacity:1" fill="#fcfcfc" d="M 101.5,-0.5 C 134.167,-0.5 166.833,-0.5 199.5,-0.5C 199.5,23.5 199.5,47.5 199.5,71.5C 166.529,47.8544 133.862,23.8544 101.5,-0.5 Z"/></g>
<g><path style="opacity:1" fill="#212020" d="M 98.5,-0.5 C 99.5,-0.5 100.5,-0.5 101.5,-0.5C 133.862,23.8544 166.529,47.8544 199.5,71.5C 199.5,72.1667 199.5,72.8333 199.5,73.5C 186.355,111.484 174.022,149.818 162.5,188.5C 120.833,188.5 79.1667,188.5 37.5,188.5C 25.6841,149.884 13.3508,111.384 0.5,73C 0.833333,72.1667 1.16667,71.3333 1.5,70.5C 34.1559,47.1633 66.4892,23.4966 98.5,-0.5 Z"/></g>
<g><path style="opacity:1" fill="#f5f7f6" d="M 186.5,101.5 C 185.815,99.5856 185.315,97.5856 185,95.5C 183.442,96.3452 182.442,95.6785 182,93.5C 179.175,95.1878 176.009,96.0211 172.5,96C 171.183,97.6591 169.517,98.8257 167.5,99.5C 167.377,101.378 167.377,103.211 167.5,105C 164.55,107.788 161.217,109.955 157.5,111.5C 155.407,115.599 155.407,119.599 157.5,123.5C 156.754,124.736 156.421,126.07 156.5,127.5C 152.909,127.33 149.576,126.997 146.5,126.5C 145.833,126.833 145.167,127.167 144.5,127.5C 143.402,129.632 142.402,131.798 141.5,134C 139.17,136.091 137.17,135.925 135.5,133.5C 137.17,130.694 136.837,128.194 134.5,126C 123.345,119.463 112.012,118.963 100.5,124.5C 92.1675,119.989 83.5008,119.322 74.5,122.5C 74.4677,120.433 73.4677,119.1 71.5,118.5C 67.5997,117.191 63.5997,116.524 59.5,116.5C 59.8417,115.662 60.5084,115.328 61.5,115.5C 64.1667,115.5 66.8333,115.5 69.5,115.5C 72.0351,116.349 74.5351,117.349 77,118.5C 80.7265,114.106 85.0598,110.439 90,107.5C 90.6397,105.735 90.4731,104.068 89.5,102.5C 89.0679,101.29 88.4013,100.29 87.5,99.5C 83.1798,90.5122 76.1798,84.8456 66.5,82.5C 60.4593,81.7998 55.126,80.6331 50.5,79C 51.5,78.1667 52.5,77.3333 53.5,76.5C 52.9747,75.8076 52.3081,75.3076 51.5,75C 52.3081,74.6924 52.9747,74.1924 53.5,73.5C 52.3906,71.6147 51.5573,69.6147 51,67.5C 49.9887,66.6634 48.8221,66.33 47.5,66.5C 46.7437,64.3867 46.5771,62.3867 47,60.5C 43.6538,58.5219 40.1538,58.1885 36.5,59.5C 35.5037,61.8163 33.8371,63.483 31.5,64.5C 32.325,65.3857 33.325,65.719 34.5,65.5C 34.5,66.8333 34.5,68.1667 34.5,69.5C 33.209,69.2627 32.209,69.596 31.5,70.5C 31.5,71.1667 31.5,71.8333 31.5,72.5C 29.8679,73.4457 28.2012,74.4457 26.5,75.5C 25.7952,77.6721 24.7952,79.6721 23.5,81.5C 24.6651,82.5836 25.9984,83.4169 27.5,84C 26.944,84.3826 26.6107,84.8826 26.5,85.5C 26.5,85.8333 26.5,86.1667 26.5,86.5C 23.1823,86.0341 19.849,84.7008 16.5,82.5C 15.5344,84.396 15.2011,86.396 15.5,88.5C 20.8333,88.8333 20.8333,89.1667 15.5,89.5C 15.9209,91.9099 17.2542,93.7432 19.5,95C 17.8333,95.3333 16.1667,95.6667 14.5,96C 15.8331,97.8402 15.6665,98.3402 14,97.5C 13.7216,98.4158 13.2216,99.0825 12.5,99.5C 9.44576,91.6947 6.61243,83.6947 4,75.5C 3.21948,74.0563 3.38615,72.723 4.5,71.5C 36.4466,48.8869 68.1133,25.8869 99.5,2.5C 131.807,25.6398 163.973,48.9732 196,72.5C 193.296,82.3137 190.13,91.9804 186.5,101.5 Z"/></g>
<g><path style="opacity:1" fill="#27567b" d="M 156.5,54.5 C 155.5,55.8333 154.5,57.1667 153.5,58.5C 153.07,57.045 153.07,55.7117 153.5,54.5C 151.836,56.4911 150.169,58.4911 148.5,60.5C 147.185,61.4756 145.852,62.4756 144.5,63.5C 143.702,63.0431 143.369,62.3764 143.5,61.5C 146.631,58.8712 149.631,56.0379 152.5,53C 154.066,52.7003 155.399,53.2003 156.5,54.5 Z"/></g>
<g><path style="opacity:1" fill="#345d76" d="M 138.5,59.5 C 137.833,59.1667 137.167,58.8333 136.5,58.5C 135.489,56.5976 135.322,54.5976 136,52.5C 138.333,49.5 140.667,46.5 143,43.5C 143.692,44.0253 144.192,44.6919 144.5,45.5C 142.5,48.8333 140.5,52.1667 138.5,55.5C 138.833,55.8333 139.167,56.1667 139.5,56.5C 141.942,53.7984 144.276,50.965 146.5,48C 147.635,47.2506 148.635,47.4173 149.5,48.5C 147.158,51.8394 144.825,55.1727 142.5,58.5C 141.264,59.2458 139.93,59.5792 138.5,59.5 Z"/></g>
<g><path style="opacity:1" fill="#d7eff4" d="M 156.5,54.5 C 155.399,53.2003 154.066,52.7003 152.5,53C 149.631,56.0379 146.631,58.8712 143.5,61.5C 141.833,60.8333 140.167,60.1667 138.5,59.5C 139.93,59.5792 141.264,59.2458 142.5,58.5C 144.825,55.1727 147.158,51.8394 149.5,48.5C 148.635,47.4173 147.635,47.2506 146.5,48C 144.276,50.965 141.942,53.7984 139.5,56.5C 139.167,56.1667 138.833,55.8333 138.5,55.5C 140.5,52.1667 142.5,48.8333 144.5,45.5C 144.192,44.6919 143.692,44.0253 143,43.5C 140.667,46.5 138.333,49.5 136,52.5C 135.322,54.5976 135.489,56.5976 136.5,58.5C 132.424,57.8562 128.59,56.5229 125,54.5C 123.787,51.2325 123.454,47.8992 124,44.5C 125.011,43.6634 126.178,43.33 127.5,43.5C 127.297,41.6096 127.963,40.1096 129.5,39C 132.426,38.7822 135.26,38.2822 138,37.5C 138.667,39.5 139.333,41.5 140,43.5C 140.483,42.552 140.649,41.552 140.5,40.5C 145.627,40.8168 150.293,42.3168 154.5,45C 150.175,48.5239 150.842,50.3573 156.5,50.5C 156.5,51.8333 156.5,53.1667 156.5,54.5 Z"/></g>
<g><path style="opacity:1" fill="#395f77" d="M 114.5,33.5 C 116.5,33.5 118.5,33.5 120.5,33.5C 121.063,38.8744 119.063,43.0411 114.5,46C 116.256,46.2022 117.922,46.7022 119.5,47.5C 116.379,49.0368 113.713,48.5368 111.5,46C 113.833,43 116.167,40 118.5,37C 118.167,36.5 117.833,36 117.5,35.5C 116.476,36.8532 115.143,37.5198 113.5,37.5C 113.433,36.0413 113.766,34.7079 114.5,33.5 Z"/></g>
<g><path style="opacity:1" fill="#306079" d="M 130.5,39.5 C 132.527,39.3379 134.527,39.5045 136.5,40C 137.38,41.3561 137.714,42.8561 137.5,44.5C 136.5,44.5 135.5,44.5 134.5,44.5C 134.531,40.7238 133.864,40.5571 132.5,44C 134.278,46.225 134.778,48.725 134,51.5C 132.116,53.5763 129.949,53.9097 127.5,52.5C 126.319,50.802 126.319,49.1353 127.5,47.5C 128.971,48.3805 129.804,49.7139 130,51.5C 130.87,50.8921 131.37,50.0588 131.5,49C 129.445,45.9704 129.112,42.8037 130.5,39.5 Z"/></g>
<g><path style="opacity:1" fill="#2b5d7c" d="M 104.5,46.5 C 103.5,46.5 102.5,46.5 101.5,46.5C 101.5,44.8333 101.5,43.1667 101.5,41.5C 101.5,38.1667 101.5,34.8333 101.5,31.5C 102.5,31.5 103.5,31.5 104.5,31.5C 104.5,36.5 104.5,41.5 104.5,46.5 Z"/></g>
<g><path style="opacity:1" fill="#316481" d="M 90.5,31.5 C 93.1194,31.2317 95.6194,31.565 98,32.5C 98.2005,35.3612 98.3672,38.0279 98.5,40.5C 99.1495,42.4352 99.4828,44.4352 99.5,46.5C 98.5,46.5 97.5,46.5 96.5,46.5C 96.9492,44.0225 96.2825,42.0225 94.5,40.5C 93.8333,42.5 93.1667,44.5 92.5,46.5C 91.8076,45.9747 91.3076,45.3081 91,44.5C 90.501,40.1794 90.3343,35.8461 90.5,31.5 Z"/></g>
<g><path style="opacity:1" fill="#b2e4f2" d="M 93.5,34.5 C 94.5862,34.62 95.2528,35.2867 95.5,36.5C 95.1667,37.1667 94.8333,37.8333 94.5,38.5C 93.5713,37.3112 93.238,35.9778 93.5,34.5 Z"/></g>
<g><path style="opacity:1" fill="#d1eaf0" d="M 86.5,38.5 C 83.1499,37.6216 82.8165,36.1216 85.5,34C 83.8876,33.2797 82.3876,33.4464 81,34.5C 81.1623,39.1685 81.6623,43.8352 82.5,48.5C 85.1569,48.838 87.4902,48.1713 89.5,46.5C 88.3112,45.5713 86.9778,45.238 85.5,45.5C 85.1568,43.5168 85.8235,42.1834 87.5,41.5C 87.8813,37.8812 88.8813,34.5479 90.5,31.5C 90.3343,35.8461 90.501,40.1794 91,44.5C 91.3076,45.3081 91.8076,45.9747 92.5,46.5C 93.1667,44.5 93.8333,42.5 94.5,40.5C 96.2825,42.0225 96.9492,44.0225 96.5,46.5C 97.5,46.5 98.5,46.5 99.5,46.5C 99.4828,44.4352 99.1495,42.4352 98.5,40.5C 99.391,41.1098 100.391,41.4431 101.5,41.5C 101.5,43.1667 101.5,44.8333 101.5,46.5C 102.5,46.5 103.5,46.5 104.5,46.5C 98.1831,47.8369 95.1831,51.8369 95.5,58.5C 94.5,58.5 93.5,58.5 92.5,58.5C 92.317,56.0637 92.9837,53.897 94.5,52C 93.3349,50.9164 92.0016,50.0831 90.5,49.5C 86.9543,51.6276 83.2876,51.9609 79.5,50.5C 80.4081,48.5479 80.2414,46.5479 79,44.5C 77.8173,43.269 76.6507,43.269 75.5,44.5C 76.1667,45.8333 76.8333,47.1667 77.5,48.5C 76.9984,49.521 76.3317,49.6877 75.5,49C 73.9725,46.0833 72.6392,43.0833 71.5,40C 73.1075,40.0187 74.7741,40.1854 76.5,40.5C 75.9245,36.5265 73.7579,35.5265 70,37.5C 69.1771,41.7384 69.8438,45.7384 72,49.5C 73.4443,51.1554 75.2776,51.822 77.5,51.5C 75.8185,53.0075 73.8185,54.0075 71.5,54.5C 71.5299,53.5028 71.0299,52.8361 70,52.5C 68.85,53.4239 67.85,53.4239 67,52.5C 66.8195,50.5116 66.9862,48.5116 67.5,46.5C 66.1667,46.5 64.8333,46.5 63.5,46.5C 63.2865,44.8561 63.6198,43.3561 64.5,42C 62.3047,41.2883 60.6381,41.9549 59.5,44C 61.7502,48.0726 63.7502,52.2392 65.5,56.5C 64.8333,56.8333 64.1667,57.1667 63.5,57.5C 60.4534,54.4552 57.7867,51.1219 55.5,47.5C 57.3115,45.6146 58.4782,43.2813 59,40.5C 59.3333,40.8333 59.6667,41.1667 60,41.5C 60.4828,40.552 60.6495,39.552 60.5,38.5C 62.6607,38.8258 64.4941,39.8258 66,41.5C 66.4652,40.0692 67.2986,38.9025 68.5,38C 66.4311,37.6758 66.0977,36.8425 67.5,35.5C 69.1459,34.3401 70.9792,33.6734 73,33.5C 75.1695,34.5225 77.3362,35.5225 79.5,36.5C 79.5,34.8333 79.5,33.1667 79.5,31.5C 85.5,30.1667 87.8333,32.5 86.5,38.5 Z"/></g>
<g><path style="opacity:1" fill="#366380" d="M 71.5,54.5 C 69.5,55.1667 67.5,55.8333 65.5,56.5C 63.7502,52.2392 61.7502,48.0726 59.5,44C 60.6381,41.9549 62.3047,41.2883 64.5,42C 63.6198,43.3561 63.2865,44.8561 63.5,46.5C 64.8333,46.5 66.1667,46.5 67.5,46.5C 66.9862,48.5116 66.8195,50.5116 67,52.5C 67.85,53.4239 68.85,53.4239 70,52.5C 71.0299,52.8361 71.5299,53.5028 71.5,54.5 Z"/></g>
<g><path style="opacity:1" fill="#2e5d73" d="M 79.5,50.5 C 78.8333,50.8333 78.1667,51.1667 77.5,51.5C 75.2776,51.822 73.4443,51.1554 72,49.5C 69.8438,45.7384 69.1771,41.7384 70,37.5C 73.7579,35.5265 75.9245,36.5265 76.5,40.5C 74.7741,40.1854 73.1075,40.0187 71.5,40C 72.6392,43.0833 73.9725,46.0833 75.5,49C 76.3317,49.6877 76.9984,49.521 77.5,48.5C 76.8333,47.1667 76.1667,45.8333 75.5,44.5C 76.6507,43.269 77.8173,43.269 79,44.5C 80.2414,46.5479 80.4081,48.5479 79.5,50.5 Z"/></g>
<g><path style="opacity:1" fill="#3a6682" d="M 86.5,38.5 C 87.404,39.209 87.7373,40.209 87.5,41.5C 85.8235,42.1834 85.1568,43.5168 85.5,45.5C 86.9778,45.238 88.3112,45.5713 89.5,46.5C 87.4902,48.1713 85.1569,48.838 82.5,48.5C 81.6623,43.8352 81.1623,39.1685 81,34.5C 82.3876,33.4464 83.8876,33.2797 85.5,34C 82.8165,36.1216 83.1499,37.6216 86.5,38.5 Z"/></g>
<g><path style="opacity:1" fill="#30617e" d="M 55.5,47.5 C 57.7867,51.1219 60.4534,54.4552 63.5,57.5C 63.5824,59.2517 62.7491,60.2517 61,60.5C 52.7343,53.6009 51.9009,54.2676 58.5,62.5C 58.1667,62.8333 57.8333,63.1667 57.5,63.5C 54.1114,60.3999 50.9447,57.0666 48,53.5C 47.3877,51.7627 48.0543,50.7627 50,50.5C 52.8792,51.3758 55.2125,53.0424 57,55.5C 57.6667,54.8333 57.6667,54.1667 57,53.5C 55.3149,51.9825 53.8149,50.3159 52.5,48.5C 53.325,47.6143 54.325,47.281 55.5,47.5 Z"/></g>
<g><path style="opacity:1" fill="#4c7f9e" d="M 153.5,58.5 C 152.537,59.3635 152.537,60.0302 153.5,60.5C 154.622,59.3698 155.956,58.7031 157.5,58.5C 158.303,59.4232 158.47,60.4232 158,61.5C 155.931,63.0854 153.764,64.4187 151.5,65.5C 149.956,65.7031 148.622,66.3698 147.5,67.5C 146.914,67.2907 146.414,66.9574 146,66.5C 146.483,64.4634 147.316,62.4634 148.5,60.5C 150.169,58.4911 151.836,56.4911 153.5,54.5C 153.07,55.7117 153.07,57.045 153.5,58.5 Z"/></g>
<g><path style="opacity:1" fill="#5d2622" d="M 103.5,57.5 C 99.3029,57.1937 97.3029,59.1937 97.5,63.5C 95.8333,63.5 94.1667,63.5 92.5,63.5C 91.5,63.5 90.5,63.5 89.5,63.5C 90.3739,66.7893 91.0405,70.1226 91.5,73.5C 89.5,73.5 87.5,73.5 85.5,73.5C 85.2322,75.099 85.5655,76.4324 86.5,77.5C 86.3284,78.4916 86.6618,79.1583 87.5,79.5C 87.1667,82.5 88.5,83.8333 91.5,83.5C 91.1898,85.1436 90.1898,86.1436 88.5,86.5C 85.9797,81.6147 83.6463,76.6147 81.5,71.5C 83.8275,70.276 86.1608,70.276 88.5,71.5C 88.8891,67.4678 87.8891,63.6345 85.5,60C 89.1359,60.3195 92.8026,60.8195 96.5,61.5C 97.1151,57.153 98.6151,53.153 101,49.5C 102.731,51.8618 103.565,54.5285 103.5,57.5 Z"/></g>
<g><path style="opacity:1" fill="#29566d" d="M 151.5,65.5 C 153.764,64.4187 155.931,63.0854 158,61.5C 158.47,60.4232 158.303,59.4232 157.5,58.5C 158.077,57.2267 158.743,57.2267 159.5,58.5C 160.326,59.451 160.492,60.451 160,61.5C 156.985,64.6828 153.818,67.6828 150.5,70.5C 149.799,68.8084 150.133,67.1417 151.5,65.5 Z"/></g>
<g><path style="opacity:1" fill="#d22620" d="M 103.5,57.5 C 102.839,62.1679 104.839,64.1679 109.5,63.5C 107.908,69.7613 103.908,73.0946 97.5,73.5C 97.3671,70.1043 96.3671,69.7709 94.5,72.5C 93.5109,69.5623 92.8442,66.5623 92.5,63.5C 94.1667,63.5 95.8333,63.5 97.5,63.5C 97.3029,59.1937 99.3029,57.1937 103.5,57.5 Z"/></g>
<g><path style="opacity:1" fill="#b02f2a" d="M 109.5,63.5 C 110.649,63.7911 111.316,64.6244 111.5,66C 111.135,68.2605 110.469,70.4272 109.5,72.5C 111.5,73.1667 113.5,73.8333 115.5,74.5C 114.833,76.5 114.167,78.5 113.5,80.5C 113,80.8333 112.5,81.1667 112,81.5C 110.989,80.9444 110.156,80.2778 109.5,79.5C 108.869,77.5522 107.869,75.7189 106.5,74C 103.716,74.9189 100.716,75.4189 97.5,75.5C 97.5,74.8333 97.5,74.1667 97.5,73.5C 103.908,73.0946 107.908,69.7613 109.5,63.5 Z"/></g>
<g><path style="opacity:1" fill="#31657a" d="M 166.5,66.5 C 167.605,68.7131 167.605,70.8797 166.5,73C 163.503,73.7748 161.17,75.4414 159.5,78C 157.16,78.7484 155.16,78.2484 153.5,76.5C 153.489,74.9826 152.823,73.8159 151.5,73C 155.167,70.6667 158.833,68.3333 162.5,66C 163.928,65.4209 165.262,65.5876 166.5,66.5 Z"/></g>
<g><path style="opacity:1" fill="#a7e9f6" d="M 158.5,71.5 C 159.705,73.4101 159.038,74.7434 156.5,75.5C 156.167,75.1667 155.833,74.8333 155.5,74.5C 156.34,73.265 157.34,72.265 158.5,71.5 Z"/></g>
<g><path style="opacity:1" fill="#a12f2c" d="M 92.5,63.5 C 92.8442,66.5623 93.5109,69.5623 94.5,72.5C 96.3671,69.7709 97.3671,70.1043 97.5,73.5C 94.7079,74.3918 93.3746,76.3918 93.5,79.5C 92.6554,80.6715 91.9887,82.0048 91.5,83.5C 88.5,83.8333 87.1667,82.5 87.5,79.5C 88.4674,80.8062 89.8007,81.4729 91.5,81.5C 91.6621,79.4727 91.4955,77.4727 91,75.5C 89.6439,74.6198 88.1439,74.2865 86.5,74.5C 86.5,75.5 86.5,76.5 86.5,77.5C 85.5655,76.4324 85.2322,75.099 85.5,73.5C 87.5,73.5 89.5,73.5 91.5,73.5C 91.0405,70.1226 90.3739,66.7893 89.5,63.5C 90.5,63.5 91.5,63.5 92.5,63.5 Z"/></g>
<g><path style="opacity:1" fill="#742825" d="M 103.5,57.5 C 104.421,58.981 105.588,60.3144 107,61.5C 109.524,60.8957 112.024,60.229 114.5,59.5C 114.833,59.8333 115.167,60.1667 115.5,60.5C 113.792,64.4457 112.625,68.4457 112,72.5C 114.579,70.6533 117.412,70.1533 120.5,71C 118.624,76.17 116.291,81.0033 113.5,85.5C 112.391,85.4431 111.391,85.1098 110.5,84.5C 109.962,82.8828 109.629,81.2161 109.5,79.5C 110.156,80.2778 110.989,80.9444 112,81.5C 112.5,81.1667 113,80.8333 113.5,80.5C 114.167,78.5 114.833,76.5 115.5,74.5C 113.5,73.8333 111.5,73.1667 109.5,72.5C 110.469,70.4272 111.135,68.2605 111.5,66C 111.316,64.6244 110.649,63.7911 109.5,63.5C 104.839,64.1679 102.839,62.1679 103.5,57.5 Z"/></g>
<g><path style="opacity:1" fill="#401c2d" d="M 109.5,79.5 C 109.629,81.2161 109.962,82.8828 110.5,84.5C 109.542,84.0472 108.708,83.3805 108,82.5C 107.358,80.2381 106.525,78.0715 105.5,76C 103.632,75.9962 101.798,76.4962 100,77.5C 98.699,77.3613 97.8656,76.6946 97.5,75.5C 100.716,75.4189 103.716,74.9189 106.5,74C 107.869,75.7189 108.869,77.5522 109.5,79.5 Z"/></g>
<g><path style="opacity:1" fill="#31181b" d="M 97.5,73.5 C 97.5,74.1667 97.5,74.8333 97.5,75.5C 95.7263,76.3696 94.393,77.703 93.5,79.5C 93.3746,76.3918 94.7079,74.3918 97.5,73.5 Z"/></g>
<g><path style="opacity:1" fill="#e4eff1" d="M 66.5,82.5 C 60.0044,81.5522 54.671,83.5522 50.5,88.5C 52.7427,89.4742 55.076,89.8076 57.5,89.5C 58.209,90.404 59.209,90.7373 60.5,90.5C 61.7562,90.4614 62.7562,90.9614 63.5,92C 56.2481,94.2623 50.4148,98.429 46,104.5C 45.2506,105.635 45.4173,106.635 46.5,107.5C 49.4053,106.187 52.4053,105.687 55.5,106C 53.6859,108.479 52.0192,110.979 50.5,113.5C 49.6851,112.163 48.5185,111.163 47,110.5C 44.9592,111.423 42.7925,111.756 40.5,111.5C 41.031,108.763 41.8644,106.096 43,103.5C 43.3333,104.167 43.6667,104.833 44,105.5C 44.7203,103.888 44.5536,102.388 43.5,101C 44.6184,99.9264 45.6184,98.7598 46.5,97.5C 48.2141,98.6085 48.8808,97.9418 48.5,95.5C 47.0222,95.762 45.6888,95.4287 44.5,94.5C 45.7348,91.9557 46.9015,91.9557 48,94.5C 51.1292,93.8702 54.2959,93.2036 57.5,92.5C 57.3333,92.1667 57.1667,91.8333 57,91.5C 54.595,90.7256 52.095,90.2256 49.5,90C 47.5188,89.3946 47.1854,88.3946 48.5,87C 47.2161,86.3162 46.0495,86.4829 45,87.5C 44.6667,86.8333 44.3333,86.1667 44,85.5C 43.7216,86.4158 43.2216,87.0825 42.5,87.5C 42.5,86.5 42.5,85.5 42.5,84.5C 39.3093,83.9078 36.3093,82.7411 33.5,81C 37.2409,81.2978 40.9076,82.1311 44.5,83.5C 44.67,82.1779 44.3366,81.0113 43.5,80C 40.5674,78.7291 37.9007,77.0624 35.5,75C 38.7199,75.6786 41.8866,76.8453 45,78.5C 46.6075,78.0261 46.7742,77.3594 45.5,76.5C 40.845,74.288 36.1784,72.288 31.5,70.5C 32.209,69.596 33.209,69.2627 34.5,69.5C 34.5,68.1667 34.5,66.8333 34.5,65.5C 33.325,65.719 32.325,65.3857 31.5,64.5C 33.8371,63.483 35.5037,61.8163 36.5,59.5C 40.1538,58.1885 43.6538,58.5219 47,60.5C 46.5771,62.3867 46.7437,64.3867 47.5,66.5C 48.8221,66.33 49.9887,66.6634 51,67.5C 51.5573,69.6147 52.3906,71.6147 53.5,73.5C 52.9747,74.1924 52.3081,74.6924 51.5,75C 52.3081,75.3076 52.9747,75.8076 53.5,76.5C 52.5,77.3333 51.5,78.1667 50.5,79C 55.126,80.6331 60.4593,81.7998 66.5,82.5 Z"/></g>
<g><path style="opacity:1" fill="#345f79" d="M 39.5,61.5 C 44.7678,61.5865 46.7678,64.0865 45.5,69C 46.9958,70.3307 48.3291,71.8307 49.5,73.5C 49.1924,74.3081 48.6924,74.9747 48,75.5C 44.31,72.3092 40.4767,69.3092 36.5,66.5C 37.2599,64.6396 38.2599,62.973 39.5,61.5 Z"/></g>
<g><path style="opacity:1" fill="#a5e4f8" d="M 39.5,65.5 C 41.0927,64.1328 42.4261,64.4661 43.5,66.5C 43.1667,66.8333 42.8333,67.1667 42.5,67.5C 41.4822,66.8075 40.4822,66.1408 39.5,65.5 Z"/></g>
<g><path style="opacity:1" fill="#345f78" d="M 172.5,76.5 C 172.421,77.9305 172.754,79.2638 173.5,80.5C 173,80.8333 172.5,81.1667 172,81.5C 168.329,78.655 166.496,79.3217 166.5,83.5C 164.326,80.9397 162.326,81.1064 160.5,84C 162.007,85.6674 161.673,86.834 159.5,87.5C 159.34,85.847 158.674,84.5137 157.5,83.5C 157.36,81.8762 158.027,80.7096 159.5,80C 163.058,78.6377 166.558,77.1377 170,75.5C 170.902,75.7432 171.735,76.0766 172.5,76.5 Z"/></g>
<g><path style="opacity:1" fill="#c92a28" d="M 87.5,79.5 C 86.6618,79.1583 86.3284,78.4916 86.5,77.5C 86.5,76.5 86.5,75.5 86.5,74.5C 88.1439,74.2865 89.6439,74.6198 91,75.5C 91.4955,77.4727 91.6621,79.4727 91.5,81.5C 89.8007,81.4729 88.4674,80.8062 87.5,79.5 Z"/></g>
<g><path style="opacity:1" fill="#1d578a" d="M 97.5,75.5 C 97.8656,76.6946 98.699,77.3613 100,77.5C 101.798,76.4962 103.632,75.9962 105.5,76C 106.525,78.0715 107.358,80.2381 108,82.5C 108.708,83.3805 109.542,84.0472 110.5,84.5C 110.33,85.8221 110.663,86.9887 111.5,88C 110.139,89.5843 109.472,91.4176 109.5,93.5C 109.672,94.4916 109.338,95.1583 108.5,95.5C 108.737,96.791 108.404,97.791 107.5,98.5C 104.837,102.493 102.67,106.827 101,111.5C 98.2471,106.393 95.9138,101.06 94,95.5C 93.31,94.2617 92.81,94.2617 92.5,95.5C 91.6618,95.1583 91.3284,94.4916 91.5,93.5C 91.4549,88.9861 92.1215,84.3194 93.5,79.5C 94.393,77.703 95.7263,76.3696 97.5,75.5 Z"/></g>
<g><path style="opacity:1" fill="#cbebf4" d="M 166.5,66.5 C 168.97,69.4205 170.97,72.7538 172.5,76.5C 171.735,76.0766 170.902,75.7432 170,75.5C 166.558,77.1377 163.058,78.6377 159.5,80C 158.027,80.7096 157.36,81.8762 157.5,83.5C 156.416,81.1849 154.749,79.3516 152.5,78C 153.056,77.6174 153.389,77.1174 153.5,76.5C 155.16,78.2484 157.16,78.7484 159.5,78C 161.17,75.4414 163.503,73.7748 166.5,73C 167.605,70.8797 167.605,68.7131 166.5,66.5 Z"/></g>
<g><path style="opacity:1" fill="#376480" d="M 31.5,70.5 C 36.1784,72.288 40.845,74.288 45.5,76.5C 46.7742,77.3594 46.6075,78.0261 45,78.5C 41.8866,76.8453 38.7199,75.6786 35.5,75C 37.9007,77.0624 40.5674,78.7291 43.5,80C 44.3366,81.0113 44.67,82.1779 44.5,83.5C 40.9076,82.1311 37.2409,81.2978 33.5,81C 36.3093,82.7411 39.3093,83.9078 42.5,84.5C 42.5,85.5 42.5,86.5 42.5,87.5C 38.1881,85.6791 33.8547,83.8458 29.5,82C 28.6198,80.6439 28.2865,79.1439 28.5,77.5C 31.8349,78.3388 35.1682,78.8388 38.5,79C 35.2136,77.7183 32.8803,75.5517 31.5,72.5C 31.5,71.8333 31.5,71.1667 31.5,70.5 Z"/></g>
<g><path style="opacity:1" fill="#2c213b" d="M 93.5,79.5 C 92.1215,84.3194 91.4549,88.9861 91.5,93.5C 90.3052,91.2487 89.3052,88.9154 88.5,86.5C 90.1898,86.1436 91.1898,85.1436 91.5,83.5C 91.9887,82.0048 92.6554,80.6715 93.5,79.5 Z"/></g>
<g><path style="opacity:1" fill="#24212c" d="M 110.5,84.5 C 111.391,85.1098 112.391,85.4431 113.5,85.5C 112.674,88.4848 111.341,91.1515 109.5,93.5C 109.472,91.4176 110.139,89.5843 111.5,88C 110.663,86.9887 110.33,85.8221 110.5,84.5 Z"/></g>
<g><path style="opacity:1" fill="#34607c" d="M 175.5,86.5 C 176.819,88.4684 176.819,90.4684 175.5,92.5C 172.564,93.0917 169.897,94.0917 167.5,95.5C 165.565,96.1495 163.565,96.4828 161.5,96.5C 161.5,95.5 161.5,94.5 161.5,93.5C 163.696,93.4348 165.696,92.7681 167.5,91.5C 165.229,90.6365 162.895,90.6365 160.5,91.5C 160.5,90.5 160.5,89.5 160.5,88.5C 164.75,87.9651 168.917,86.9651 173,85.5C 173.902,85.7432 174.735,86.0766 175.5,86.5 Z"/></g>
<g><path style="opacity:1" fill="#7abbdf" d="M 169.5,88.5 C 170.978,88.238 172.311,88.5713 173.5,89.5C 172.68,91.1112 171.346,91.7778 169.5,91.5C 169.5,90.5 169.5,89.5 169.5,88.5 Z"/></g>
<g><path style="opacity:1" fill="#185b95" d="M 87.5,99.5 C 88.4013,100.29 89.0679,101.29 89.5,102.5C 89.2013,106.132 87.2013,108.132 83.5,108.5C 80.6277,103.06 76.6277,98.7263 71.5,95.5C 68.6964,91.2446 65.0297,89.5779 60.5,90.5C 59.209,90.7373 58.209,90.404 57.5,89.5C 58.2389,89.631 58.9056,89.4643 59.5,89C 58.6634,87.9887 58.33,86.8221 58.5,85.5C 66.2151,83.1272 72.8818,84.7939 78.5,90.5C 79.4519,92.0453 79.7852,93.712 79.5,95.5C 82.8628,95.5127 85.0295,97.1794 86,100.5C 86.3826,99.944 86.8826,99.6107 87.5,99.5 Z"/></g>
<g><path style="opacity:1" fill="#f8f8f8" d="M 31.5,72.5 C 32.8803,75.5517 35.2136,77.7183 38.5,79C 35.1682,78.8388 31.8349,78.3388 28.5,77.5C 28.2865,79.1439 28.6198,80.6439 29.5,82C 33.8547,83.8458 38.1881,85.6791 42.5,87.5C 43.2216,87.0825 43.7216,86.4158 44,85.5C 44.3333,86.1667 44.6667,86.8333 45,87.5C 46.0495,86.4829 47.2161,86.3162 48.5,87C 47.1854,88.3946 47.5188,89.3946 49.5,90C 52.095,90.2256 54.595,90.7256 57,91.5C 57.1667,91.8333 57.3333,92.1667 57.5,92.5C 54.2959,93.2036 51.1292,93.8702 48,94.5C 46.9015,91.9557 45.7348,91.9557 44.5,94.5C 45.6888,95.4287 47.0222,95.762 48.5,95.5C 48.8808,97.9418 48.2141,98.6085 46.5,97.5C 45.6184,98.7598 44.6184,99.9264 43.5,101C 44.5536,102.388 44.7203,103.888 44,105.5C 43.6667,104.833 43.3333,104.167 43,103.5C 41.8644,106.096 41.031,108.763 40.5,111.5C 42.7925,111.756 44.9592,111.423 47,110.5C 48.5185,111.163 49.6851,112.163 50.5,113.5C 49.9155,116.003 49.2489,118.503 48.5,121C 48.8333,121.5 49.1667,122 49.5,122.5C 52.5575,119.974 55.8908,117.974 59.5,116.5C 63.5997,116.524 67.5997,117.191 71.5,118.5C 73.4677,119.1 74.4677,120.433 74.5,122.5C 73.2905,122.932 72.2905,123.599 71.5,124.5C 69.4068,125.045 67.4068,125.878 65.5,127C 64.2089,128.292 64.2089,129.458 65.5,130.5C 67.9428,138.052 71.4428,145.052 76,151.5C 84.1143,146.193 92.281,146.193 100.5,151.5C 108.833,147.5 117.167,147.5 125.5,151.5C 128.244,148.678 129.911,145.344 130.5,141.5C 131.674,140.486 132.34,139.153 132.5,137.5C 133.5,136.167 134.5,134.833 135.5,133.5C 137.17,135.925 139.17,136.091 141.5,134C 142.402,131.798 143.402,129.632 144.5,127.5C 145.167,127.167 145.833,126.833 146.5,126.5C 149.576,126.997 152.909,127.33 156.5,127.5C 156.421,126.07 156.754,124.736 157.5,123.5C 155.407,119.599 155.407,115.599 157.5,111.5C 161.217,109.955 164.55,107.788 167.5,105C 167.377,103.211 167.377,101.378 167.5,99.5C 169.517,98.8257 171.183,97.6591 172.5,96C 176.009,96.0211 179.175,95.1878 182,93.5C 182.442,95.6785 183.442,96.3452 185,95.5C 185.315,97.5856 185.815,99.5856 186.5,101.5C 178.658,129.856 169.658,157.856 159.5,185.5C 119.506,186.5 79.5056,186.833 39.5,186.5C 39.6602,184.801 39.4935,183.134 39,181.5C 29.8791,154.259 21.0458,126.925 12.5,99.5C 13.2216,99.0825 13.7216,98.4158 14,97.5C 15.6665,98.3402 15.8331,97.8402 14.5,96C 16.1667,95.6667 17.8333,95.3333 19.5,95C 17.2542,93.7432 15.9209,91.9099 15.5,89.5C 20.8333,89.1667 20.8333,88.8333 15.5,88.5C 15.2011,86.396 15.5344,84.396 16.5,82.5C 19.849,84.7008 23.1823,86.0341 26.5,86.5C 25.232,88.6702 25.232,90.8368 26.5,93C 31.1458,91.9577 33.8125,91.7911 34.5,92.5C 34.5,93.8333 34.5,95.1667 34.5,96.5C 39.6589,96.8637 41.4922,94.5304 40,89.5C 38.5589,88.7402 37.0589,88.0736 35.5,87.5C 33.4771,88.5401 31.4771,89.5401 29.5,90.5C 28.8333,90.1667 28.1667,89.8333 27.5,89.5C 28.325,88.6143 29.325,88.281 30.5,88.5C 30.5,87.5 30.5,86.5 30.5,85.5C 29.1667,85.5 27.8333,85.5 26.5,85.5C 26.6107,84.8826 26.944,84.3826 27.5,84C 25.9984,83.4169 24.6651,82.5836 23.5,81.5C 24.7952,79.6721 25.7952,77.6721 26.5,75.5C 28.2012,74.4457 29.8679,73.4457 31.5,72.5 Z"/></g>
<g><path style="opacity:1" fill="#3d6981" d="M 26.5,85.5 C 27.8333,85.5 29.1667,85.5 30.5,85.5C 30.5,86.5 30.5,87.5 30.5,88.5C 29.325,88.281 28.325,88.6143 27.5,89.5C 28.1667,89.8333 28.8333,90.1667 29.5,90.5C 31.4771,89.5401 33.4771,88.5401 35.5,87.5C 37.0589,88.0736 38.5589,88.7402 40,89.5C 41.4922,94.5304 39.6589,96.8637 34.5,96.5C 34.5,95.1667 34.5,93.8333 34.5,92.5C 33.8125,91.7911 31.1458,91.9577 26.5,93C 25.232,90.8368 25.232,88.6702 26.5,86.5C 26.5,86.1667 26.5,85.8333 26.5,85.5 Z"/></g>
<g><path style="opacity:1" fill="#1b3d5a" d="M 66.5,82.5 C 76.1798,84.8456 83.1798,90.5122 87.5,99.5C 86.8826,99.6107 86.3826,99.944 86,100.5C 85.0295,97.1794 82.8628,95.5127 79.5,95.5C 79.7852,93.712 79.4519,92.0453 78.5,90.5C 72.8818,84.7939 66.2151,83.1272 58.5,85.5C 58.33,86.8221 58.6634,87.9887 59.5,89C 58.9056,89.4643 58.2389,89.631 57.5,89.5C 55.076,89.8076 52.7427,89.4742 50.5,88.5C 54.671,83.5522 60.0044,81.5522 66.5,82.5 Z"/></g>
<g><path style="opacity:1" fill="#1b3753" d="M 134.5,82.5 C 141.164,81.1729 146.498,83.1729 150.5,88.5C 146.047,89.2542 141.714,90.4208 137.5,92C 140.445,92.139 142.779,93.3057 144.5,95.5C 140.111,94.3692 135.778,94.0358 131.5,94.5C 134.57,90.9646 138.57,88.9646 143.5,88.5C 143.5,87.1667 143.5,85.8333 143.5,84.5C 140.273,84.3239 137.273,83.6572 134.5,82.5 Z"/></g>
<g><path style="opacity:1" fill="#fbfbfb" d="M 199.5,73.5 C 199.5,111.833 199.5,150.167 199.5,188.5C 187.167,188.5 174.833,188.5 162.5,188.5C 174.022,149.818 186.355,111.484 199.5,73.5 Z"/></g>
<g><path style="opacity:1" fill="#d4edf3" d="M 172.5,76.5 C 173.79,77.0577 174.623,78.0577 175,79.5C 175.497,81.8098 175.663,84.1432 175.5,86.5C 174.735,86.0766 173.902,85.7432 173,85.5C 168.917,86.9651 164.75,87.9651 160.5,88.5C 160.5,89.5 160.5,90.5 160.5,91.5C 162.895,90.6365 165.229,90.6365 167.5,91.5C 165.696,92.7681 163.696,93.4348 161.5,93.5C 161.5,94.5 161.5,95.5 161.5,96.5C 163.565,96.4828 165.565,96.1495 167.5,95.5C 165.941,96.829 164.275,98.1624 162.5,99.5C 161.5,99 160.5,98.5 159.5,98C 159.342,94.7121 159.342,91.2121 159.5,87.5C 161.673,86.834 162.007,85.6674 160.5,84C 162.326,81.1064 164.326,80.9397 166.5,83.5C 166.496,79.3217 168.329,78.655 172,81.5C 172.5,81.1667 173,80.8333 173.5,80.5C 172.754,79.2638 172.421,77.9305 172.5,76.5 Z"/></g>
<g><path style="opacity:1" fill="#0a5da4" d="M 108.5,95.5 C 105.774,97.419 103.941,100.086 103,103.5C 102.147,105.125 101.147,105.458 100,104.5C 99.1737,98.6649 97.007,93.4983 93.5,89C 94.8718,85.9739 95.5385,82.8073 95.5,79.5C 98.1873,79.3359 100.854,79.5026 103.5,80C 100.802,84.7727 99.8024,89.9394 100.5,95.5C 101.675,95.719 102.675,95.3857 103.5,94.5C 106.853,79.8267 108.52,80.16 108.5,95.5 Z"/></g>
<g><path style="opacity:1" fill="#185991" d="M 131.5,83.5 C 132.209,82.596 133.209,82.2627 134.5,82.5C 137.273,83.6572 140.273,84.3239 143.5,84.5C 143.5,85.8333 143.5,87.1667 143.5,88.5C 138.57,88.9646 134.57,90.9646 131.5,94.5C 129.502,96.8331 128.168,99.4998 127.5,102.5C 134.508,102.666 141.508,102.5 148.5,102C 147.663,100.989 147.33,99.8221 147.5,98.5C 149.63,100.127 151.63,101.96 153.5,104C 141.291,101.439 130.291,103.939 120.5,111.5C 119.614,110.675 119.281,109.675 119.5,108.5C 116.537,108.849 114.204,107.849 112.5,105.5C 116.637,95.5301 123.637,88.3634 133.5,84C 132.906,83.5357 132.239,83.369 131.5,83.5 Z"/></g>
<g><path style="opacity:1" fill="#0f5e9c" d="M 144.5,95.5 C 145.167,96.8333 146.167,97.8333 147.5,98.5C 147.33,99.8221 147.663,100.989 148.5,102C 141.508,102.5 134.508,102.666 127.5,102.5C 128.168,99.4998 129.502,96.8331 131.5,94.5C 135.778,94.0358 140.111,94.3692 144.5,95.5 Z"/></g>
<g><path style="opacity:1" fill="#155b98" d="M 71.5,95.5 C 73.0941,98.7642 75.4275,101.431 78.5,103.5C 79.641,105.421 79.8077,107.421 79,109.5C 70.5751,104.27 61.4084,102.27 51.5,103.5C 52.5484,99.2808 55.2151,96.4475 59.5,95C 63.695,93.3439 67.695,93.5106 71.5,95.5 Z"/></g>
<g><path style="opacity:1" fill="#19334f" d="M 131.5,83.5 C 132.239,83.369 132.906,83.5357 133.5,84C 123.637,88.3634 116.637,95.5301 112.5,105.5C 114.204,107.849 116.537,108.849 119.5,108.5C 119.281,109.675 119.614,110.675 120.5,111.5C 130.291,103.939 141.291,101.439 153.5,104C 151.63,101.96 149.63,100.127 147.5,98.5C 146.167,97.8333 145.167,96.8333 144.5,95.5C 149.736,97.7323 153.736,101.399 156.5,106.5C 156,106.833 155.5,107.167 155,107.5C 151.746,105.817 148.579,105.15 145.5,105.5C 150.141,110.259 152.307,115.926 152,122.5C 145.067,115.733 136.9,113.733 127.5,116.5C 127.062,116.565 126.728,116.399 126.5,116C 129.469,113.991 132.802,113.158 136.5,113.5C 140.499,113.022 143.999,114.022 147,116.5C 147.75,115.874 148.584,115.374 149.5,115C 147.298,106.468 141.964,103.468 133.5,106C 129.581,107.54 126.081,109.707 123,112.5C 122.837,114.387 123.671,115.887 125.5,117C 124.906,117.464 124.239,117.631 123.5,117.5C 120.92,113.911 117.586,111.078 113.5,109C 112.196,108.196 111.529,107.029 111.5,105.5C 115.057,95.2788 121.724,87.9455 131.5,83.5 Z"/></g>
<g><path style="opacity:1" fill="#233649" d="M 60.5,90.5 C 65.0297,89.5779 68.6964,91.2446 71.5,95.5C 67.695,93.5106 63.695,93.3439 59.5,95C 55.2151,96.4475 52.5484,99.2808 51.5,103.5C 53.8439,103.94 55.8439,104.94 57.5,106.5C 53.752,109.66 51.9187,113.66 52,118.5C 54.857,115.709 58.0237,114.709 61.5,115.5C 60.5084,115.328 59.8417,115.662 59.5,116.5C 55.8908,117.974 52.5575,119.974 49.5,122.5C 49.1667,122 48.8333,121.5 48.5,121C 49.2489,118.503 49.9155,116.003 50.5,113.5C 52.0192,110.979 53.6859,108.479 55.5,106C 52.4053,105.687 49.4053,106.187 46.5,107.5C 45.4173,106.635 45.2506,105.635 46,104.5C 50.4148,98.429 56.2481,94.2623 63.5,92C 62.7562,90.9614 61.7562,90.4614 60.5,90.5 Z"/></g>
<g><path style="opacity:1" fill="#182d46" d="M 107.5,98.5 C 105.832,103.998 103.665,109.331 101,114.5C 97.6203,108.408 94.7869,102.074 92.5,95.5C 92.81,94.2617 93.31,94.2617 94,95.5C 95.9138,101.06 98.2471,106.393 101,111.5C 102.67,106.827 104.837,102.493 107.5,98.5 Z"/></g>
<g><path style="opacity:1" fill="#0c3a65" d="M 71.5,95.5 C 76.6277,98.7263 80.6277,103.06 83.5,108.5C 83.3059,110.912 81.9726,111.912 79.5,111.5C 74.5898,108.597 69.2565,106.597 63.5,105.5C 62.1667,106.833 60.8333,106.833 59.5,105.5C 58.8333,105.833 58.1667,106.167 57.5,106.5C 55.8439,104.94 53.8439,103.94 51.5,103.5C 61.4084,102.27 70.5751,104.27 79,109.5C 79.8077,107.421 79.641,105.421 78.5,103.5C 75.4275,101.431 73.0941,98.7642 71.5,95.5 Z"/></g>
<g><path style="opacity:1" fill="#233748" d="M 89.5,102.5 C 90.4731,104.068 90.6397,105.735 90,107.5C 85.0598,110.439 80.7265,114.106 77,118.5C 74.5351,117.349 72.0351,116.349 69.5,115.5C 72.3138,115.053 75.3138,114.886 78.5,115C 79.3366,113.989 79.67,112.822 79.5,111.5C 81.9726,111.912 83.3059,110.912 83.5,108.5C 87.2013,108.132 89.2013,106.132 89.5,102.5 Z"/></g>
<g><path style="opacity:1" fill="#1a5d96" d="M 127.5,116.5 C 126.462,118.519 125.128,118.853 123.5,117.5C 124.239,117.631 124.906,117.464 125.5,117C 123.671,115.887 122.837,114.387 123,112.5C 126.081,109.707 129.581,107.54 133.5,106C 141.964,103.468 147.298,106.468 149.5,115C 148.584,115.374 147.75,115.874 147,116.5C 143.999,114.022 140.499,113.022 136.5,113.5C 132.802,113.158 129.469,113.991 126.5,116C 126.728,116.399 127.062,116.565 127.5,116.5 Z"/></g>
<g><path style="opacity:1" fill="#235783" d="M 59.5,105.5 C 58.8363,107.867 57.503,109.867 55.5,111.5C 55.8869,112.72 56.7202,113.387 58,113.5C 62.7778,112.247 67.6111,111.247 72.5,110.5C 72.2907,109.914 71.9574,109.414 71.5,109C 69.5,108.667 67.5,108.333 65.5,108C 64.6195,107.292 63.9528,106.458 63.5,105.5C 69.2565,106.597 74.5898,108.597 79.5,111.5C 79.67,112.822 79.3366,113.989 78.5,115C 75.3138,114.886 72.3138,115.053 69.5,115.5C 66.8333,115.5 64.1667,115.5 61.5,115.5C 58.0237,114.709 54.857,115.709 52,118.5C 51.9187,113.66 53.752,109.66 57.5,106.5C 58.1667,106.167 58.8333,105.833 59.5,105.5 Z"/></g>
<g><path style="opacity:1" fill="#0c5ca3" d="M 59.5,105.5 C 60.8333,106.833 62.1667,106.833 63.5,105.5C 63.9528,106.458 64.6195,107.292 65.5,108C 67.5,108.333 69.5,108.667 71.5,109C 71.9574,109.414 72.2907,109.914 72.5,110.5C 67.6111,111.247 62.7778,112.247 58,113.5C 56.7202,113.387 55.8869,112.72 55.5,111.5C 57.503,109.867 58.8363,107.867 59.5,105.5 Z"/></g>
<g><path style="opacity:1" fill="#f9f8f9" d="M 99.5,126.5 C 100.123,133.255 99.4563,139.588 97.5,145.5C 89.5626,142.244 82.0626,142.911 75,147.5C 71.7915,141.739 68.6248,136.072 65.5,130.5C 65.369,129.761 65.5357,129.094 66,128.5C 68.167,127.512 70.0003,126.179 71.5,124.5C 76.0537,123.096 80.7203,122.096 85.5,121.5C 91.0464,121.187 95.7131,122.853 99.5,126.5 Z"/></g>
<g><path style="opacity:1" fill="#f7f7f7" d="M 132.5,137.5 C 132.34,139.153 131.674,140.486 130.5,141.5C 129.462,143.572 127.962,145.239 126,146.5C 118.137,142.594 110.304,142.594 102.5,146.5C 96.9467,123.917 105.28,116.417 127.5,124C 130.603,125.281 133.269,127.114 135.5,129.5C 133.924,131.979 132.924,134.646 132.5,137.5 Z"/></g>
<g><path style="opacity:1" fill="#252625" d="M 71.5,124.5 C 70.0003,126.179 68.167,127.512 66,128.5C 65.5357,129.094 65.369,129.761 65.5,130.5C 64.2089,129.458 64.2089,128.292 65.5,127C 67.4068,125.878 69.4068,125.045 71.5,124.5 Z"/></g>
<g><path style="opacity:1" fill="#7c7b7b" d="M 99.5,126.5 C 100.491,132.979 100.824,139.646 100.5,146.5C 99.209,146.737 98.209,146.404 97.5,145.5C 99.4563,139.588 100.123,133.255 99.5,126.5 Z"/></g>
<g><path style="opacity:1" fill="#9b9a9b" d="M 65.5,154.5 C 64.5386,152.735 64.2053,150.735 64.5,148.5C 55.9832,148.174 47.6499,148.507 39.5,149.5C 38.9569,149.44 38.6236,149.107 38.5,148.5C 47.4754,147.502 56.4754,147.168 65.5,147.5C 65.5,149.833 65.5,152.167 65.5,154.5 Z"/></g>
<g><path style="opacity:1" fill="#a09e9f" d="M 136.5,148.5 C 144.65,147.507 152.983,147.174 161.5,147.5C 161.737,148.791 161.404,149.791 160.5,150.5C 152.903,148.533 144.903,147.866 136.5,148.5 Z"/></g>
<g><path style="opacity:1" fill="#272423" d="M 135.5,133.5 C 134.5,134.833 133.5,136.167 132.5,137.5C 132.924,134.646 133.924,131.979 135.5,129.5C 133.269,127.114 130.603,125.281 127.5,124C 105.28,116.417 96.9467,123.917 102.5,146.5C 110.304,142.594 118.137,142.594 126,146.5C 127.962,145.239 129.462,143.572 130.5,141.5C 129.911,145.344 128.244,148.678 125.5,151.5C 117.167,147.5 108.833,147.5 100.5,151.5C 92.281,146.193 84.1143,146.193 76,151.5C 71.4428,145.052 67.9428,138.052 65.5,130.5C 68.6248,136.072 71.7915,141.739 75,147.5C 82.0626,142.911 89.5626,142.244 97.5,145.5C 98.209,146.404 99.209,146.737 100.5,146.5C 100.824,139.646 100.491,132.979 99.5,126.5C 95.7131,122.853 91.0464,121.187 85.5,121.5C 80.7203,122.096 76.0537,123.096 71.5,124.5C 72.2905,123.599 73.2905,122.932 74.5,122.5C 83.5008,119.322 92.1675,119.989 100.5,124.5C 112.012,118.963 123.345,119.463 134.5,126C 136.837,128.194 137.17,130.694 135.5,133.5 Z"/></g>
<g><path style="opacity:1" fill="#353535" d="M 41.5,151.5 C 43.5576,153.927 45.3909,156.593 47,159.5C 47.7726,161.352 47.2726,162.686 45.5,163.5C 45.4142,162.504 45.7476,161.671 46.5,161C 44.1707,158.174 42.5041,155.008 41.5,151.5 Z"/></g>
<g><path style="opacity:1" fill="#272525" d="M 65.5,154.5 C 88.8333,154.5 112.167,154.5 135.5,154.5C 135.205,152.265 135.539,150.265 136.5,148.5C 144.903,147.866 152.903,148.533 160.5,150.5C 158.066,154.272 156.066,158.272 154.5,162.5C 153.903,162.265 153.57,161.765 153.5,161C 155.463,157.233 157.13,153.4 158.5,149.5C 152.491,149.334 146.491,149.501 140.5,150C 142.917,151.626 145.417,153.126 148,154.5C 148.499,159.489 148.666,164.489 148.5,169.5C 152.329,170.069 155.663,169.402 158.5,167.5C 160.104,168.287 160.771,169.62 160.5,171.5C 156.5,171.5 152.5,171.5 148.5,171.5C 148.5,173.5 148.5,175.5 148.5,177.5C 146.833,177.5 145.167,177.5 143.5,177.5C 113.167,177.5 82.8333,177.5 52.5,177.5C 52.7947,175.265 52.4614,173.265 51.5,171.5C 47.4454,171.824 43.4454,171.491 39.5,170.5C 39.8555,169.478 40.5222,168.811 41.5,168.5C 44.9619,169.482 48.6286,169.815 52.5,169.5C 52.5,164.167 52.5,158.833 52.5,153.5C 55.5158,153.159 58.1825,151.993 60.5,150C 57.3333,149.833 54.1667,149.667 51,149.5C 47.4242,149.515 44.2575,150.182 41.5,151.5C 40.5,151.167 39.8333,150.5 39.5,149.5C 47.6499,148.507 55.9832,148.174 64.5,148.5C 64.2053,150.735 64.5386,152.735 65.5,154.5 Z"/></g>
<g><path style="opacity:1" fill="#e9e7e8" d="M 137.5,150.5 C 139.807,151.653 142.14,152.82 144.5,154C 142.19,154.497 139.857,154.663 137.5,154.5C 137.5,153.167 137.5,151.833 137.5,150.5 Z"/></g>
<g><path style="opacity:1" fill="#edebec" d="M 61.5,150.5 C 63.1765,151.183 63.8432,152.517 63.5,154.5C 61.1432,154.663 58.8098,154.497 56.5,154C 58.5844,153.303 60.2511,152.136 61.5,150.5 Z"/></g>
<g><path style="opacity:1" fill="#f1eff0" d="M 154.5,162.5 C 155.08,164.749 156.413,166.415 158.5,167.5C 155.663,169.402 152.329,170.069 148.5,169.5C 148.666,164.489 148.499,159.489 148,154.5C 145.417,153.126 142.917,151.626 140.5,150C 146.491,149.501 152.491,149.334 158.5,149.5C 157.13,153.4 155.463,157.233 153.5,161C 153.57,161.765 153.903,162.265 154.5,162.5 Z"/></g>
<g><path style="opacity:1" fill="#edecec" d="M 41.5,168.5 C 43.5869,167.415 44.9202,165.749 45.5,163.5C 47.2726,162.686 47.7726,161.352 47,159.5C 45.3909,156.593 43.5576,153.927 41.5,151.5C 44.2575,150.182 47.4242,149.515 51,149.5C 54.1667,149.667 57.3333,149.833 60.5,150C 58.1825,151.993 55.5158,153.159 52.5,153.5C 52.5,158.833 52.5,164.167 52.5,169.5C 48.6286,169.815 44.9619,169.482 41.5,168.5 Z"/></g>
<g><path style="opacity:1" fill="#383637" d="M 154.5,162.5 C 156.587,163.585 157.92,165.251 158.5,167.5C 156.413,166.415 155.08,164.749 154.5,162.5 Z"/></g>
<g><path style="opacity:1" fill="#383637" d="M 45.5,163.5 C 44.9202,165.749 43.5869,167.415 41.5,168.5C 42.0798,166.251 43.4131,164.585 45.5,163.5 Z"/></g>
<g><path style="opacity:1" fill="#e9f4f5" d="M 53.5,156.5 C 84.5,156.5 115.5,156.5 146.5,156.5C 146.5,162.833 146.5,169.167 146.5,175.5C 115.5,175.5 84.5,175.5 53.5,175.5C 53.5,169.167 53.5,162.833 53.5,156.5 Z"/></g>
<g><path style="opacity:1" fill="#4c6c80" d="M 91.5,159.5 C 95.2407,158.599 97.2407,159.932 97.5,163.5C 96.1779,163.67 95.0113,163.337 94,162.5C 93.3333,165.167 93.3333,167.833 94,170.5C 94.7096,169.027 95.8762,168.36 97.5,168.5C 96.9245,172.473 94.7579,173.473 91,171.5C 90.3064,167.446 90.4731,163.446 91.5,159.5 Z"/></g>
<g><path style="opacity:1" fill="#39657d" d="M 68.5,160.5 C 69.8333,160.5 71.1667,160.5 72.5,160.5C 72.4107,163.709 72.744,166.875 73.5,170C 72.5658,173.154 71.8991,172.988 71.5,169.5C 70.5,169.5 69.5,169.5 68.5,169.5C 68.1009,172.988 67.4342,173.154 66.5,170C 67.1063,166.801 67.7729,163.634 68.5,160.5 Z"/></g>
<g><path style="opacity:1" fill="#396483" d="M 135.5,159.5 C 136.5,159.5 137.5,159.5 138.5,159.5C 139.497,170.15 140.497,170.15 141.5,159.5C 142.492,163.783 142.826,168.116 142.5,172.5C 141.167,172.5 139.833,172.5 138.5,172.5C 138.485,161.915 137.818,161.915 136.5,172.5C 135.508,168.217 135.174,163.884 135.5,159.5 Z"/></g>
<g><path style="opacity:1" fill="#356483" d="M 63.5,172.5 C 62.8945,166.794 61.8945,166.46 60.5,171.5C 60.1667,169.667 59.8333,167.833 59.5,166C 59.5465,163.705 60.2132,161.871 61.5,160.5C 61.3505,161.552 61.5172,162.552 62,163.5C 62.3095,162.234 62.8095,161.067 63.5,160C 64.4835,159.409 65.1501,159.743 65.5,161C 64.1667,164.333 64.1667,167.667 65.5,171C 65.1639,172.03 64.4972,172.53 63.5,172.5 Z"/></g>
<g><path style="opacity:1" fill="#345a74" d="M 80.5,160.5 C 80.446,164.013 80.6127,167.68 81,171.5C 79.3005,172.406 77.4672,172.739 75.5,172.5C 75.5,168.5 75.5,164.5 75.5,160.5C 77.1667,160.5 78.8333,160.5 80.5,160.5 Z"/></g>
<g><path style="opacity:1" fill="#93b5c5" d="M 61.5,160.5 C 60.2132,161.871 59.5465,163.705 59.5,166C 59.8333,167.833 60.1667,169.667 60.5,171.5C 61.8945,166.46 62.8945,166.794 63.5,172.5C 61.8333,172.5 60.1667,172.5 58.5,172.5C 58.5,168.167 58.5,163.833 58.5,159.5C 59.791,159.263 60.791,159.596 61.5,160.5 Z"/></g>
<g><path style="opacity:1" fill="#2e556f" d="M 99.5,159.5 C 100.8,161.223 101.467,163.39 101.5,166C 101.167,168.167 100.833,170.333 100.5,172.5C 99.5078,168.217 99.1744,163.884 99.5,159.5 Z"/></g>
<g><path style="opacity:1" fill="#70a5bf" d="M 77.5,161.5 C 78.4778,161.811 79.1445,162.478 79.5,163.5C 78.9475,165.727 78.9475,168.061 79.5,170.5C 78.5,170.5 77.5,170.5 76.5,170.5C 76.9629,167.518 77.2962,164.518 77.5,161.5 Z"/></g>
<g><path style="opacity:1" fill="#2d5875" d="M 124.5,171.5 C 122.735,172.461 120.735,172.795 118.5,172.5C 118.5,168.5 118.5,164.5 118.5,160.5C 120.5,160.5 122.5,160.5 124.5,160.5C 124.5,164.167 124.5,167.833 124.5,171.5 Z"/></g>
<g><path style="opacity:1" fill="#3c617d" d="M 127.5,159.5 C 132.745,158.579 134.745,160.746 133.5,166C 134.575,171.773 132.575,173.606 127.5,171.5C 126.167,167.5 126.167,163.5 127.5,159.5 Z"/></g>
<g><path style="opacity:1" fill="#93c5d6" d="M 129.5,161.5 C 130.765,162.514 131.431,164.014 131.5,166C 131.167,167.5 130.833,169 130.5,170.5C 129.516,167.572 129.183,164.572 129.5,161.5 Z"/></g>
<g><path style="opacity:1" fill="#bfe4ef" d="M 116.5,159.5 C 120.167,159.5 123.833,159.5 127.5,159.5C 126.167,163.5 126.167,167.5 127.5,171.5C 126.5,171.5 125.5,171.5 124.5,171.5C 124.5,167.833 124.5,164.167 124.5,160.5C 122.5,160.5 120.5,160.5 118.5,160.5C 118.5,164.5 118.5,168.5 118.5,172.5C 117.833,172.5 117.167,172.5 116.5,172.5C 115.892,171.2 115.225,169.867 114.5,168.5C 114.919,167.328 115.585,166.328 116.5,165.5C 115.833,164.833 115.167,164.167 114.5,163.5C 115.853,162.476 116.52,161.143 116.5,159.5 Z"/></g>
<g><path style="opacity:1" fill="#85b7d9" d="M 120.5,161.5 C 121.586,161.62 122.253,162.287 122.5,163.5C 122.289,165.774 121.955,168.107 121.5,170.5C 120.756,169.009 120.09,167.509 119.5,166C 120.38,164.644 120.714,163.144 120.5,161.5 Z"/></g>
<g><path style="opacity:1" fill="#416a84" d="M 116.5,159.5 C 116.52,161.143 115.853,162.476 114.5,163.5C 115.167,164.167 115.833,164.833 116.5,165.5C 115.585,166.328 114.919,167.328 114.5,168.5C 115.225,169.867 115.892,171.2 116.5,172.5C 114.833,172.5 113.167,172.5 111.5,172.5C 111.5,168.167 111.5,163.833 111.5,159.5C 113.167,159.5 114.833,159.5 116.5,159.5 Z"/></g>
<g><path style="opacity:1" fill="#2f5a80" d="M 103.5,159.5 C 105.467,159.261 107.301,159.594 109,160.5C 108.545,164.537 108.378,168.537 108.5,172.5C 107.167,165.833 105.833,165.833 104.5,172.5C 103.508,168.217 103.174,163.884 103.5,159.5 Z"/></g>
<g><path style="opacity:1" fill="#8fbfd0" d="M 105.5,161.5 C 106.586,161.62 107.253,162.287 107.5,163.5C 107.167,164.167 106.833,164.833 106.5,165.5C 105.571,164.311 105.238,162.978 105.5,161.5 Z"/></g>
<g><path style="opacity:1" fill="#73a4bb" d="M 80.5,160.5 C 78.8333,160.5 77.1667,160.5 75.5,160.5C 75.5,164.5 75.5,168.5 75.5,172.5C 74.5151,168.366 74.1818,164.032 74.5,159.5C 76.7354,159.205 78.7354,159.539 80.5,160.5 Z"/></g>
<g><path style="opacity:1" fill="#a09f9d" d="M 53.5,156.5 C 84.6622,155.502 115.996,155.168 147.5,155.5C 147.5,162.5 147.5,169.5 147.5,176.5C 115.996,176.832 84.6622,176.498 53.5,175.5C 84.5,175.5 115.5,175.5 146.5,175.5C 146.5,169.167 146.5,162.833 146.5,156.5C 115.5,156.5 84.5,156.5 53.5,156.5 Z"/></g>
<g><path style="opacity:1" fill="#e0dfde" d="M 51.5,171.5 C 52.4614,173.265 52.7947,175.265 52.5,177.5C 82.8333,177.5 113.167,177.5 143.5,177.5C 112.997,178.167 82.3306,178.833 51.5,179.5C 52.7161,180.096 54.0494,180.263 55.5,180C 53.4277,182.148 51.5944,181.982 50,179.5C 46.9746,180.791 46.6413,180.124 49,177.5C 49.6667,178.833 50.3333,178.833 51,177.5C 51.4955,175.527 51.6621,173.527 51.5,171.5 Z"/></g>
</svg>
