<?xml version="1.0" encoding="UTF-8"?>
<!DOCTYPE svg PUBLIC "-//W3C//DTD SVG 1.1//EN" "http://www.w3.org/Graphics/SVG/1.1/DTD/svg11.dtd">
<svg xmlns="http://www.w3.org/2000/svg" version="1.1" width="2318px" height="2348px" style="shape-rendering:geometricPrecision; text-rendering:geometricPrecision; image-rendering:optimizeQuality; fill-rule:evenodd; clip-rule:evenodd" xmlns:xlink="http://www.w3.org/1999/xlink">
<g><path style="opacity:1" fill="#242021" d="M 1152.5,49.5 C 1154.14,49.2865 1155.64,49.6198 1157,50.5C 1158.62,59.4428 1160.12,59.1095 1161.5,49.5C 1307.95,87.736 1449.61,138.903 1586.5,203C 1742.17,278.097 1879.67,378.264 1999,503.5C 2078.24,589.035 2150.24,680.035 2215,776.5C 2230.67,800.167 2246.33,823.833 2262,847.5C 2263.13,850.377 2263.79,853.377 2264,856.5C 2270.23,984.694 2267.56,1112.69 2256,1240.5C 2237.94,1437.33 2181.61,1622.33 2087,1795.5C 2015.89,1920.92 1934.06,2038.75 1841.5,2149C 1721.83,2195 1599.5,2232.33 1474.5,2261C 1265.03,2308.54 1055.37,2309.54 845.5,2264C 718.678,2235.39 595.178,2196.56 475,2147.5C 402.895,2057.39 336.228,1963.39 275,1865.5C 209.223,1759.27 156.89,1646.6 118,1527.5C 76.8486,1392.59 54.5153,1254.59 51,1113.5C 48.8636,1044.82 49.1969,976.156 52,907.5C 52.4382,887.717 53.7715,868.05 56,848.5C 124.343,744.512 199.01,645.179 280,550.5C 369.908,446.939 471.741,357.772 585.5,283C 692.608,215.284 806.274,160.617 926.5,119C 1001.12,93.0683 1076.45,69.9016 1152.5,49.5 Z"/></g>
<g><path style="opacity:1" fill="#1e7dbf" d="M 1154.5,69.5 C 1158.92,69.3054 1163.25,69.8054 1167.5,71C 1286.27,103.59 1402.27,143.924 1515.5,192C 1706.54,273.6 1871.71,391.433 2011,545.5C 2096.41,642.558 2173.74,745.558 2243,854.5C 2249.12,959.119 2248.79,1063.79 2242,1168.5C 2234.32,1309.56 2207.65,1446.9 2162,1580.5C 2126.07,1680.34 2080.07,1775.01 2024,1864.5C 1965.09,1957.41 1900.75,2046.41 1831,2131.5C 1700.53,2182.25 1566.69,2221.75 1429.5,2250C 1243.09,2286.99 1056.76,2286.65 870.5,2249C 762.626,2225.95 656.959,2195.28 553.5,2157C 532.167,2149 510.833,2141 489.5,2133C 396.438,2018.89 313.938,1897.39 242,1768.5C 135.879,1571.7 79.2128,1361.37 72,1137.5C 68.0446,1043.44 69.0446,949.442 75,855.5C 139.895,756.925 210.561,662.592 287,572.5C 381.194,462.631 488.694,368.798 609.5,291C 714.758,226.378 826.091,174.045 943.5,134C 1013.25,110.134 1083.59,88.6344 1154.5,69.5 Z"/></g>
<g><path style="opacity:1" fill="#232020" d="M 1135.5,202.5 C 1140.83,202.5 1146.17,202.5 1151.5,202.5C 1151.56,221.506 1151.89,240.506 1152.5,259.5C 1170.51,259.5 1188.51,259.834 1206.5,260.5C 1207.58,241.514 1208.58,222.514 1209.5,203.5C 1218.51,203.7 1227.51,204.034 1236.5,204.5C 1233.85,252.391 1230.52,300.225 1226.5,348C 1226.17,348.5 1225.83,349 1225.5,349.5C 1218.5,348.833 1211.5,348.167 1204.5,347.5C 1204.17,344.5 1203.83,341.5 1203.5,338.5C 1204.5,320.51 1205.17,302.51 1205.5,284.5C 1187.86,283.57 1170.19,283.237 1152.5,283.5C 1153.36,304.821 1153.69,326.154 1153.5,347.5C 1145.79,347.269 1138.12,347.602 1130.5,348.5C 1128.07,300.174 1125.74,251.841 1123.5,203.5C 1127.7,203.817 1131.7,203.483 1135.5,202.5 Z"/></g>
<g><path style="opacity:1" fill="#231f20" d="M 1308.5,212.5 C 1318.5,213.834 1328.5,215.167 1338.5,216.5C 1349.28,266.661 1356.62,317.328 1360.5,368.5C 1352.45,367.09 1344.45,365.423 1336.5,363.5C 1334.42,351.9 1332.76,340.233 1331.5,328.5C 1315.54,325.952 1299.54,323.619 1283.5,321.5C 1282.17,321.833 1280.83,322.167 1279.5,322.5C 1274.6,332.299 1270.26,342.299 1266.5,352.5C 1258.15,351.931 1249.81,351.098 1241.5,350C 1261.31,302.872 1283.65,257.039 1308.5,212.5 Z"/></g>
<g><path style="opacity:1" fill="#231f20" d="M 1031.5,211.5 C 1034.17,211.5 1036.83,211.5 1039.5,211.5C 1045.55,259.207 1051.89,306.874 1058.5,354.5C 1051.63,355.172 1044.79,356.172 1038,357.5C 1036.89,357.415 1035.89,357.081 1035,356.5C 1026.92,309.241 1019.42,262.074 1012.5,215C 1019.01,214.029 1025.34,212.862 1031.5,211.5 Z"/></g>
<g><path style="opacity:1" fill="#231f20" d="M 1411.5,232.5 C 1419.51,234.558 1427.51,236.725 1435.5,239C 1436.67,239.5 1437.5,240.333 1438,241.5C 1448.25,276.258 1455.75,311.592 1460.5,347.5C 1461.5,347.5 1462.5,347.5 1463.5,347.5C 1473.57,317.298 1484.23,287.298 1495.5,257.5C 1502.13,260.098 1508.79,262.598 1515.5,265C 1516.91,265.368 1517.91,266.201 1518.5,267.5C 1501.2,311.754 1484.2,356.088 1467.5,400.5C 1459.78,398.371 1452.11,396.038 1444.5,393.5C 1439.63,358.154 1432.96,323.154 1424.5,288.5C 1423.5,288.5 1422.5,288.5 1421.5,288.5C 1413.32,318.211 1404.99,347.878 1396.5,377.5C 1389.83,376.111 1383.16,374.611 1376.5,373C 1375.98,372.439 1375.64,371.772 1375.5,371C 1387.62,324.824 1399.62,278.657 1411.5,232.5 Z"/></g>
<g><path style="opacity:1" fill="#237dbe" d="M 1316.5,248.5 C 1317.5,248.5 1318.5,248.5 1319.5,248.5C 1322.6,267.103 1325.27,285.769 1327.5,304.5C 1315.58,302.273 1303.58,300.607 1291.5,299.5C 1299.03,282.107 1307.36,265.107 1316.5,248.5 Z"/></g>
<g><path style="opacity:1" fill="#231f20" d="M 839.5,258.5 C 852.043,289.279 863.543,320.612 874,352.5C 883.72,380.542 875.22,400.709 848.5,413C 816.623,426.822 793.123,417.989 778,386.5C 763.606,358.379 749.772,330.046 736.5,301.5C 744.648,298.509 752.481,294.843 760,290.5C 772.59,316.682 784.924,343.015 797,369.5C 800.26,377.104 804.76,383.937 810.5,390C 825.507,397.459 838.673,394.959 850,382.5C 852.285,377.028 852.952,371.362 852,365.5C 840.468,332.607 827.968,300.107 814.5,268C 823.049,265.099 831.383,261.933 839.5,258.5 Z"/></g>
<g><path style="opacity:1" fill="#231f20" d="M 949.5,227.5 C 972.407,226.575 986.573,237.241 992,259.5C 994.319,270.561 992.319,280.894 986,290.5C 979.742,296.036 973.242,301.203 966.5,306C 970.882,309.705 975.882,312.705 981.5,315C 995.994,328.819 1008.99,343.819 1020.5,360C 1011.78,361.644 1003.11,363.477 994.5,365.5C 980.376,349.543 965.376,334.376 949.5,320C 940.58,316.834 931.58,316.834 922.5,320C 921.978,320.561 921.645,321.228 921.5,322C 927.172,341.028 932.839,360.028 938.5,379C 930.786,381.072 923.119,383.239 915.5,385.5C 901.338,339.847 886.671,294.347 871.5,249C 897.063,239.945 923.063,232.778 949.5,227.5 Z"/></g>
<g><path style="opacity:1" fill="#217dbf" d="M 941.5,252.5 C 956.697,250.197 965.031,256.697 966.5,272C 965.951,280.55 961.618,286.217 953.5,289C 940.665,292.959 927.665,296.126 914.5,298.5C 911.982,288.43 909.149,278.43 906,268.5C 905.333,266.5 905.333,264.5 906,262.5C 917.816,258.757 929.649,255.424 941.5,252.5 Z"/></g>
<g><path style="opacity:1" fill="#231f20" d="M 1548.5,278.5 C 1570.96,287.065 1592.63,297.231 1613.5,309C 1633,324.47 1639.17,344.303 1632,368.5C 1623.76,394.51 1608.6,415.343 1586.5,431C 1572.35,439.601 1557.69,440.601 1542.5,434C 1525.88,426.132 1509.22,418.466 1492.5,411C 1511.66,367.03 1530.32,322.864 1548.5,278.5 Z"/></g>
<g><path style="opacity:1" fill="#207dbf" d="M 1564.5,311.5 C 1576.24,315.034 1587.24,320.201 1597.5,327C 1604.69,332.55 1608.02,339.883 1607.5,349C 1607.49,355.386 1606.32,361.553 1604,367.5C 1597.61,383.788 1588.11,397.955 1575.5,410C 1565.58,415.629 1555.58,415.629 1545.5,410C 1538.71,407.106 1532.05,403.94 1525.5,400.5C 1525.17,399.833 1524.83,399.167 1524.5,398.5C 1537.55,369.39 1550.89,340.39 1564.5,311.5 Z"/></g>
<g><path style="opacity:1" fill="#231f20" d="M 719.5,310.5 C 720.586,310.62 721.253,311.287 721.5,312.5C 733.392,359.932 746.392,406.766 760.5,453C 754.003,456.414 747.67,460.081 741.5,464C 740.5,464.667 739.5,464.667 738.5,464C 713.227,437.557 686.894,412.39 659.5,388.5C 659.167,388.833 658.833,389.167 658.5,389.5C 669.763,424.358 682.43,458.691 696.5,492.5C 689.737,498.099 682.57,503.099 675,507.5C 638.342,474.836 600.509,443.67 561.5,414C 568.317,408.094 575.317,402.427 582.5,397C 583.5,396.333 584.5,396.333 585.5,397C 609.465,417.963 633.132,439.297 656.5,461C 657.448,461.483 658.448,461.649 659.5,461.5C 648.584,431.924 637.751,402.258 627,372.5C 626.009,370.553 625.675,368.553 626,366.5C 634.934,359.464 644.434,353.63 654.5,349C 678.531,371.364 701.531,394.697 723.5,419C 724.759,419.982 726.092,420.315 727.5,420C 716.481,388.437 706.148,356.604 696.5,324.5C 697.707,322.551 699.373,321.051 701.5,320C 707.751,317.044 713.751,313.878 719.5,310.5 Z"/></g>
<g><path style="opacity:1" fill="#231f20" d="M 1713.5,368.5 C 1723.08,373.299 1732.08,379.132 1740.5,386C 1728.41,435.948 1712.91,484.781 1694,532.5C 1687.67,527.5 1681.33,522.5 1675,517.5C 1674.33,516.167 1674.33,514.833 1675,513.5C 1678.67,504 1681.83,494.333 1684.5,484.5C 1684.47,482.971 1683.8,481.804 1682.5,481C 1669.22,471.21 1655.55,462.044 1641.5,453.5C 1632.24,460.085 1623.24,467.085 1614.5,474.5C 1607.5,470.333 1600.5,466.167 1593.5,462C 1631.68,428.296 1671.68,397.129 1713.5,368.5 Z"/></g>
<g><path style="opacity:1" fill="#247dbe" d="M 1707.5,403.5 C 1708.12,403.917 1708.46,404.584 1708.5,405.5C 1703.65,423.23 1698.65,440.897 1693.5,458.5C 1691.35,458.628 1689.35,458.128 1687.5,457C 1678.89,450.881 1670.56,444.548 1662.5,438C 1663.44,436.056 1664.77,434.389 1666.5,433C 1679.92,422.644 1693.58,412.81 1707.5,403.5 Z"/></g>
<g><path style="opacity:1" fill="#231f20" d="M 511.5,456.5 C 516.933,461.829 522.266,467.329 527.5,473C 517.363,482.136 507.53,491.636 498,501.5C 497.333,502.833 497.333,504.167 498,505.5C 525.861,533.695 554.028,561.528 582.5,589C 577.351,595.316 571.684,601.15 565.5,606.5C 536.35,579.851 507.35,553.017 478.5,526C 477.5,525.333 476.5,525.333 475.5,526C 465.61,536.054 456.276,546.554 447.5,557.5C 441.511,552.843 435.844,547.843 430.5,542.5C 455.437,511.896 482.437,483.23 511.5,456.5 Z"/></g>
<g><path style="opacity:1" fill="#231f20" d="M 1773.5,411.5 C 1782.43,417.895 1790.93,424.895 1799,432.5C 1799.17,433.5 1799.33,434.5 1799.5,435.5C 1796.01,456.612 1792.01,477.612 1787.5,498.5C 1808.19,492.451 1829.03,486.785 1850,481.5C 1859.08,488.247 1867.25,496.081 1874.5,505C 1842.06,510.443 1810.06,517.776 1778.5,527C 1764.67,541.5 1750.83,556 1737,570.5C 1731.02,565.351 1725.18,560.018 1719.5,554.5C 1732.85,539.648 1746.02,524.648 1759,509.5C 1766.3,477.2 1771.14,444.534 1773.5,411.5 Z"/></g>
<g><path style="opacity:1" fill="#231f20" d="M 1900.5,536.5 C 1902.39,536.297 1903.89,536.963 1905,538.5C 1911.17,546 1917.33,553.5 1923.5,561C 1899.22,607.09 1872.05,651.256 1842,693.5C 1836.64,686.305 1831.47,678.972 1826.5,671.5C 1832.71,661.788 1838.71,651.955 1844.5,642C 1833.94,627.432 1822.61,613.432 1810.5,600C 1799.53,603.051 1788.87,607.217 1778.5,612.5C 1771.98,606.817 1765.98,600.65 1760.5,594C 1805.97,571.759 1852.64,552.592 1900.5,536.5 Z"/></g>
<g><path style="opacity:1" fill="#231f20" d="M 414.5,561.5 C 434.273,576.762 453.939,592.262 473.5,608C 485.019,617.186 495.519,627.353 505,638.5C 513.829,654.617 513.495,670.617 504,686.5C 497.97,696.203 490.803,705.036 482.5,713C 466.515,724.386 449.849,725.386 432.5,716C 402.667,698.92 373.334,681.087 344.5,662.5C 349.584,653.997 354.917,645.664 360.5,637.5C 386.302,654.137 411.969,670.97 437.5,688C 460.52,700.326 476.353,694.16 485,669.5C 486.209,663.114 485.209,657.114 482,651.5C 477.135,646.3 471.968,641.467 466.5,637C 443.577,619.955 420.744,602.788 398,585.5C 397.685,584.092 398.018,582.759 399,581.5C 404.382,574.958 409.548,568.291 414.5,561.5 Z"/></g>
<g><path style="opacity:1" fill="#247dbe" d="M 1883.5,569.5 C 1884.83,569.5 1886.17,569.5 1887.5,569.5C 1878.96,586.92 1869.12,603.587 1858,619.5C 1856.39,618.899 1855.06,617.899 1854,616.5C 1848.48,608.799 1842.48,601.466 1836,594.5C 1834.44,592.783 1833.61,590.783 1833.5,588.5C 1850.39,582.541 1867.05,576.208 1883.5,569.5 Z"/></g>
<g><path style="opacity:1" fill="#231f20" d="M 1969.5,627.5 C 1970.5,627.414 1971.33,627.748 1972,628.5C 1976.67,635.833 1981.33,643.167 1986,650.5C 1986.67,651.833 1986.67,653.167 1986,654.5C 1970.86,688.947 1954.03,722.447 1935.5,755C 1940.05,754.235 1944.39,752.568 1948.5,750C 1972.27,737.032 1996.1,724.199 2020,711.5C 2025.38,719.092 2029.88,727.259 2033.5,736C 1991.4,758.133 1948.9,779.633 1906,800.5C 1901.39,792.777 1896.89,784.943 1892.5,777C 1912.17,745.665 1929.5,712.998 1944.5,679C 1942.83,678.878 1941.16,679.212 1939.5,680C 1914.5,695.833 1889.5,711.667 1864.5,727.5C 1860.29,720.914 1855.96,714.414 1851.5,708C 1891.01,681.304 1930.34,654.47 1969.5,627.5 Z"/></g>
<g><path style="opacity:1" fill="#231f20" d="M 332.5,682.5 C 339.506,686 346.173,690 352.5,694.5C 345.412,707.007 338.579,719.674 332,732.5C 331.219,733.944 331.386,735.277 332.5,736.5C 366.709,754.535 401.042,772.368 435.5,790C 436.357,790.689 437.023,791.522 437.5,792.5C 433.667,800.167 429.833,807.833 426,815.5C 390.757,798.795 355.59,781.962 320.5,765C 318.866,764.506 317.199,764.34 315.5,764.5C 309.518,778.468 303.518,792.468 297.5,806.5C 296.635,807.583 295.635,807.749 294.5,807C 288.248,804.138 281.915,801.472 275.5,799C 292.131,758.899 311.131,720.066 332.5,682.5 Z"/></g>
<g><path style="opacity:1" fill="#231f20" d="M 2048.5,769.5 C 2054.01,778.827 2058.68,788.661 2062.5,799C 2018.02,818.017 1973.52,836.184 1929,853.5C 1925.77,845.383 1922.27,837.383 1918.5,829.5C 1961.92,809.456 2005.25,789.456 2048.5,769.5 Z"/></g>
<g><path style="opacity:1" fill="#232020" d="M 1157.5,390.5 C 1161.18,390.591 1164.35,391.924 1167,394.5C 1172.45,405.545 1179.95,415.045 1189.5,423C 1203.89,433.722 1218.56,444.056 1233.5,454C 1238.47,457.966 1243.13,462.299 1247.5,467C 1248.45,467.483 1249.45,467.649 1250.5,467.5C 1251.58,457.342 1253.41,447.342 1256,437.5C 1257.24,436.128 1258.74,435.128 1260.5,434.5C 1263.33,435.747 1266,437.247 1268.5,439C 1274.46,446.628 1280.79,453.962 1287.5,461C 1303.66,472.912 1319.99,484.579 1336.5,496C 1352,507.498 1363.83,521.998 1372,539.5C 1373.64,544.402 1374.81,549.402 1375.5,554.5C 1383.07,550.714 1390.74,546.881 1398.5,543C 1416.04,537.021 1433.37,537.688 1450.5,545C 1461.27,549.552 1471.61,554.886 1481.5,561C 1507.49,578.999 1534.16,595.999 1561.5,612C 1565.57,614.399 1568.57,617.732 1570.5,622C 1568.69,625.178 1565.85,626.678 1562,626.5C 1545.96,623.446 1529.79,622.279 1513.5,623C 1496.17,623.409 1483,630.909 1474,645.5C 1467.01,659.125 1462.01,673.459 1459,688.5C 1423.17,863.005 1387.33,1037.51 1351.5,1212C 1383.61,1269.72 1395.94,1331.55 1388.5,1397.5C 1388.88,1400.58 1389.55,1403.58 1390.5,1406.5C 1394.44,1406.36 1397.77,1404.86 1400.5,1402C 1433.83,1376.37 1448.33,1342.54 1444,1300.5C 1439.55,1269.14 1434.88,1237.8 1430,1206.5C 1426.95,1183.78 1429.61,1161.78 1438,1140.5C 1450.26,1118.27 1469.09,1105.44 1494.5,1102C 1526.23,1098.38 1557.56,1100.71 1588.5,1109C 1635.22,1120.86 1680.89,1135.86 1725.5,1154C 1753.25,1165.14 1780.91,1176.47 1808.5,1188C 1827.95,1195.74 1848.12,1199.9 1869,1200.5C 1904.59,1201.36 1923.92,1184.03 1927,1148.5C 1927.83,1135.45 1927.33,1122.45 1925.5,1109.5C 1913.43,1057.4 1904.93,1004.74 1900,951.5C 1898.64,935.52 1898.3,919.52 1899,903.5C 1899.69,898.115 1902.35,894.115 1907,891.5C 1908.15,892.743 1909.49,893.743 1911,894.5C 1922.18,921.191 1934.18,947.524 1947,973.5C 1970.41,1015.33 1994.08,1057 2018,1098.5C 2032.63,1123.38 2043.96,1149.71 2052,1177.5C 2063.81,1217.88 2059.81,1256.55 2040,1293.5C 2033.75,1302.42 2026.75,1310.75 2019,1318.5C 2021.18,1369.96 2005.52,1414.96 1972,1453.5C 1973.53,1461.55 1974.69,1469.71 1975.5,1478C 1973.08,1502.26 1964.58,1524.1 1950,1543.5C 1942.08,1554.09 1933.41,1564.09 1924,1573.5C 1923.71,1596.34 1917.37,1617.34 1905,1636.5C 1890,1659.5 1871,1678.5 1848,1693.5C 1833.63,1754.54 1796.13,1793.38 1735.5,1810C 1690.13,1821.42 1644.13,1824.75 1597.5,1820C 1520.86,1812.17 1446.2,1795.51 1373.5,1770C 1357.44,1764.26 1341.44,1758.42 1325.5,1752.5C 1324.5,1752.67 1323.5,1752.83 1322.5,1753C 1275.25,1795.72 1220.75,1825.89 1159,1843.5C 1097.23,1825.88 1042.73,1795.71 995.5,1753C 994.667,1752.83 993.833,1752.67 993,1752.5C 914.366,1783.45 833.199,1804.95 749.5,1817C 708.899,1822.07 668.232,1822.74 627.5,1819C 587.119,1814.99 550.786,1800.99 518.5,1777C 493.035,1754.25 476.702,1726.08 469.5,1692.5C 437.123,1672.05 413.956,1644.05 400,1608.5C 396.326,1596.78 394.326,1584.78 394,1572.5C 374.23,1554.08 359.23,1532.41 349,1507.5C 344.178,1494.9 342.512,1481.9 344,1468.5C 345.328,1463.21 345.995,1457.87 346,1452.5C 312.7,1414.28 297.034,1369.61 299,1318.5C 272.974,1292.76 259.807,1261.42 259.5,1224.5C 260.987,1194.55 267.82,1165.89 280,1138.5C 287.078,1124.01 294.411,1109.68 302,1095.5C 326.586,1052.66 350.92,1009.66 375,966.5C 386.362,944.078 396.362,921.078 405,897.5C 407.039,895.126 409.372,893.126 412,891.5C 416.994,895.149 419.661,900.149 420,906.5C 419.808,947.131 416.142,987.465 409,1027.5C 403.923,1054.88 398.59,1082.22 393,1109.5C 382.57,1187.72 415.403,1215.89 491.5,1194C 526.404,1180.92 561.071,1167.25 595.5,1153C 630.589,1139.08 666.256,1126.75 702.5,1116C 733.692,1106.76 765.525,1101.26 798,1099.5C 821.011,1099.03 842.178,1104.86 861.5,1117C 881.741,1136.01 891.075,1159.51 889.5,1187.5C 889.388,1194.86 888.888,1202.19 888,1209.5C 883.007,1241.12 878.34,1272.79 874,1304.5C 871.398,1347.79 887.898,1381.63 923.5,1406C 926.476,1406.76 928.309,1405.59 929,1402.5C 925.836,1363.11 928.503,1324.11 937,1285.5C 943.377,1260.75 953.044,1237.42 966,1215.5C 966.167,1214.17 966.333,1212.83 966.5,1211.5C 930.654,1035.1 894.487,858.77 858,682.5C 854.864,667.413 849.197,653.413 841,640.5C 831.779,629.473 819.945,623.64 805.5,623C 789.034,622.18 772.7,623.346 756.5,626.5C 746.671,625.363 745.337,621.53 752.5,615C 779.037,599.122 805.037,582.456 830.5,565C 843.265,556.951 856.598,549.951 870.5,544C 888.669,536.356 906.669,536.69 924.5,545C 930.438,548.467 936.438,551.634 942.5,554.5C 944.745,540.68 950.245,528.347 959,517.5C 965.864,510.302 973.03,503.468 980.5,497C 996.5,485.667 1012.5,474.333 1028.5,463C 1036.73,454.523 1044.73,445.857 1052.5,437C 1058.05,433.509 1061.88,435.009 1064,441.5C 1065.03,450.369 1066.7,459.036 1069,467.5C 1087.32,452.176 1106.49,438.009 1126.5,425C 1136.16,417.005 1143.99,407.505 1150,396.5C 1152.13,393.847 1154.63,391.847 1157.5,390.5 Z"/></g>
<g><path style="opacity:1" fill="#fefefd" d="M 1108.5,1078.5 C 1109.17,1070.17 1109.83,1061.83 1110.5,1053.5C 1129.89,1074.62 1142.73,1099.28 1149,1127.5C 1153.19,1137.75 1159.19,1139.08 1167,1131.5C 1171.57,1116.89 1176.9,1102.56 1183,1088.5C 1190.2,1075.44 1198.86,1063.44 1209,1052.5C 1208.8,1086.57 1210.13,1120.57 1213,1154.5C 1218.86,1194.45 1233.86,1230.45 1258,1262.5C 1278.92,1288.75 1300.58,1314.42 1323,1339.5C 1340.61,1360.38 1354.95,1383.38 1366,1408.5C 1370.27,1420.24 1373.6,1432.24 1376,1444.5C 1407.81,1431.39 1433.15,1410.06 1452,1380.5C 1465.53,1355.49 1470.87,1328.83 1468,1300.5C 1463.99,1272.12 1459.66,1243.79 1455,1215.5C 1452.74,1199.44 1453.08,1183.44 1456,1167.5C 1464.55,1141.31 1482.71,1127.48 1510.5,1126C 1525.28,1124.97 1539.95,1125.8 1554.5,1128.5C 1519.63,1145.89 1502.96,1174.22 1504.5,1213.5C 1505.17,1235.85 1508.34,1257.85 1514,1279.5C 1524.02,1316.26 1534.36,1352.92 1545,1389.5C 1555.82,1426.41 1561.65,1464.08 1562.5,1502.5C 1562.44,1596.36 1518.77,1660.19 1431.5,1694C 1397.78,1706.43 1363.12,1715.1 1327.5,1720C 1325.5,1721 1323.5,1722 1321.5,1723C 1298.7,1746.05 1273.37,1765.72 1245.5,1782C 1221.96,1796.53 1197.29,1808.86 1171.5,1819C 1155.21,1823.42 1139.54,1821.75 1124.5,1814C 1091.8,1797.33 1061.13,1777.66 1032.5,1755C 1019.93,1745.44 1008.27,1734.77 997.5,1723C 995.5,1722 993.5,1721 991.5,1720C 952.148,1715 914.148,1705 877.5,1690C 796.367,1654.62 755.7,1592.46 755.5,1503.5C 756.46,1469.28 761.293,1435.61 770,1402.5C 783.446,1356.38 796.113,1310.05 808,1263.5C 813.05,1241.42 814.717,1219.09 813,1196.5C 809.489,1164.34 792.989,1141.84 763.5,1129C 783.751,1124.39 804.084,1124.39 824.5,1129C 845.309,1135.47 858.142,1149.31 863,1170.5C 865.959,1186.14 865.959,1201.81 863,1217.5C 858.124,1246.42 853.79,1275.42 850,1304.5C 847.584,1355.16 866.751,1395.33 907.5,1425C 918.608,1432.88 930.275,1439.72 942.5,1445.5C 946.508,1420.31 955.341,1396.97 969,1375.5C 977.561,1362.27 986.895,1349.6 997,1337.5C 1023.48,1309.49 1047.82,1279.82 1070,1248.5C 1094.97,1209.93 1107.63,1167.59 1108,1121.5C 1108.5,1107.17 1108.67,1092.84 1108.5,1078.5 Z"/></g>
<g><path style="opacity:1" fill="#fefefd" d="M 1925.5,984.5 C 1947.05,1023.27 1968.89,1061.93 1991,1100.5C 2005.15,1126.46 2016.82,1153.46 2026,1181.5C 2046.27,1250.44 2024.1,1299.94 1959.5,1330C 1926.3,1342.88 1891.97,1351.22 1856.5,1355C 1849.93,1356.25 1845.1,1359.75 1842,1365.5C 1841.19,1371.38 1843.69,1375.21 1849.5,1377C 1856.48,1378.8 1863.48,1378.8 1870.5,1377C 1905.51,1371.75 1939.51,1362.75 1972.5,1350C 1979.58,1346.59 1986.58,1343.09 1993.5,1339.5C 1993.31,1379.91 1978.64,1414.07 1949.5,1442C 1928.23,1458.1 1904.23,1467.77 1877.5,1471C 1860.17,1473.41 1842.83,1475.74 1825.5,1478C 1818.93,1479.25 1814.1,1482.75 1811,1488.5C 1810.6,1493.46 1812.77,1496.96 1817.5,1499C 1821.48,1499.94 1825.48,1500.77 1829.5,1501.5C 1864.73,1499.09 1899.06,1492.25 1932.5,1481C 1938.56,1478.55 1944.4,1475.72 1950,1472.5C 1953.11,1488.28 1950.78,1503.28 1943,1517.5C 1922.67,1549.46 1893.84,1569.3 1856.5,1577C 1847.25,1578.89 1837.91,1580.23 1828.5,1581C 1810.15,1581.55 1791.81,1581.55 1773.5,1581C 1763.47,1583.9 1760.63,1590.06 1765,1599.5C 1766.73,1601.62 1768.9,1603.12 1771.5,1604C 1806.8,1606.52 1841.8,1604.19 1876.5,1597C 1883.82,1594.73 1891.16,1592.56 1898.5,1590.5C 1892.49,1615.36 1880.15,1636.53 1861.5,1654C 1853.79,1660.71 1845.79,1667.05 1837.5,1673C 1812.12,1684.68 1785.45,1691.35 1757.5,1693C 1738.5,1693.33 1719.5,1693.67 1700.5,1694C 1694.13,1697.25 1691.97,1702.41 1694,1709.5C 1695.27,1713.77 1698.1,1716.27 1702.5,1717C 1742.16,1720.58 1781.16,1717.08 1819.5,1706.5C 1808.27,1739.9 1786.6,1764.07 1754.5,1779C 1728.6,1789.91 1701.6,1796.25 1673.5,1798C 1621.34,1800.68 1569.67,1796.68 1518.5,1786C 1463.25,1775.02 1409.25,1759.69 1356.5,1740C 1398.14,1732.45 1437.81,1719.12 1475.5,1700C 1542.96,1662.47 1579.79,1604.97 1586,1527.5C 1588.46,1487.93 1584.8,1448.93 1575,1410.5C 1563.96,1368.32 1552.29,1326.32 1540,1284.5C 1533.78,1262.23 1529.95,1239.56 1528.5,1216.5C 1528.96,1178.22 1547.62,1154.05 1584.5,1144C 1591.43,1142.18 1598.43,1140.68 1605.5,1139.5C 1646.63,1151.07 1686.96,1164.9 1726.5,1181C 1759.62,1195.39 1793.29,1208.39 1827.5,1220C 1848.59,1225.98 1869.92,1227.31 1891.5,1224C 1920.03,1217.14 1938.53,1199.64 1947,1171.5C 1952.21,1149.66 1952.88,1127.66 1949,1105.5C 1940.05,1065.37 1932.22,1025.04 1925.5,984.5 Z"/></g>
<g><path style="opacity:1" fill="#fefefd" d="M 392.5,983.5 C 393.097,983.735 393.43,984.235 393.5,985C 385.975,1026.29 377.808,1067.46 369,1108.5C 365.014,1130.41 366.014,1152.08 372,1173.5C 380.686,1201.19 399.186,1218.02 427.5,1224C 450.168,1227.47 472.502,1225.81 494.5,1219C 503.637,1216.4 512.637,1213.4 521.5,1210C 573.303,1187.51 625.97,1167.18 679.5,1149C 690.371,1145.37 701.371,1142.2 712.5,1139.5C 736.883,1141.78 757.716,1151.44 775,1168.5C 783.575,1179.66 788.241,1192.33 789,1206.5C 789.834,1227.84 787.5,1248.84 782,1269.5C 771.609,1309.01 760.609,1348.34 749,1387.5C 740.11,1419.62 734.443,1452.28 732,1485.5C 725.862,1599.93 776.029,1677.43 882.5,1718C 908.261,1727.36 934.594,1734.69 961.5,1740C 869.773,1775.52 774.773,1795.35 676.5,1799.5C 639.296,1800.07 603.296,1793.9 568.5,1781C 534.367,1766.7 511.034,1742.2 498.5,1707.5C 499.167,1707.17 499.833,1706.83 500.5,1706.5C 539.98,1718.01 579.98,1720.84 620.5,1715C 627.543,1707.23 626.877,1700.23 618.5,1694C 595.478,1693.87 572.478,1693.21 549.5,1692C 525.478,1689.33 502.478,1682.99 480.5,1673C 457.711,1657.55 439.878,1637.72 427,1613.5C 423.802,1606.41 421.302,1599.07 419.5,1591.5C 420,1591.17 420.5,1590.83 421,1590.5C 436.735,1596.14 452.902,1599.98 469.5,1602C 493.772,1604.56 518.105,1605.56 542.5,1605C 552.049,1603.46 556.216,1597.96 555,1588.5C 552.889,1584.06 549.389,1581.56 544.5,1581C 526.187,1581.55 507.853,1581.55 489.5,1581C 448.961,1579.14 414.795,1563.64 387,1534.5C 374.505,1520.03 367.672,1503.19 366.5,1484C 366.906,1480.15 367.406,1476.32 368,1472.5C 385.558,1481.58 404.058,1488.08 423.5,1492C 445,1496.33 466.667,1499.5 488.5,1501.5C 494.167,1501.14 499.5,1499.64 504.5,1497C 508.849,1491.42 508.183,1486.42 502.5,1482C 498.05,1479.74 493.383,1478.07 488.5,1477C 461.019,1475.03 434.019,1470.36 407.5,1463C 373.336,1451.5 349.503,1429 336,1395.5C 328.307,1377.43 324.473,1358.76 324.5,1339.5C 353.602,1354.48 384.269,1364.98 416.5,1371C 432.321,1374.86 448.321,1377.19 464.5,1378C 470.974,1377.28 475.307,1373.95 477.5,1368C 474.906,1360.42 469.573,1356.08 461.5,1355C 427.923,1351.11 395.257,1343.44 363.5,1332C 296.385,1303.26 272.551,1253.43 292,1182.5C 301.325,1152.85 313.658,1124.52 329,1097.5C 350.939,1059.96 372.106,1021.96 392.5,983.5 Z"/></g>
<g><path style="opacity:1" fill="#fefefd" d="M 1158.5,424.5 C 1163.13,430.211 1168.13,435.711 1173.5,441C 1189.79,452.951 1205.79,465.284 1221.5,478C 1240.88,493.806 1247.71,513.973 1242,538.5C 1233.07,628.657 1224.23,718.824 1215.5,809C 1215.1,821.284 1220.77,826.284 1232.5,824C 1236.01,821.831 1238.18,818.664 1239,814.5C 1249.53,710.188 1259.86,605.855 1270,501.5C 1270.52,495.034 1271.69,488.701 1273.5,482.5C 1291.03,495.859 1308.69,509.026 1326.5,522C 1337.07,530.898 1344.91,541.732 1350,554.5C 1352.96,565.737 1353.29,577.07 1351,588.5C 1334.13,682.523 1317.13,776.523 1300,870.5C 1298.61,876.924 1299.77,882.757 1303.5,888C 1312.9,892.22 1319.4,889.387 1323,879.5C 1339.44,789.186 1355.77,698.853 1372,608.5C 1373.13,596.068 1378.96,586.568 1389.5,580C 1408.54,567.912 1428.54,566.245 1449.5,575C 1466.67,583.745 1483,593.745 1498.5,605C 1474.61,611.214 1457.78,625.714 1448,648.5C 1444.27,658.363 1440.93,668.363 1438,678.5C 1402.9,848.189 1367.73,1017.86 1332.5,1187.5C 1304.48,1153.43 1271.65,1125.1 1234,1102.5C 1233.33,1073.83 1233.33,1045.17 1234,1016.5C 1247.85,981.015 1244.85,947.015 1225,914.5C 1210.33,893.167 1195.67,871.833 1181,850.5C 1172.41,834.407 1166.41,817.407 1163,799.5C 1160,795.5 1157,795.5 1154,799.5C 1151.16,816.185 1146.16,832.185 1139,847.5C 1122.42,871.661 1106.09,895.994 1090,920.5C 1073.15,951.26 1071.15,982.927 1084,1015.5C 1084.67,1044.5 1084.67,1073.5 1084,1102.5C 1046.74,1125.26 1014.24,1153.59 986.5,1187.5C 986.167,1187.17 985.833,1186.83 985.5,1186.5C 950.321,1015.44 914.821,844.437 879,673.5C 874.499,652.323 864.665,634.157 849.5,619C 840.545,612.19 830.545,607.524 819.5,605C 835.874,593.143 853.207,582.81 871.5,574C 898.862,563.865 922.029,569.699 941,591.5C 943.466,596.232 945.133,601.232 946,606.5C 962.464,698.953 979.464,791.286 997,883.5C 1002.92,891.932 1009.58,892.598 1017,885.5C 1017.91,882.689 1018.74,879.856 1019.5,877C 1000.69,775.631 982.689,674.131 965.5,572.5C 966.699,552.935 974.699,536.768 989.5,524C 1007.91,510.045 1026.41,496.212 1045,482.5C 1045.33,483.167 1045.67,483.833 1046,484.5C 1057.46,594.114 1068.46,703.781 1079,813.5C 1081.17,823.362 1087,826.862 1096.5,824C 1100.92,820.429 1103.25,815.762 1103.5,810C 1094.49,721.864 1085.65,633.698 1077,545.5C 1075.63,533.527 1075.29,521.527 1076,509.5C 1078.16,500.835 1082.16,493.169 1088,486.5C 1105.3,470.86 1123.47,456.36 1142.5,443C 1148.79,437.551 1154.12,431.385 1158.5,424.5 Z"/></g>
<g><path style="opacity:1" fill="#626365" d="M 1110.5,1053.5 C 1109.83,1061.83 1109.17,1070.17 1108.5,1078.5C 1108.17,1069.81 1108.5,1061.14 1109.5,1052.5C 1110.11,1052.62 1110.44,1052.96 1110.5,1053.5 Z"/></g>
<g><path style="opacity:1" fill="#fefefd" d="M 1158.5,855.5 C 1170.9,875.287 1184.07,894.621 1198,913.5C 1204.98,924.157 1210.65,935.491 1215,947.5C 1221.59,970.304 1218.92,991.971 1207,1012.5C 1196.06,1028.7 1184.4,1044.37 1172,1059.5C 1167.42,1066.33 1163.08,1073.33 1159,1080.5C 1154.58,1072.67 1149.92,1065 1145,1057.5C 1133.62,1043.12 1122.62,1028.45 1112,1013.5C 1095.23,984.026 1095.57,954.692 1113,925.5C 1124.94,907.225 1137.28,889.225 1150,871.5C 1153.11,866.271 1155.95,860.938 1158.5,855.5 Z"/></g>
<g><path style="opacity:1" fill="#fefefd" d="M 1081.5,1129.5 C 1082.65,1129.79 1083.32,1130.62 1083.5,1132C 1081.76,1163.78 1073.26,1193.61 1058,1221.5C 1049.99,1235.52 1040.99,1248.86 1031,1261.5C 1013.67,1281.5 996.333,1301.5 979,1321.5C 970.333,1332.83 961.667,1344.17 953,1355.5C 953.104,1291.17 974.104,1234.83 1016,1186.5C 1035.96,1165.02 1057.79,1146.02 1081.5,1129.5 Z"/></g>
<g><path style="opacity:1" fill="#fefefd" d="M 1235.5,1129.5 C 1286.42,1161.59 1323.92,1205.26 1348,1260.5C 1359.91,1291.4 1365.91,1323.4 1366,1356.5C 1357.91,1345.32 1349.58,1334.32 1341,1323.5C 1323.67,1303.5 1306.33,1283.5 1289,1263.5C 1272.64,1243.46 1259.31,1221.46 1249,1197.5C 1240.33,1175.66 1235.83,1153 1235.5,1129.5 Z"/></g>
<g><path style="opacity:1" fill="#252122" d="M 1160.5,1148.5 C 1167.55,1147.34 1172.39,1150 1175,1156.5C 1178.6,1186.52 1185.27,1215.86 1195,1244.5C 1200.38,1258.3 1206.71,1271.63 1214,1284.5C 1229.58,1309.33 1244.92,1334.33 1260,1359.5C 1280.05,1391.31 1292.38,1425.98 1297,1463.5C 1303.13,1536.95 1272.13,1586.95 1204,1613.5C 1196.16,1607.15 1187.66,1601.65 1178.5,1597C 1160.4,1591.02 1143.06,1592.69 1126.5,1602C 1121.3,1606.09 1115.97,1609.92 1110.5,1613.5C 1049.58,1590.55 1018.25,1546.38 1016.5,1481C 1017.63,1444.98 1026.8,1411.15 1044,1379.5C 1056.76,1358.99 1068.76,1337.99 1080,1316.5C 1082.94,1309.61 1085.61,1302.61 1088,1295.5C 1090.57,1282.72 1093.57,1270.06 1097,1257.5C 1103.91,1247.58 1111.75,1246.91 1120.5,1255.5C 1127.45,1221.36 1137.95,1188.36 1152,1156.5C 1154.07,1152.92 1156.91,1150.26 1160.5,1148.5 Z"/></g>
<g><path style="opacity:1" fill="#f5a21f" d="M 1160.5,1176.5 C 1161.12,1176.61 1161.62,1176.94 1162,1177.5C 1167.42,1219.08 1180.42,1258.08 1201,1294.5C 1222.7,1328.55 1243.2,1363.39 1262.5,1399C 1274.34,1424.87 1280.67,1452.37 1281.5,1481.5C 1280.57,1535.72 1255.41,1573.72 1206,1595.5C 1184.2,1577.26 1159.7,1572.43 1132.5,1581C 1123.9,1584.88 1115.74,1589.38 1108,1594.5C 1064.45,1576.26 1039.78,1543.6 1034,1496.5C 1031.52,1460.23 1038.52,1425.89 1055,1393.5C 1069.43,1369.65 1083.09,1345.32 1096,1320.5C 1102.54,1304.66 1107.38,1288.33 1110.5,1271.5C 1127.34,1304.5 1141.17,1338.83 1152,1374.5C 1158.18,1397.58 1159.18,1420.91 1155,1444.5C 1151.17,1467.67 1146.83,1490.67 1142,1513.5C 1157.1,1483.88 1168.43,1452.88 1176,1420.5C 1178.75,1403.85 1177.42,1387.52 1172,1371.5C 1162.36,1339.9 1150.36,1309.23 1136,1279.5C 1135.93,1264.25 1137.93,1249.25 1142,1234.5C 1147.47,1214.92 1153.64,1195.59 1160.5,1176.5 Z"/></g>
<g><path style="opacity:1" fill="#242021" d="M 1145.5,1615.5 C 1159.48,1614.44 1173.15,1615.94 1186.5,1620C 1192.83,1622.8 1196.66,1627.63 1198,1634.5C 1201.97,1653.02 1203.13,1671.69 1201.5,1690.5C 1209.32,1700.5 1216.15,1711.16 1222,1722.5C 1225.88,1732.32 1224.88,1741.65 1219,1750.5C 1208.07,1767.43 1193.91,1780.93 1176.5,1791C 1162.45,1798.8 1148.78,1798.14 1135.5,1789C 1117.52,1777.36 1103.36,1762.19 1093,1743.5C 1091.53,1739.59 1090.36,1735.59 1089.5,1731.5C 1094.48,1715.87 1102.32,1701.87 1113,1689.5C 1114.16,1676.82 1115.49,1664.15 1117,1651.5C 1118.12,1642.34 1120.79,1633.68 1125,1625.5C 1126.5,1624 1128,1622.5 1129.5,1621C 1134.85,1618.83 1140.18,1617 1145.5,1615.5 Z"/></g>
<g><path style="opacity:1" fill="#fefefd" d="M 1148.5,1631.5 C 1156.56,1631.18 1164.56,1631.68 1172.5,1633C 1182.33,1636.13 1187.17,1642.97 1187,1653.5C 1188.12,1667.14 1188.78,1680.81 1189,1694.5C 1196.07,1704.97 1201.23,1716.3 1204.5,1728.5C 1199.19,1747.61 1188.52,1763.11 1172.5,1775C 1164.26,1781.4 1155.6,1782.06 1146.5,1777C 1132.75,1767.59 1122.25,1755.42 1115,1740.5C 1110.9,1732.64 1110.57,1724.64 1114,1716.5C 1117.82,1708.18 1122.16,1700.18 1127,1692.5C 1128.14,1680.16 1129.47,1667.83 1131,1655.5C 1131.75,1648.25 1134.25,1641.75 1138.5,1636C 1141.82,1634.17 1145.15,1632.67 1148.5,1631.5 Z"/></g>
<g><path style="opacity:1" fill="#242021" d="M 1360.5,1813.5 C 1393.73,1811.98 1425.73,1817.48 1456.5,1830C 1500.27,1850.37 1545.6,1866.37 1592.5,1878C 1608.4,1880.75 1624.4,1882.58 1640.5,1883.5C 1645.78,1904.38 1650.61,1925.38 1655,1946.5C 1659.67,1972.52 1668.67,1996.85 1682,2019.5C 1687.83,2026.67 1694.33,2033.17 1701.5,2039C 1698.17,2049.33 1694.83,2059.67 1691.5,2070C 1666.1,2072.93 1640.77,2071.93 1615.5,2067C 1584.51,2060.34 1554.51,2050.67 1525.5,2038C 1493.7,2023.1 1461.04,2010.44 1427.5,2000C 1385.2,1988.28 1342.87,1987.94 1300.5,1999C 1271.17,2009.33 1241.83,2019.67 1212.5,2030C 1198.11,2034.23 1183.44,2037.07 1168.5,2038.5C 1151.14,2036.74 1134.14,2033.24 1117.5,2028C 1095.76,2020.2 1074.09,2012.2 1052.5,2004C 1005.29,1987.65 957.624,1986.32 909.5,2000C 899.712,2002.6 890.045,2005.6 880.5,2009C 849.167,2022 817.833,2035 786.5,2048C 749.378,2062.74 710.878,2070.91 671,2072.5C 663.87,2071.72 656.703,2071.22 649.5,2071C 647.899,2070.73 646.399,2070.23 645,2069.5C 642.536,2060.44 639.869,2051.44 637,2042.5C 636.333,2040.83 636.333,2039.17 637,2037.5C 651.902,2025.58 662.569,2010.58 669,1992.5C 672.404,1982.95 675.404,1973.29 678,1963.5C 684.107,1936.79 690.274,1910.13 696.5,1883.5C 728.669,1884.41 760.335,1880.91 791.5,1873C 808.02,1868.27 824.353,1862.94 840.5,1857C 861.146,1846.84 882.146,1837.51 903.5,1829C 943.159,1816.78 983.493,1814.11 1024.5,1821C 1051.16,1825.58 1077.49,1831.58 1103.5,1839C 1108.62,1841.06 1113.62,1843.39 1118.5,1846C 1126.64,1852.13 1135.3,1857.46 1144.5,1862C 1156.91,1865.48 1169.25,1865.14 1181.5,1861C 1195.28,1855.27 1208.95,1849.27 1222.5,1843C 1267.56,1828.06 1313.56,1818.23 1360.5,1813.5 Z"/></g>
<g><path style="opacity:1" fill="#fefefd" d="M 958.5,1833.5 C 992.67,1832.15 1026.34,1835.65 1059.5,1844C 1072.54,1847.18 1085.54,1850.51 1098.5,1854C 1110.46,1859.64 1121.79,1866.31 1132.5,1874C 1138.23,1876.8 1144.23,1878.8 1150.5,1880C 1151.83,1909.77 1151.83,1939.6 1150.5,1969.5C 1079.16,1933.25 1003.49,1916.42 923.5,1919C 901.777,1920.35 880.777,1925.01 860.5,1933C 833.138,1944.85 806.138,1957.51 779.5,1971C 758.487,1980.75 736.487,1987.09 713.5,1990C 704.424,1990.91 695.424,1990.58 686.5,1989C 688.727,1983.65 690.56,1978.15 692,1972.5C 697.775,1948.12 703.609,1923.78 709.5,1899.5C 739.058,1899.83 768.058,1895.99 796.5,1888C 812.031,1883.6 827.364,1878.6 842.5,1873C 863.382,1863.39 884.382,1854.06 905.5,1845C 922.876,1839.16 940.542,1835.33 958.5,1833.5 Z"/></g>
<g><path style="opacity:1" fill="#fefefd" d="M 1362.5,1829.5 C 1391.41,1828.49 1419.41,1832.99 1446.5,1843C 1493.13,1864.77 1541.46,1881.77 1591.5,1894C 1603.45,1895.99 1615.45,1897.66 1627.5,1899C 1633.05,1920.71 1638.22,1942.54 1643,1964.5C 1645.44,1973.82 1648.27,1982.98 1651.5,1992C 1632.24,1993.79 1613.24,1992.12 1594.5,1987C 1582.97,1983.93 1571.64,1980.27 1560.5,1976C 1526.95,1961.39 1493.28,1947.06 1459.5,1933C 1420.57,1919.26 1380.57,1914.93 1339.5,1920C 1278.44,1925.89 1220.61,1942.72 1166,1970.5C 1165.5,1940.5 1165.33,1910.5 1165.5,1880.5C 1175.49,1879.34 1185.16,1876.84 1194.5,1873C 1216.65,1861.17 1239.99,1852.5 1264.5,1847C 1296.8,1838.23 1329.46,1832.4 1362.5,1829.5 Z"/></g>
<g><path style="opacity:1" fill="#fefefd" d="M 920.5,1932.5 C 982.218,1930.01 1041.88,1939.84 1099.5,1962C 1119.75,1969.87 1139.58,1978.71 1159,1988.5C 1199.24,1967.8 1241.41,1952.3 1285.5,1942C 1326.11,1933.27 1367.11,1930.6 1408.5,1934C 1423.52,1936.23 1438.19,1939.9 1452.5,1945C 1482.51,1956.84 1512.18,1969.51 1541.5,1983C 1566.93,1993.61 1593.26,2000.94 1620.5,2005C 1632.49,2006.53 1644.49,2006.87 1656.5,2006C 1659.87,2012.58 1663.37,2019.08 1667,2025.5C 1672.39,2032.05 1677.56,2038.72 1682.5,2045.5C 1681.88,2048.81 1680.88,2051.98 1679.5,2055C 1655.2,2056.67 1631.2,2054.67 1607.5,2049C 1589.79,2044.88 1572.46,2039.54 1555.5,2033C 1528.38,2021.94 1501.38,2010.61 1474.5,1999C 1437.32,1983.87 1398.65,1975.7 1358.5,1974.5C 1327.4,1975.27 1297.4,1981.44 1268.5,1993C 1243.44,2003.46 1217.77,2012.13 1191.5,2019C 1183.86,2020.38 1176.19,2021.55 1168.5,2022.5C 1152.84,2020.92 1137.5,2017.75 1122.5,2013C 1093.37,2002.07 1064.04,1991.73 1034.5,1982C 1002.78,1973.88 970.784,1972.55 938.5,1978C 907.958,1982.63 878.625,1991.29 850.5,2004C 816.435,2020.02 781.435,2033.69 745.5,2045C 716.737,2053.43 687.403,2056.76 657.5,2055C 655.823,2051.31 654.99,2047.48 655,2043.5C 666.577,2032.02 675.41,2018.69 681.5,2003.5C 707.021,2005.18 732.021,2002.02 756.5,1994C 768.054,1990.22 779.388,1985.89 790.5,1981C 814.258,1969.12 838.258,1957.79 862.5,1947C 881.265,1939.31 900.598,1934.48 920.5,1932.5 Z"/></g>
</svg>
