<?xml version="1.0" encoding="UTF-8"?>
<!DOCTYPE svg PUBLIC "-//W3C//DTD SVG 1.1//EN" "http://www.w3.org/Graphics/SVG/1.1/DTD/svg11.dtd">
<svg xmlns="http://www.w3.org/2000/svg" version="1.1" width="2025px" height="656px" style="shape-rendering:geometricPrecision; text-rendering:geometricPrecision; image-rendering:optimizeQuality; fill-rule:evenodd; clip-rule:evenodd" xmlns:xlink="http://www.w3.org/1999/xlink">
<g><path style="opacity:0.968" fill="#cc297a" d="M 736.5,102.5 C 736.194,88.2487 736.527,73.9153 737.5,59.5C 750.993,58.1363 759.493,63.803 763,76.5C 764.449,90.5127 758.115,99.5127 744,103.5C 741.462,102.951 738.962,102.618 736.5,102.5 Z"/></g>
<g><path style="opacity:0.976" fill="#e64a7e" d="M 737.5,59.5 C 736.527,73.9153 736.194,88.2487 736.5,102.5C 723.292,98.5062 717.792,89.1728 720,74.5C 723.289,66.3672 729.122,61.3672 737.5,59.5 Z"/></g>
<g><path style="opacity:0.985" fill="#d7367c" d="M 691.5,98.5 C 690.548,99.452 689.548,100.452 688.5,101.5C 687.914,101.291 687.414,100.957 687,100.5C 686.5,125.498 686.333,150.498 686.5,175.5C 683.833,176.833 681.167,176.833 678.5,175.5C 677.791,174.596 676.791,174.263 675.5,174.5C 674.857,149.624 674.19,124.791 673.5,100C 674.056,99.6174 674.389,99.1174 674.5,98.5C 680.42,97.6703 686.087,97.6703 691.5,98.5 Z"/></g>
<g><path style="opacity:0.974" fill="#cc287b" d="M 691.5,98.5 C 696.433,99.6323 701.1,101.966 705.5,105.5C 706.466,126.467 706.799,147.467 706.5,168.5C 703.862,170.615 700.528,172.615 696.5,174.5C 695.914,174.291 695.414,173.957 695,173.5C 692.495,175.954 689.661,176.62 686.5,175.5C 686.333,150.498 686.5,125.498 687,100.5C 687.414,100.957 687.914,101.291 688.5,101.5C 689.548,100.452 690.548,99.452 691.5,98.5 Z"/></g>
<g><path style="opacity:0.969" fill="#e1457e" d="M 674.5,98.5 C 674.389,99.1174 674.056,99.6174 673.5,100C 674.19,124.791 674.857,149.624 675.5,174.5C 676.791,174.263 677.791,174.596 678.5,175.5C 675.753,176.428 673.253,175.762 671,173.5C 669.192,173.888 667.525,173.888 666,173.5C 661.052,170.386 656.552,166.719 652.5,162.5C 653.496,162.586 654.329,162.252 655,161.5C 655.818,145.122 655.651,128.789 654.5,112.5C 655.859,110.482 657.193,108.482 658.5,106.5C 661.11,105.477 663.61,103.477 666,100.5C 666.333,100.833 666.667,101.167 667,101.5C 669.45,100.358 671.95,99.3578 674.5,98.5 Z"/></g>
<g><path style="opacity:0.885" fill="#be1777" d="M 705.5,105.5 C 709.441,107.772 712.775,110.772 715.5,114.5C 718.659,119.932 720.992,125.765 722.5,132C 723.259,146.905 717.926,159.071 706.5,168.5C 706.799,147.467 706.466,126.467 705.5,105.5 Z"/></g>
<g><path style="opacity:0.909" fill="#eb507f" d="M 658.5,106.5 C 657.193,108.482 655.859,110.482 654.5,112.5C 655.651,128.789 655.818,145.122 655,161.5C 654.329,162.252 653.496,162.586 652.5,162.5C 640.074,143.677 640.908,125.677 655,108.5C 655.816,107.177 656.983,106.511 658.5,106.5 Z"/></g>
<g><path style="opacity:0.998" fill="#d3327c" d="M 601.5,147.5 C 600.069,147.881 599.236,148.881 599,150.5C 598.5,169.497 598.333,188.497 598.5,207.5C 597.739,208.391 596.739,209.058 595.5,209.5C 592.916,208.607 590.249,208.274 587.5,208.5C 586.828,207.733 585.995,207.066 585,206.5C 584.566,186.009 584.4,165.676 584.5,145.5C 590.445,144.218 596.112,144.885 601.5,147.5 Z"/></g>
<g><path style="opacity:0.976" fill="#e2457e" d="M 584.5,145.5 C 584.4,165.676 584.566,186.009 585,206.5C 585.995,207.066 586.828,207.733 587.5,208.5C 572.196,206.383 562.529,197.55 558.5,182C 557.799,163.485 566.466,151.318 584.5,145.5 Z"/></g>
<g><path style="opacity:0.849" fill="#c21c78" d="M 601.5,147.5 C 615.943,153.562 623.277,164.395 623.5,180C 620.48,194.179 612.147,203.346 598.5,207.5C 598.333,188.497 598.5,169.497 599,150.5C 599.236,148.881 600.069,147.881 601.5,147.5 Z"/></g>
<g><path style="opacity:0.975" fill="#db3c7d" d="M 707.5,193.5 C 706.847,210.103 706.18,226.77 705.5,243.5C 704.478,243.855 703.811,244.522 703.5,245.5C 701.459,245.146 699.626,245.146 698,245.5C 696.729,244.117 695.229,243.117 693.5,242.5C 693.5,226.833 693.5,211.167 693.5,195.5C 697.933,193.699 702.6,193.033 707.5,193.5 Z"/></g>
<g><path style="opacity:0.994" fill="#0071a2" d="M 115.5,195.5 C 115.5,234.5 115.5,273.5 115.5,312.5C 113.5,312.5 111.5,312.5 109.5,312.5C 102.422,312.064 95.7557,310.397 89.5,307.5C 91.1667,307.5 92.8333,307.5 94.5,307.5C 94.8295,272.26 94.4961,237.094 93.5,202C 94.1258,201.25 94.6258,200.416 95,199.5C 95.3333,199.833 95.6667,200.167 96,200.5C 96.4828,199.552 96.6495,198.552 96.5,197.5C 102.815,196.687 109.148,196.021 115.5,195.5 Z"/></g>
<g><path style="opacity:0.991" fill="#8d469c" d="M 405.5,205.5 C 404.909,206.151 404.243,206.818 403.5,207.5C 404.812,240.177 404.812,272.511 403.5,304.5C 403.5,303.833 403.167,303.5 402.5,303.5C 396.703,290.628 389.87,278.295 382,266.5C 379.564,263.553 376.731,261.22 373.5,259.5C 369.521,255.506 364.855,252.506 359.5,250.5C 358.005,250.011 356.671,249.345 355.5,248.5C 357.467,248.261 359.301,248.594 361,249.5C 361.824,233.259 361.658,217.093 360.5,201C 361.731,199.595 363.064,198.429 364.5,197.5C 370.889,195.873 377.389,195.207 384,195.5C 388.709,197.429 393.543,199.262 398.5,201C 400.492,201.574 401.992,202.741 403,204.5C 403.333,204.167 403.667,203.833 404,203.5C 404.278,204.416 404.778,205.082 405.5,205.5 Z"/></g>
<g><path style="opacity:0.995" fill="#007dae" d="M 115.5,195.5 C 124.744,195.976 133.41,198.31 141.5,202.5C 140.448,202.351 139.448,202.517 138.5,203C 138.833,203.333 139.167,203.667 139.5,204C 138.83,241.833 138.164,279.667 137.5,317.5C 136.167,317.5 134.833,317.5 133.5,317.5C 125.379,316.413 117.379,314.746 109.5,312.5C 111.5,312.5 113.5,312.5 115.5,312.5C 115.5,273.5 115.5,234.5 115.5,195.5 Z"/></g>
<g><path style="opacity:0.946" fill="#c62179" d="M 707.5,193.5 C 719.095,194.924 726.595,201.258 730,212.5C 732.175,228.492 725.842,239.492 711,245.5C 708.637,244.768 706.137,244.768 703.5,245.5C 703.811,244.522 704.478,243.855 705.5,243.5C 706.18,226.77 706.847,210.103 707.5,193.5 Z"/></g>
<g><path style="opacity:0.99" fill="#006797" d="M 96.5,197.5 C 96.6495,198.552 96.4828,199.552 96,200.5C 95.6667,200.167 95.3333,199.833 95,199.5C 94.6258,200.416 94.1258,201.25 93.5,202C 94.4961,237.094 94.8295,272.26 94.5,307.5C 92.8333,307.5 91.1667,307.5 89.5,307.5C 86.7223,306.032 83.7223,305.199 80.5,305C 79.944,304.617 79.6107,304.117 79.5,303.5C 80.4959,303.586 81.3292,303.252 82,302.5C 82.8187,270.81 82.652,239.144 81.5,207.5C 82.2255,206.133 82.8921,204.8 83.5,203.5C 87.5565,201.136 91.8898,199.136 96.5,197.5 Z"/></g>
<g><path style="opacity:0.975" fill="#e64b7e" d="M 693.5,195.5 C 693.5,211.167 693.5,226.833 693.5,242.5C 690.662,241.83 688.162,240.496 686,238.5C 674.691,225.741 674.857,212.908 686.5,200C 688.522,197.991 690.855,196.491 693.5,195.5 Z"/></g>
<g><path style="opacity:0.988" fill="#803996" d="M 364.5,197.5 C 363.064,198.429 361.731,199.595 360.5,201C 361.658,217.093 361.824,233.259 361,249.5C 359.301,248.594 357.467,248.261 355.5,248.5C 341.673,244.553 327.84,244.553 314,248.5C 313.098,248.257 312.265,247.923 311.5,247.5C 315.746,239.994 319.579,232.661 323,225.5C 332.998,210.577 346.832,201.244 364.5,197.5 Z"/></g>
<g><path style="opacity:0.991" fill="#005e8e" d="M 83.5,203.5 C 82.8921,204.8 82.2255,206.133 81.5,207.5C 82.652,239.144 82.8187,270.81 82,302.5C 81.3292,303.252 80.4959,303.586 79.5,303.5C 73.716,301.772 68.0493,299.772 62.5,297.5C 62.5,296.833 62.5,296.167 62.5,295.5C 62.313,293.436 61.813,291.436 61,289.5C 60.5393,267.657 60.3727,245.991 60.5,224.5C 65.9739,215.023 73.6406,208.023 83.5,203.5 Z"/></g>
<g><path style="opacity:0.991" fill="#944da0" d="M 430.5,235.5 C 429.175,234.047 428.342,234.381 428,236.5C 427.667,235.167 427.333,233.833 427,232.5C 426.333,270.833 426.333,309.167 427,347.5C 427.333,310.833 427.667,274.167 428,237.5C 428.831,275.669 428.664,313.669 427.5,351.5C 424.908,345.304 421.575,339.637 417.5,334.5C 412.847,324.526 408.181,314.526 403.5,304.5C 404.812,272.511 404.812,240.177 403.5,207.5C 404.243,206.818 404.909,206.151 405.5,205.5C 410.457,208.164 415.29,211.83 420,216.5C 424.586,223.24 428.086,229.573 430.5,235.5 Z"/></g>
<g><path style="opacity:0.987" fill="#018abb" d="M 141.5,202.5 C 149.695,206.695 156.695,212.362 162.5,219.5C 161.5,219.5 160.5,219.5 159.5,219.5C 159.5,252.167 159.5,284.833 159.5,317.5C 166.5,317.5 173.5,317.5 180.5,317.5C 170.347,318.494 160.014,318.828 149.5,318.5C 145.534,317.838 141.534,317.505 137.5,317.5C 138.164,279.667 138.83,241.833 139.5,204C 139.167,203.667 138.833,203.333 138.5,203C 139.448,202.517 140.448,202.351 141.5,202.5 Z"/></g>
<g><path style="opacity:0.956" fill="#e2457d" d="M 624.5,217.5 C 624.5,229.5 624.5,241.5 624.5,253.5C 626.735,253.205 628.735,253.539 630.5,254.5C 611.325,252.48 605.159,242.48 612,224.5C 615.045,221.453 618.378,218.787 622,216.5C 622.671,217.252 623.504,217.586 624.5,217.5 Z"/></g>
<g><path style="opacity:0.983" fill="#0194c5" d="M 162.5,219.5 C 169.621,230.742 175.954,242.408 181.5,254.5C 181.333,274.836 181.5,295.169 182,315.5C 184.719,316.444 187.552,316.777 190.5,316.5C 190.158,317.338 189.492,317.672 188.5,317.5C 185.833,317.5 183.167,317.5 180.5,317.5C 173.5,317.5 166.5,317.5 159.5,317.5C 159.5,284.833 159.5,252.167 159.5,219.5C 160.5,219.5 161.5,219.5 162.5,219.5 Z"/></g>
<g><path style="opacity:0.71" fill="#c72379" d="M 630.5,254.5 C 628.735,253.539 626.735,253.205 624.5,253.5C 624.5,241.5 624.5,229.5 624.5,217.5C 627.448,217.777 630.281,217.444 633,216.5C 646.678,223.381 650.011,233.381 643,246.5C 639.465,250.21 635.299,252.877 630.5,254.5 Z"/></g>
<g><path style="opacity:0.907" fill="#035183" d="M 60.5,224.5 C 60.3727,245.991 60.5393,267.657 61,289.5C 61.813,291.436 62.313,293.436 62.5,295.5C 60.1358,292.477 57.9692,289.144 56,285.5C 54.3659,280.477 52.5326,275.144 50.5,269.5C 50.5387,262.364 50.5387,255.198 50.5,248C 51.9545,240.293 54.9545,233.293 59.5,227C 58.434,225.841 58.7673,225.008 60.5,224.5 Z"/></g>
<g><path style="opacity:0.993" fill="#9a54a2" d="M 430.5,235.5 C 434.887,242.635 438.553,249.801 441.5,257C 445.658,263.49 448.991,269.99 451.5,276.5C 450.425,275.438 449.425,275.438 448.5,276.5C 449.813,314.685 449.813,353.018 448.5,391.5C 441.911,379.213 435.244,366.88 428.5,354.5C 428.443,353.391 428.11,352.391 427.5,351.5C 428.664,313.669 428.831,275.669 428,237.5C 427.667,274.167 427.333,310.833 427,347.5C 426.333,309.167 426.333,270.833 427,232.5C 427.333,233.833 427.667,235.167 428,236.5C 428.342,234.381 429.175,234.047 430.5,235.5 Z"/></g>
<g><path style="opacity:1" fill="#5287c1" d="M 355.5,248.5 C 356.671,249.345 358.005,250.011 359.5,250.5C 349.869,270.865 340.703,291.532 332,312.5C 331.667,312.833 331.333,313.167 331,313.5C 327.263,310.886 324.097,307.719 321.5,304C 319.283,302.277 316.95,300.777 314.5,299.5C 311.833,298.167 309.167,296.833 306.5,295.5C 300.965,293.366 295.298,291.7 289.5,290.5C 291.199,286.552 293.532,283.052 296.5,280C 295.366,278.984 295.699,278.317 297.5,278C 297.167,277.667 296.833,277.333 296.5,277C 302.342,267.144 307.342,257.311 311.5,247.5C 312.265,247.923 313.098,248.257 314,248.5C 327.84,244.553 341.673,244.553 355.5,248.5 Z"/></g>
<g><path style="opacity:0.967" fill="#911d66" d="M 662.5,257.5 C 680.516,261.146 691.183,272.813 694.5,292.5C 694.852,297.486 694.352,302.486 693,307.5C 691.422,312.23 689.088,316.564 686,320.5C 679.55,327.119 673.05,333.453 666.5,339.5C 665.502,313.005 665.169,286.339 665.5,259.5C 663.821,259.715 662.821,259.048 662.5,257.5 Z"/></g>
<g><path style="opacity:0.99" fill="#bb1677" d="M 576.5,249.5 C 576.512,314.685 576.512,380.019 576.5,445.5C 578.415,445.216 580.081,445.549 581.5,446.5C 567.628,448.21 554.962,445.21 543.5,437.5C 542.185,395.943 542.185,354.11 543.5,312C 542.809,310.933 542.309,309.766 542,308.5C 541.329,309.252 540.496,309.586 539.5,309.5C 543.694,302.907 547.361,296.407 550.5,290C 550.167,289.667 549.833,289.333 549.5,289C 551.054,286.776 552.054,284.276 552.5,281.5C 552.291,280.914 551.957,280.414 551.5,280C 552.323,278.066 553.323,276.066 554.5,274C 554.265,273.127 553.931,272.293 553.5,271.5C 556.654,258.864 564.32,251.531 576.5,249.5 Z"/></g>
<g><path style="opacity:0.98" fill="#9d1b6b" d="M 662.5,257.5 C 662.821,259.048 663.821,259.715 665.5,259.5C 665.169,286.339 665.502,313.005 666.5,339.5C 663.401,345.457 659.734,351.623 655.5,358C 655.833,358.333 656.167,358.667 656.5,359C 648.456,373.469 640.456,388.303 632.5,403.5C 631.538,401.014 630.705,401.014 630,403.5C 629.829,375.595 629.329,347.761 628.5,320C 629.158,307.229 629.825,294.396 630.5,281.5C 631.333,319.162 631.833,356.829 632,394.5C 632.5,356.501 632.667,318.501 632.5,280.5C 630.64,279.929 628.973,279.929 627.5,280.5C 627.062,280.565 626.728,280.399 626.5,280C 633.79,265.086 645.79,257.586 662.5,257.5 Z"/></g>
<g><path style="opacity:0.86" fill="#fefffe" d="M 1281.5,267.5 C 1295.8,266.464 1309.8,267.964 1323.5,272C 1325.97,273.216 1327.97,274.883 1329.5,277C 1327.76,281.139 1325.76,285.139 1323.5,289C 1316.88,287.578 1310.21,285.911 1303.5,284C 1279.44,279.777 1262.28,288.61 1252,310.5C 1250.38,314.347 1249.38,318.347 1249,322.5C 1245.09,342.515 1249.59,360.181 1262.5,375.5C 1271.37,382.977 1281.7,386.644 1293.5,386.5C 1303.99,385.735 1314.32,384.068 1324.5,381.5C 1324.5,386.833 1324.5,392.167 1324.5,397.5C 1305.62,402.158 1286.62,402.658 1267.5,399C 1246.32,390.796 1234.48,375.296 1232,352.5C 1228.37,331.454 1231.37,311.454 1241,292.5C 1243.5,289.333 1246,286.167 1248.5,283C 1254.17,279.333 1259.83,275.667 1265.5,272C 1270.87,270.16 1276.21,268.66 1281.5,267.5 Z"/></g>
<g><path style="opacity:0.85" fill="#fefffe" d="M 1691.5,267.5 C 1706.58,266.237 1721.25,268.071 1735.5,273C 1736.99,273.745 1737.99,274.912 1738.5,276.5C 1737.43,280.197 1736.27,283.864 1735,287.5C 1734.48,288.516 1733.65,289.182 1732.5,289.5C 1717.86,283.119 1702.86,281.952 1687.5,286C 1680.9,289.187 1677.57,294.521 1677.5,302C 1677.54,308.404 1680.2,313.404 1685.5,317C 1689.24,319.732 1693.24,322.066 1697.5,324C 1710.81,327.572 1722.98,333.406 1734,341.5C 1741.06,351.393 1743.4,362.393 1741,374.5C 1735.63,389.86 1724.79,398.693 1708.5,401C 1698.17,401.667 1687.83,401.667 1677.5,401C 1671.68,400.303 1666.01,398.969 1660.5,397C 1658.57,391.464 1657.91,385.631 1658.5,379.5C 1667.67,382.292 1677,384.458 1686.5,386C 1697.41,387.676 1707.75,386.009 1717.5,381C 1725.9,372.208 1726.57,362.875 1719.5,353C 1708.55,345.231 1696.55,339.565 1683.5,336C 1672.88,331.216 1665.55,323.382 1661.5,312.5C 1657.78,288.251 1667.78,273.251 1691.5,267.5 Z"/></g>
<g><path style="opacity:0.873" fill="#fefffe" d="M 1493.5,268.5 C 1498.83,268.5 1504.17,268.5 1509.5,268.5C 1513.37,280.575 1517.53,292.575 1522,304.5C 1534.41,335.894 1546.91,367.227 1559.5,398.5C 1553.28,399.809 1547.11,399.809 1541,398.5C 1536.37,385.245 1531.2,372.245 1525.5,359.5C 1508.85,358.501 1492.18,358.167 1475.5,358.5C 1470.84,372.156 1466.17,385.822 1461.5,399.5C 1455.5,399.5 1449.5,399.5 1443.5,399.5C 1454.61,371.019 1465.44,342.352 1476,313.5C 1482.71,298.862 1488.55,283.862 1493.5,268.5 Z M 1500.5,291.5 C 1507.43,308.767 1514.09,326.267 1520.5,344C 1507.82,344.833 1495.15,344.666 1482.5,343.5C 1489.11,326.346 1495.11,309.013 1500.5,291.5 Z"/></g>
<g><path style="opacity:0.906" fill="#fefffe" d="M 1575.5,268.5 C 1599.83,268.5 1624.17,268.5 1648.5,268.5C 1648.5,273.5 1648.5,278.5 1648.5,283.5C 1629.5,283.5 1610.5,283.5 1591.5,283.5C 1591.5,298.833 1591.5,314.167 1591.5,329.5C 1609.5,329.5 1627.5,329.5 1645.5,329.5C 1645.8,334.43 1645.47,339.263 1644.5,344C 1626.84,344.5 1609.17,344.667 1591.5,344.5C 1591.5,362.833 1591.5,381.167 1591.5,399.5C 1586.17,399.5 1580.83,399.5 1575.5,399.5C 1575.5,355.833 1575.5,312.167 1575.5,268.5 Z"/></g>
<g><path style="opacity:0.93" fill="#fefffe" d="M 963.5,269.5 C 988.833,269.5 1014.17,269.5 1039.5,269.5C 1039.5,277.5 1039.5,285.5 1039.5,293.5C 1023.83,293.5 1008.17,293.5 992.5,293.5C 992.5,302.833 992.5,312.167 992.5,321.5C 1007.17,321.5 1021.83,321.5 1036.5,321.5C 1036.5,329.5 1036.5,337.5 1036.5,345.5C 1021.83,345.5 1007.17,345.5 992.5,345.5C 992.5,355.833 992.5,366.167 992.5,376.5C 1008.17,376.5 1023.83,376.5 1039.5,376.5C 1039.5,384.5 1039.5,392.5 1039.5,400.5C 1014.17,400.5 988.833,400.5 963.5,400.5C 963.5,356.833 963.5,313.167 963.5,269.5 Z"/></g>
<g><path style="opacity:0.93" fill="#fefffe" d="M 1063.5,269.5 C 1084.53,269.126 1105.53,269.626 1126.5,271C 1136.14,272.877 1144.64,277.044 1152,283.5C 1159.6,297.696 1159.27,311.696 1151,325.5C 1148.09,328.087 1144.92,330.254 1141.5,332C 1150.67,334.5 1156.5,340.333 1159,349.5C 1164.85,377.348 1154.01,394.181 1126.5,400C 1105.5,400.5 1084.5,400.667 1063.5,400.5C 1063.5,356.833 1063.5,313.167 1063.5,269.5 Z M 1092.5,293.5 C 1101.93,293.453 1111.27,294.286 1120.5,296C 1127.87,301.068 1129.37,307.568 1125,315.5C 1121.21,318.101 1117.04,319.934 1112.5,321C 1105.84,321.5 1099.17,321.666 1092.5,321.5C 1092.5,312.167 1092.5,302.833 1092.5,293.5 Z M 1092.5,344.5 C 1102.29,344.144 1111.96,344.977 1121.5,347C 1130.86,352.235 1133.03,359.735 1128,369.5C 1126.06,372.106 1123.56,373.939 1120.5,375C 1111.22,376.353 1101.89,376.853 1092.5,376.5C 1092.5,365.833 1092.5,355.167 1092.5,344.5 Z"/></g>
<g><path style="opacity:0.878" fill="#fefffe" d="M 1350.5,269.5 C 1367.5,269.333 1384.5,269.5 1401.5,270C 1422.52,273.356 1433.19,285.689 1433.5,307C 1433.59,318.143 1429.59,327.476 1421.5,335C 1417.29,337.602 1412.96,339.936 1408.5,342C 1419.28,360.385 1430.44,378.551 1442,396.5C 1442.48,397.448 1442.65,398.448 1442.5,399.5C 1435.58,399.812 1428.74,399.479 1422,398.5C 1411.69,381.895 1401.86,364.895 1392.5,347.5C 1384.19,346.502 1375.86,346.169 1367.5,346.5C 1367.5,364.167 1367.5,381.833 1367.5,399.5C 1361.83,399.5 1356.17,399.5 1350.5,399.5C 1350.5,356.167 1350.5,312.833 1350.5,269.5 Z M 1367.5,284.5 C 1376.17,284.334 1384.84,284.5 1393.5,285C 1414.44,288.34 1421.11,300.006 1413.5,320C 1409.16,326.178 1403.16,329.844 1395.5,331C 1386.17,331.5 1376.84,331.666 1367.5,331.5C 1367.5,315.833 1367.5,300.167 1367.5,284.5 Z"/></g>
<g><path style="opacity:0.878" fill="#fefffe" d="M 1765.5,269.5 C 1790.17,269.5 1814.83,269.5 1839.5,269.5C 1839.5,274.5 1839.5,279.5 1839.5,284.5C 1820.83,284.5 1802.17,284.5 1783.5,284.5C 1783.5,297.833 1783.5,311.167 1783.5,324.5C 1800.83,324.5 1818.17,324.5 1835.5,324.5C 1835.5,329.167 1835.5,333.833 1835.5,338.5C 1818.17,338.5 1800.83,338.5 1783.5,338.5C 1783.5,353.833 1783.5,369.167 1783.5,384.5C 1802.17,384.5 1820.83,384.5 1839.5,384.5C 1839.5,389.5 1839.5,394.5 1839.5,399.5C 1814.83,399.5 1790.17,399.5 1765.5,399.5C 1765.5,356.167 1765.5,312.833 1765.5,269.5 Z"/></g>
<g><path style="opacity:0.873" fill="#fefffe" d="M 1865.5,269.5 C 1884.54,269.079 1903.54,269.579 1922.5,271C 1945.17,278.487 1953.67,293.987 1948,317.5C 1946.5,323.998 1943.34,329.498 1938.5,334C 1933.83,336.667 1929.17,339.333 1924.5,342C 1934.03,356.885 1943.2,372.052 1952,387.5C 1954.14,391.444 1955.97,395.444 1957.5,399.5C 1950.91,399.811 1944.41,399.478 1938,398.5C 1927.81,381.432 1917.64,364.432 1907.5,347.5C 1899.19,346.502 1890.86,346.169 1882.5,346.5C 1882.5,364.167 1882.5,381.833 1882.5,399.5C 1876.83,399.5 1871.17,399.5 1865.5,399.5C 1865.5,356.167 1865.5,312.833 1865.5,269.5 Z M 1882.5,284.5 C 1891.17,284.334 1899.84,284.5 1908.5,285C 1923.31,285.315 1930.98,292.815 1931.5,307.5C 1931.51,321.661 1924.51,329.494 1910.5,331C 1901.17,331.5 1891.84,331.666 1882.5,331.5C 1882.5,315.833 1882.5,300.167 1882.5,284.5 Z"/></g>
<g><path style="opacity:0.915" fill="#fefffe" d="M 774.5,270.5 C 784.083,270.182 793.583,270.515 803,271.5C 809.896,302.549 816.896,333.549 824,364.5C 831.22,332.952 839.054,301.619 847.5,270.5C 856.857,270.168 866.19,270.502 875.5,271.5C 881.201,294.637 887.367,317.637 894,340.5C 895.924,349.453 897.591,358.453 899,367.5C 905.096,334.845 912.263,302.512 920.5,270.5C 930.19,270.168 939.856,270.502 949.5,271.5C 937.75,314.169 927.083,357.169 917.5,400.5C 905.919,400.821 894.419,400.488 883,399.5C 875.806,369.725 868.473,340.059 861,310.5C 854.755,340.808 847.589,370.808 839.5,400.5C 828.48,400.832 817.48,400.499 806.5,399.5C 794.681,356.561 784.015,313.561 774.5,270.5 Z"/></g>
<g><path style="opacity:0.987" fill="#9f5aa5" d="M 451.5,276.5 C 459.177,290.344 466.51,304.344 473.5,318.5C 471.669,317.948 470.003,317.948 468.5,318.5C 469.327,353.792 469.827,389.125 470,424.5C 470.333,390.5 470.667,356.5 471,322.5C 471.5,356.832 471.667,391.165 471.5,425.5C 477.699,425.652 483.699,426.318 489.5,427.5C 482.833,427.5 476.167,427.5 469.5,427.5C 468.167,427.5 466.833,427.5 465.5,427.5C 459.833,415.5 454.167,403.5 448.5,391.5C 449.813,353.018 449.813,314.685 448.5,276.5C 449.425,275.438 450.425,275.438 451.5,276.5 Z"/></g>
<g><path style="opacity:1" fill="#647bb0" d="M 373.5,259.5 C 376.731,261.22 379.564,263.553 382,266.5C 389.87,278.295 396.703,290.628 402.5,303.5C 402.357,305.262 402.691,306.929 403.5,308.5C 392.179,333.812 380.845,359.145 369.5,384.5C 370.127,385.417 370.461,386.417 370.5,387.5C 360.549,369.262 350.882,350.928 341.5,332.5C 352.454,308.262 363.121,283.929 373.5,259.5 Z"/></g>
<g><path style="opacity:0.963" fill="#a41a6d" d="M 632.5,403.5 C 628.329,413.488 622.995,423.821 616.5,434.5C 615.833,434.5 615.167,434.5 614.5,434.5C 612.668,435.248 611.001,436.248 609.5,437.5C 609.5,436.5 609.5,435.5 609.5,434.5C 610.5,434.5 611.5,434.5 612.5,434.5C 612.5,406.167 612.5,377.833 612.5,349.5C 614.355,349.728 615.188,349.061 615,347.5C 613.701,347.034 612.201,347.034 610.5,347.5C 618.222,342.11 622.555,335.277 623.5,327C 624.5,324 625.5,321 626.5,318C 625.167,315 625.167,312 626.5,309C 625.566,305.902 624.566,302.736 623.5,299.5C 624.833,296.5 624.833,293.5 623.5,290.5C 624.539,286.972 625.872,283.639 627.5,280.5C 628.973,279.929 630.64,279.929 632.5,280.5C 632.667,318.501 632.5,356.501 632,394.5C 631.833,356.829 631.333,319.162 630.5,281.5C 629.825,294.396 629.158,307.229 628.5,320C 629.329,347.761 629.829,375.595 630,403.5C 630.705,401.014 631.538,401.014 632.5,403.5 Z"/></g>
<g><path style="opacity:0.953" fill="#10a2d5" d="M 181.5,254.5 C 188.98,269.134 196.646,283.634 204.5,298C 216.592,322.526 229.592,347.526 243.5,373C 243.167,373.333 242.833,373.667 242.5,374C 243.691,374.698 244.691,375.531 245.5,376.5C 245.784,378.415 245.451,380.081 244.5,381.5C 241.912,377.326 239.579,372.993 237.5,368.5C 232.981,359.621 228.648,350.621 224.5,341.5C 221.798,335.569 218.632,329.902 215,324.5C 213.57,321.647 212.737,318.647 212.5,315.5C 205.173,315.944 197.84,316.277 190.5,316.5C 187.552,316.777 184.719,316.444 182,315.5C 181.5,295.169 181.333,274.836 181.5,254.5 Z"/></g>
<g><path style="opacity:0.995" fill="#6a77aa" d="M 289.5,290.5 C 295.298,291.7 300.965,293.366 306.5,295.5C 306.355,372.929 306.521,450.262 307,527.5C 307.671,526.748 308.504,526.414 309.5,526.5C 303.736,538.813 296.403,549.48 287.5,558.5C 287.826,473.372 287.492,388.038 286.5,302.5C 285.056,303.981 284.389,303.648 284.5,301.5C 285.893,297.714 287.559,294.048 289.5,290.5 Z"/></g>
<g><path style="opacity:0.994" fill="#657aaf" d="M 306.5,295.5 C 309.167,296.833 311.833,298.167 314.5,299.5C 314.831,369.738 314.498,439.904 313.5,510C 314.814,510.985 315.814,512.152 316.5,513.5C 314.345,517.999 312.011,522.332 309.5,526.5C 308.504,526.414 307.671,526.748 307,527.5C 306.521,450.262 306.355,372.929 306.5,295.5 Z"/></g>
<g><path style="opacity:0.99" fill="#7171a3" d="M 284.5,301.5 C 284.389,303.648 285.056,303.981 286.5,302.5C 287.492,388.038 287.826,473.372 287.5,558.5C 285.785,560.882 283.785,562.882 281.5,564.5C 280.167,564.5 278.833,564.5 277.5,564.5C 277.832,483.263 277.498,402.096 276.5,321C 277.328,320.085 278.328,319.419 279.5,319C 278.027,318.29 277.36,317.124 277.5,315.5C 278.068,311.763 279.735,308.596 282.5,306C 282.167,305.667 281.833,305.333 281.5,305C 282.394,303.896 283.394,302.73 284.5,301.5 Z"/></g>
<g><path style="opacity:0.994" fill="#5e7fb6" d="M 359.5,250.5 C 364.855,252.506 369.521,255.506 373.5,259.5C 363.121,283.929 352.454,308.262 341.5,332.5C 340.024,330.231 338.524,327.898 337,325.5C 336.826,373.029 336.326,420.529 335.5,468C 335.645,468.772 335.978,469.439 336.5,470C 335.572,470.388 334.905,471.055 334.5,472C 334.93,472.965 335.596,473.465 336.5,473.5C 335.821,476.388 334.488,478.888 332.5,481C 332.833,481.333 333.167,481.667 333.5,482C 327.355,492.294 321.688,502.794 316.5,513.5C 315.814,512.152 314.814,510.985 313.5,510C 314.498,439.904 314.831,369.738 314.5,299.5C 316.95,300.777 319.283,302.277 321.5,304C 324.097,307.719 327.263,310.886 331,313.5C 331.333,313.167 331.667,312.833 332,312.5C 340.703,291.532 349.869,270.865 359.5,250.5 Z"/></g>
<g><path style="opacity:0.986" fill="#c5157a" d="M 543.5,437.5 C 542.041,437.567 540.708,437.234 539.5,436.5C 533.49,431.654 528.323,425.987 524,419.5C 518.509,407.85 512.509,396.517 506,385.5C 504.921,382.937 504.421,380.271 504.5,377.5C 516.483,354.65 528.15,331.983 539.5,309.5C 540.496,309.586 541.329,309.252 542,308.5C 542.309,309.766 542.809,310.933 543.5,312C 542.185,354.11 542.185,395.943 543.5,437.5 Z"/></g>
<g><path style="opacity:0.984" fill="#5386c0" d="M 62.5,297.5 C 68.0493,299.772 73.716,301.772 79.5,303.5C 79.6107,304.117 79.944,304.617 80.5,305C 83.7223,305.199 86.7223,306.032 89.5,307.5C 95.7557,310.397 102.422,312.064 109.5,312.5C 117.379,314.746 125.379,316.413 133.5,317.5C 132.099,317.971 130.766,318.638 129.5,319.5C 120.367,336.103 111.534,352.769 103,369.5C 102.838,371.454 102.671,373.121 102.5,374.5C 89.5058,350.227 76.1724,324.56 62.5,297.5 Z"/></g>
<g><path style="opacity:0.994" fill="#6779ad" d="M 224.5,341.5 C 222.665,340.878 221.498,339.544 221,337.5C 220.667,337.833 220.333,338.167 220,338.5C 219.667,336.833 219.333,335.167 219,333.5C 213.533,342.102 208.866,351.102 205,360.5C 203.333,362.5 201.667,364.5 200,366.5C 196.069,374.752 191.735,382.752 187,390.5C 175.288,413.526 163.621,436.526 152,459.5C 151.282,458.549 150.449,458.383 149.5,459C 150.21,461.418 150.21,463.918 149.5,466.5C 143.625,454.646 137.292,441.979 130.5,428.5C 131.452,427.548 132.452,426.548 133.5,425.5C 151.824,389.52 170.157,353.52 188.5,317.5C 189.492,317.672 190.158,317.338 190.5,316.5C 197.84,316.277 205.173,315.944 212.5,315.5C 212.737,318.647 213.57,321.647 215,324.5C 218.632,329.902 221.798,335.569 224.5,341.5 Z"/></g>
<g><path style="opacity:0.994" fill="#607eb4" d="M 180.5,317.5 C 183.167,317.5 185.833,317.5 188.5,317.5C 170.157,353.52 151.824,389.52 133.5,425.5C 132.452,426.548 131.452,427.548 130.5,428.5C 125.589,421.001 121.589,413.335 118.5,405.5C 132.15,376.701 146.483,348.201 161.5,320C 157.312,319.824 153.312,319.324 149.5,318.5C 160.014,318.828 170.347,318.494 180.5,317.5 Z"/></g>
<g><path style="opacity:0.993" fill="#6d74a7" d="M 402.5,303.5 C 403.167,303.5 403.5,303.833 403.5,304.5C 408.181,314.526 412.847,324.526 417.5,334.5C 416.685,335.429 415.852,336.429 415,337.5C 405.607,361.275 395.44,384.608 384.5,407.5C 382.955,408.452 381.288,408.785 379.5,408.5C 378.496,405.907 376.83,403.241 374.5,400.5C 374.24,395.78 372.906,391.446 370.5,387.5C 370.461,386.417 370.127,385.417 369.5,384.5C 380.845,359.145 392.179,333.812 403.5,308.5C 402.691,306.929 402.357,305.262 402.5,303.5 Z"/></g>
<g><path style="opacity:0.987" fill="#5a82b9" d="M 133.5,317.5 C 134.833,317.5 136.167,317.5 137.5,317.5C 141.534,317.505 145.534,317.838 149.5,318.5C 153.312,319.324 157.312,319.824 161.5,320C 146.483,348.201 132.15,376.701 118.5,405.5C 112.252,395.206 106.919,384.873 102.5,374.5C 102.671,373.121 102.838,371.454 103,369.5C 111.534,352.769 120.367,336.103 129.5,319.5C 130.766,318.638 132.099,317.971 133.5,317.5 Z"/></g>
<g><path style="opacity:0.988" fill="#a661a8" d="M 473.5,318.5 C 480.329,331.251 487.329,344.417 494.5,358C 494.167,358.333 493.833,358.667 493.5,359C 495.167,361.333 496.833,363.667 498.5,366C 498.167,366.333 497.833,366.667 497.5,367C 500.216,370.271 502.549,373.771 504.5,377.5C 504.421,380.271 504.921,382.937 506,385.5C 512.509,396.517 518.509,407.85 524,419.5C 528.323,425.987 533.49,431.654 539.5,436.5C 527.173,433.303 514.839,430.636 502.5,428.5C 498.366,427.515 494.032,427.182 489.5,427.5C 483.699,426.318 477.699,425.652 471.5,425.5C 471.667,391.165 471.5,356.832 471,322.5C 470.667,356.5 470.333,390.5 470,424.5C 469.827,389.125 469.327,353.792 468.5,318.5C 470.003,317.948 471.669,317.948 473.5,318.5 Z"/></g>
<g><path style="opacity:0.988" fill="#5387c0" d="M 341.5,332.5 C 350.882,350.928 360.549,369.262 370.5,387.5C 372.906,391.446 374.24,395.78 374.5,400.5C 362.429,424.666 349.762,449 336.5,473.5C 335.596,473.465 334.93,472.965 334.5,472C 334.905,471.055 335.572,470.388 336.5,470C 335.978,469.439 335.645,468.772 335.5,468C 336.326,420.529 336.826,373.029 337,325.5C 338.524,327.898 340.024,330.231 341.5,332.5 Z"/></g>
<g><path style="opacity:0.999" fill="#af1872" d="M 610.5,347.5 C 612.201,347.034 613.701,347.034 615,347.5C 615.188,349.061 614.355,349.728 612.5,349.5C 612.5,377.833 612.5,406.167 612.5,434.5C 611.5,434.5 610.5,434.5 609.5,434.5C 609.5,435.5 609.5,436.5 609.5,437.5C 600.824,442.503 591.49,445.503 581.5,446.5C 580.081,445.549 578.415,445.216 576.5,445.5C 576.512,380.019 576.512,314.685 576.5,249.5C 590.64,248.103 600.64,254.269 606.5,268C 607.595,273.591 607.595,279.425 606.5,285.5C 603.4,292.555 598.4,297.721 591.5,301C 587.336,304.838 584.67,309.505 583.5,315C 583.655,319.689 583.655,324.356 583.5,329C 586.17,337.517 591.336,344.017 599,348.5C 603.007,348.583 606.841,348.25 610.5,347.5 Z"/></g>
<g><path style="opacity:0.989" fill="#796c9b" d="M 277.5,315.5 C 277.36,317.124 278.027,318.29 279.5,319C 278.328,319.419 277.328,320.085 276.5,321C 277.498,402.096 277.832,483.263 277.5,564.5C 278.833,564.5 280.167,564.5 281.5,564.5C 279.188,566.636 276.688,568.636 274,570.5C 272.984,569.366 272.317,569.699 272,571.5C 271.667,571.167 271.333,570.833 271,570.5C 269.287,572.193 267.287,573.526 265,574.5C 263.049,574.402 261.215,574.402 259.5,574.5C 258.194,499.673 258.194,425.006 259.5,350.5C 264.915,337.991 270.915,326.325 277.5,315.5 Z"/></g>
<g><path style="opacity:0.992" fill="#736fa1" d="M 417.5,334.5 C 421.575,339.637 424.908,345.304 427.5,351.5C 428.11,352.391 428.443,353.391 428.5,354.5C 429.347,357.16 429.847,359.826 430,362.5C 425.371,373.076 420.371,383.409 415,393.5C 409.752,407.823 403.585,421.656 396.5,435C 395.181,435.195 393.847,435.028 392.5,434.5C 392.64,432.876 391.973,431.71 390.5,431C 390.833,430.667 391.167,430.333 391.5,430C 386.856,423.213 382.856,416.046 379.5,408.5C 381.288,408.785 382.955,408.452 384.5,407.5C 395.44,384.608 405.607,361.275 415,337.5C 415.852,336.429 416.685,335.429 417.5,334.5 Z"/></g>
<g><path style="opacity:0.998" fill="#7072a4" d="M 224.5,341.5 C 228.648,350.621 232.981,359.621 237.5,368.5C 236.178,368.33 235.011,368.663 234,369.5C 227.63,383.906 220.463,397.906 212.5,411.5C 213.167,412.5 213.833,413.5 214.5,414.5C 211.366,422.102 207.866,429.102 204,435.5C 205.199,431.078 207.033,426.745 209.5,422.5C 209.192,421.692 208.692,421.025 208,420.5C 197.768,439.798 187.934,459.298 178.5,479C 180.698,480.878 180.864,483.045 179,485.5C 176.995,488.87 174.995,492.204 173,495.5C 172.76,493.023 173.594,490.856 175.5,489C 175,488.5 174.5,488 174,487.5C 172.279,491.11 170.446,494.61 168.5,498C 169.87,499.441 170.87,501.108 171.5,503C 170.552,503.483 169.552,503.649 168.5,503.5C 163.121,491.084 156.788,478.75 149.5,466.5C 150.21,463.918 150.21,461.418 149.5,459C 150.449,458.383 151.282,458.549 152,459.5C 163.621,436.526 175.288,413.526 187,390.5C 191.735,382.752 196.069,374.752 200,366.5C 201.667,364.5 203.333,362.5 205,360.5C 208.866,351.102 213.533,342.102 219,333.5C 219.333,335.167 219.667,336.833 220,338.5C 220.333,338.167 220.667,337.833 221,337.5C 221.498,339.544 222.665,340.878 224.5,341.5 Z"/></g>
<g><path style="opacity:0.993" fill="#7e6896" d="M 259.5,350.5 C 258.194,425.006 258.194,499.673 259.5,574.5C 255.575,576.488 251.575,577.154 247.5,576.5C 247.832,508.998 247.499,441.665 246.5,374.5C 250.471,366.208 254.804,358.208 259.5,350.5 Z"/></g>
<g><path style="opacity:0.995" fill="#756e9f" d="M 237.5,368.5 C 239.579,372.993 241.912,377.326 244.5,381.5C 239.657,389.852 235.324,398.519 231.5,407.5C 226.582,416.335 221.915,425.335 217.5,434.5C 206.759,454.981 196.259,475.648 186,496.5C 184.607,502.251 183.774,508.084 183.5,514C 184.334,523.003 186.001,531.836 188.5,540.5C 181.598,528.366 174.931,516.033 168.5,503.5C 169.552,503.649 170.552,503.483 171.5,503C 170.87,501.108 169.87,499.441 168.5,498C 170.446,494.61 172.279,491.11 174,487.5C 174.5,488 175,488.5 175.5,489C 173.594,490.856 172.76,493.023 173,495.5C 174.995,492.204 176.995,488.87 179,485.5C 180.864,483.045 180.698,480.878 178.5,479C 187.934,459.298 197.768,439.798 208,420.5C 208.692,421.025 209.192,421.692 209.5,422.5C 207.033,426.745 205.199,431.078 204,435.5C 207.866,429.102 211.366,422.102 214.5,414.5C 213.833,413.5 213.167,412.5 212.5,411.5C 220.463,397.906 227.63,383.906 234,369.5C 235.011,368.663 236.178,368.33 237.5,368.5 Z"/></g>
<g><path style="opacity:1" fill="#7b6a9a" d="M 428.5,354.5 C 435.244,366.88 441.911,379.213 448.5,391.5C 454.167,403.5 459.833,415.5 465.5,427.5C 455.397,428.346 445.397,429.679 435.5,431.5C 426.851,433.076 418.518,435.409 410.5,438.5C 407.763,439.031 405.096,439.864 402.5,441C 401.426,441.739 400.759,442.739 400.5,444C 406.572,455.977 412.239,468.144 417.5,480.5C 408.701,465.579 400.367,450.245 392.5,434.5C 393.847,435.028 395.181,435.195 396.5,435C 403.585,421.656 409.752,407.823 415,393.5C 420.371,383.409 425.371,373.076 430,362.5C 429.847,359.826 429.347,357.16 428.5,354.5 Z"/></g>
<g><path style="opacity:0.999" fill="#836491" d="M 246.5,374.5 C 247.499,441.665 247.832,508.998 247.5,576.5C 244.324,576.892 241.324,576.892 238.5,576.5C 236.909,575.781 235.409,574.781 234,573.5C 233.667,517.833 233.333,462.167 233,406.5C 232.617,407.056 232.117,407.389 231.5,407.5C 235.324,398.519 239.657,389.852 244.5,381.5C 245.451,380.081 245.784,378.415 245.5,376.5C 245.833,375.833 246.167,375.167 246.5,374.5 Z"/></g>
<g><path style="opacity:0.994" fill="#89608b" d="M 238.5,576.5 C 235.843,576.838 233.51,576.171 231.5,574.5C 229.837,575.875 228.503,575.542 227.5,573.5C 226.833,573.833 226.167,574.167 225.5,574.5C 220.245,571.64 214.912,568.973 209.5,566.5C 209.917,565.876 210.584,565.543 211.5,565.5C 213.383,566.024 215.216,566.691 217,567.5C 217.945,567.095 218.612,566.428 219,565.5C 219.667,521.5 219.667,477.5 219,433.5C 218.617,434.056 218.117,434.389 217.5,434.5C 221.915,425.335 226.582,416.335 231.5,407.5C 232.117,407.389 232.617,407.056 233,406.5C 233.333,462.167 233.667,517.833 234,573.5C 235.409,574.781 236.909,575.781 238.5,576.5 Z"/></g>
<g><path style="opacity:1" fill="#7b3393" d="M 469.5,427.5 C 476.167,427.5 482.833,427.5 489.5,427.5C 494.032,427.182 498.366,427.515 502.5,428.5C 500.143,428.337 497.81,428.503 495.5,429C 496.793,429.49 498.127,429.657 499.5,429.5C 499.491,431.308 499.991,432.975 501,434.5C 519.731,464.905 538.065,495.572 556,526.5C 558,529.167 560,531.833 562,534.5C 563.678,532.93 565.178,531.263 566.5,529.5C 566.611,530.117 566.944,530.617 567.5,531C 565.095,534.315 563.095,537.815 561.5,541.5C 559.922,542.066 558.588,543.066 557.5,544.5C 554.877,549.447 551.544,553.78 547.5,557.5C 546.325,557.719 545.325,557.386 544.5,556.5C 519.667,514.833 494.833,473.167 470,431.5C 469.51,430.207 469.343,428.873 469.5,427.5 Z"/></g>
<g><path style="opacity:1" fill="#863f99" d="M 465.5,427.5 C 466.833,427.5 468.167,427.5 469.5,427.5C 469.343,428.873 469.51,430.207 470,431.5C 494.833,473.167 519.667,514.833 544.5,556.5C 545.325,557.386 546.325,557.719 547.5,557.5C 539.963,564.268 531.296,568.935 521.5,571.5C 520.558,571.392 519.725,571.059 519,570.5C 503.418,544.34 488.085,518.006 473,491.5C 460.727,471.271 448.227,451.271 435.5,431.5C 445.397,429.679 455.397,428.346 465.5,427.5 Z"/></g>
<g><path style="opacity:1" fill="#752c90" d="M 502.5,428.5 C 514.839,430.636 527.173,433.303 539.5,436.5C 540.708,437.234 542.041,437.567 543.5,437.5C 554.962,445.21 567.628,448.21 581.5,446.5C 591.49,445.503 600.824,442.503 609.5,437.5C 611.001,436.248 612.668,435.248 614.5,434.5C 611.5,441.167 608.5,447.833 605.5,454.5C 596.895,468.04 589.562,482.373 583.5,497.5C 583.204,499.403 582.537,501.07 581.5,502.5C 581.565,502.062 581.399,501.728 581,501.5C 574.945,510.139 570.112,519.472 566.5,529.5C 565.178,531.263 563.678,532.93 562,534.5C 560,531.833 558,529.167 556,526.5C 538.065,495.572 519.731,464.905 501,434.5C 499.991,432.975 499.491,431.308 499.5,429.5C 498.127,429.657 496.793,429.49 495.5,429C 497.81,428.503 500.143,428.337 502.5,428.5 Z"/></g>
<g><path style="opacity:1" fill="#914b9e" d="M 435.5,431.5 C 448.227,451.271 460.727,471.271 473,491.5C 488.085,518.006 503.418,544.34 519,570.5C 519.725,571.059 520.558,571.392 521.5,571.5C 531.296,568.935 539.963,564.268 547.5,557.5C 551.544,553.78 554.877,549.447 557.5,544.5C 558.588,543.066 559.922,542.066 561.5,541.5C 555.046,555.936 544.046,566.269 528.5,572.5C 528.083,571.876 527.416,571.543 526.5,571.5C 515.311,574.604 503.978,575.271 492.5,573.5C 491.207,571.704 489.707,570.037 488,568.5C 462.896,524.607 437.062,481.274 410.5,438.5C 418.518,435.409 426.851,433.076 435.5,431.5 Z"/></g>
<g><path style="opacity:1" fill="#9852a1" d="M 410.5,438.5 C 437.062,481.274 462.896,524.607 488,568.5C 489.707,570.037 491.207,571.704 492.5,573.5C 478.965,571.374 467.799,565.041 459,554.5C 458.536,555.094 458.369,555.761 458.5,556.5C 455.192,553.277 452.026,549.277 449,544.5C 445.882,537.761 442.382,531.261 438.5,525C 438.833,524.667 439.167,524.333 439.5,524C 437.658,522.654 436.658,520.821 436.5,518.5C 437.573,517.749 437.74,516.749 437,515.5C 432.306,507.446 428.139,499.112 424.5,490.5C 421.653,487.453 419.32,484.12 417.5,480.5C 412.239,468.144 406.572,455.977 400.5,444C 400.759,442.739 401.426,441.739 402.5,441C 405.096,439.864 407.763,439.031 410.5,438.5 Z"/></g>
<g><path style="opacity:0.02" fill="#bd70a7" d="M 614.5,434.5 C 615.167,434.5 615.833,434.5 616.5,434.5C 613.842,441.825 610.175,448.491 605.5,454.5C 608.5,447.833 611.5,441.167 614.5,434.5 Z"/></g>
<g><path style="opacity:1" fill="#905c85" d="M 209.5,566.5 C 208.167,565.167 206.833,563.833 205.5,562.5C 201.856,558.012 198.356,553.345 195,548.5C 194.184,547.177 193.017,546.511 191.5,546.5C 189.992,544.819 188.992,542.819 188.5,540.5C 186.001,531.836 184.334,523.003 183.5,514C 183.774,508.084 184.607,502.251 186,496.5C 196.259,475.648 206.759,454.981 217.5,434.5C 218.117,434.389 218.617,434.056 219,433.5C 219.667,477.5 219.667,521.5 219,565.5C 218.612,566.428 217.945,567.095 217,567.5C 215.216,566.691 213.383,566.024 211.5,565.5C 210.584,565.543 209.917,565.876 209.5,566.5 Z"/></g>
<g><path style="opacity:0.755" fill="#fefffe" d="M 782.5,461.5 C 785.167,461.5 787.833,461.5 790.5,461.5C 790.5,481.167 790.5,500.833 790.5,520.5C 787.5,520.5 784.5,520.5 781.5,520.5C 781.179,500.757 781.513,481.091 782.5,461.5 Z"/></g>
<g><path style="opacity:0.758" fill="#fefffe" d="M 879.5,461.5 C 884.844,461.334 890.177,461.501 895.5,462C 898.149,462.452 900.649,463.286 903,464.5C 902.909,471.187 899.743,473.02 893.5,470C 889.167,469.333 884.833,469.333 880.5,470C 874.96,475.265 875.294,480.265 881.5,485C 889.254,486.8 896.087,490.3 902,495.5C 907.906,513.659 901.239,522.326 882,521.5C 877.014,521.702 872.181,521.035 867.5,519.5C 866.52,516.914 866.187,514.247 866.5,511.5C 871.766,512.753 877.099,513.753 882.5,514.5C 890.071,515.407 894.738,512.241 896.5,505C 895.896,502.532 894.562,500.532 892.5,499C 885.75,496.194 879.083,493.194 872.5,490C 867.434,483.557 866.268,476.391 869,468.5C 871.998,465.262 875.498,462.929 879.5,461.5 Z"/></g>
<g><path style="opacity:0.755" fill="#fefffe" d="M 1058.5,461.5 C 1061.17,461.5 1063.83,461.5 1066.5,461.5C 1066.5,481.167 1066.5,500.833 1066.5,520.5C 1063.5,520.5 1060.5,520.5 1057.5,520.5C 1057.18,500.757 1057.51,481.091 1058.5,461.5 Z"/></g>
<g><path style="opacity:0.76" fill="#fefffe" d="M 1098.5,461.5 C 1106.66,461.009 1114.66,461.842 1122.5,464C 1123.12,466.498 1122.45,468.832 1120.5,471C 1094.11,464.761 1083.28,474.928 1088,501.5C 1091.14,509.579 1097.14,513.913 1106,514.5C 1111.16,513.692 1116.32,513.025 1121.5,512.5C 1121.77,515.119 1121.44,517.619 1120.5,520C 1084.76,526.584 1071.26,512.084 1080,476.5C 1083.65,468.275 1089.82,463.275 1098.5,461.5 Z"/></g>
<g><path style="opacity:0.742" fill="#fefffe" d="M 1185.5,461.5 C 1190.84,461.334 1196.18,461.501 1201.5,462C 1204.15,462.452 1206.65,463.286 1209,464.5C 1209.69,466.92 1209.19,469.087 1207.5,471C 1200.93,469.788 1194.27,469.455 1187.5,470C 1180.07,474.006 1179.74,478.673 1186.5,484C 1194.62,486.701 1202.12,490.534 1209,495.5C 1213.82,506.065 1211.32,514.232 1201.5,520C 1192.18,521.97 1182.85,521.97 1173.5,520C 1172.56,517.281 1172.22,514.448 1172.5,511.5C 1177.92,512.818 1183.42,513.818 1189,514.5C 1199.27,514.595 1202.94,509.929 1200,500.5C 1193.03,496.6 1185.87,493.1 1178.5,490C 1176.11,488.048 1174.61,485.548 1174,482.5C 1171.12,471.585 1174.95,464.585 1185.5,461.5 Z"/></g>
<g><path style="opacity:0.751" fill="#fefffe" d="M 1292.5,461.5 C 1295.85,461.335 1299.18,461.502 1302.5,462C 1303,462.5 1303.5,463 1304,463.5C 1312.27,477.717 1321.27,491.384 1331,504.5C 1331.33,490.5 1331.67,476.5 1332,462.5C 1334.38,461.565 1336.88,461.232 1339.5,461.5C 1339.5,481.167 1339.5,500.833 1339.5,520.5C 1336.1,520.82 1332.77,520.487 1329.5,519.5C 1319.85,505.552 1310.68,491.218 1302,476.5C 1301.5,491.163 1301.33,505.83 1301.5,520.5C 1298.5,520.5 1295.5,520.5 1292.5,520.5C 1292.5,500.833 1292.5,481.167 1292.5,461.5 Z"/></g>
<g><path style="opacity:0.75" fill="#fefffe" d="M 1451.5,461.5 C 1459.67,460.95 1467.67,461.783 1475.5,464C 1476.31,471.043 1473.31,473.043 1466.5,470C 1447.16,468.094 1438.66,476.927 1441,496.5C 1441.89,505.716 1446.73,511.549 1455.5,514C 1461.89,514.356 1468.22,513.856 1474.5,512.5C 1474.77,515.119 1474.44,517.619 1473.5,520C 1465.58,521.568 1457.58,521.901 1449.5,521C 1441.5,518.997 1436,514.164 1433,506.5C 1428.22,492.359 1430.38,479.525 1439.5,468C 1443.15,465.013 1447.15,462.846 1451.5,461.5 Z"/></g>
<g><path style="opacity:0.77" fill="#fefffe" d="M 1501.5,461.5 C 1524.84,458.192 1536.84,468.192 1537.5,491.5C 1536.67,515.485 1524.33,525.318 1500.5,521C 1491.26,518.763 1485.76,512.93 1484,503.5C 1481.84,494.079 1482.17,484.745 1485,475.5C 1488.28,468.124 1493.78,463.457 1501.5,461.5 Z M 1503.5,469.5 C 1519.96,467.63 1528.3,474.963 1528.5,491.5C 1527.8,509.388 1518.8,516.555 1501.5,513C 1497.18,510.685 1494.35,507.185 1493,502.5C 1490.25,492.683 1491.25,483.349 1496,474.5C 1498.43,472.548 1500.93,470.881 1503.5,469.5 Z"/></g>
<g><path style="opacity:0.723" fill="#fefffe" d="M 1548.5,461.5 C 1551.52,461.335 1554.52,461.502 1557.5,462C 1567,476.167 1576.5,490.333 1586,504.5C 1586.33,490.5 1586.67,476.5 1587,462.5C 1589.67,461.167 1592.33,461.167 1595,462.5C 1595.5,481.83 1595.67,501.164 1595.5,520.5C 1591.77,520.823 1588.11,520.489 1584.5,519.5C 1574.86,505.575 1565.69,491.242 1557,476.5C 1556.5,491.163 1556.33,505.83 1556.5,520.5C 1553.5,520.5 1550.5,520.5 1547.5,520.5C 1547.18,500.757 1547.51,481.091 1548.5,461.5 Z"/></g>
<g><path style="opacity:0.745" fill="#fefffe" d="M 1618.5,461.5 C 1626.59,460.892 1634.42,461.892 1642,464.5C 1642.55,467.188 1641.71,469.355 1639.5,471C 1633.28,469.733 1626.95,469.4 1620.5,470C 1612.86,473.942 1612.53,478.609 1619.5,484C 1627.34,486.993 1634.67,490.826 1641.5,495.5C 1646.4,505.851 1644.07,514.018 1634.5,520C 1625.17,522 1615.83,522 1606.5,520C 1605.56,517.281 1605.22,514.448 1605.5,511.5C 1610.92,512.818 1616.42,513.818 1622,514.5C 1633.61,514.092 1636.77,508.925 1631.5,499C 1625.25,496.138 1618.91,493.472 1612.5,491C 1605.42,483.69 1604.25,475.523 1609,466.5C 1611.91,464.132 1615.07,462.465 1618.5,461.5 Z"/></g>
<g><path style="opacity:0.752" fill="#fefffe" d="M 1850.5,461.5 C 1853.52,461.335 1856.52,461.502 1859.5,462C 1869.62,475.736 1879.12,489.902 1888,504.5C 1888.17,490.488 1888.67,476.488 1889.5,462.5C 1892.08,461.607 1894.75,461.274 1897.5,461.5C 1897.5,481.167 1897.5,500.833 1897.5,520.5C 1893.77,520.823 1890.11,520.489 1886.5,519.5C 1877.84,504.861 1868.68,490.527 1859,476.5C 1858.5,491.163 1858.33,505.83 1858.5,520.5C 1855.83,520.5 1853.17,520.5 1850.5,520.5C 1850.5,500.833 1850.5,481.167 1850.5,461.5 Z"/></g>
<g><path style="opacity:0.737" fill="#fefffe" d="M 1920.5,461.5 C 1927.56,461.212 1934.56,461.712 1941.5,463C 1943.41,463.408 1944.41,464.575 1944.5,466.5C 1943.95,468.135 1943.62,469.801 1943.5,471.5C 1936.59,469.841 1929.59,469.341 1922.5,470C 1919.4,471.268 1917.73,473.601 1917.5,477C 1918.56,479.898 1920.23,482.398 1922.5,484.5C 1928.46,487.098 1934.46,489.598 1940.5,492C 1948.73,501.289 1948.4,510.289 1939.5,519C 1929.02,522.119 1918.52,522.286 1908,519.5C 1907.5,516.854 1907.34,514.187 1907.5,511.5C 1914.4,513.315 1921.4,514.148 1928.5,514C 1937.97,511.33 1939.64,506.33 1933.5,499C 1928.25,496.472 1922.92,494.139 1917.5,492C 1909.22,487.17 1906.38,480.003 1909,470.5C 1912.04,466.406 1915.88,463.406 1920.5,461.5 Z"/></g>
<g><path style="opacity:0.756" fill="#fefffe" d="M 797.5,462.5 C 812.167,462.5 826.833,462.5 841.5,462.5C 841.5,464.833 841.5,467.167 841.5,469.5C 835.833,469.5 830.167,469.5 824.5,469.5C 824.5,486.5 824.5,503.5 824.5,520.5C 821.167,520.5 817.833,520.5 814.5,520.5C 814.5,503.5 814.5,486.5 814.5,469.5C 808.833,469.5 803.167,469.5 797.5,469.5C 797.5,467.167 797.5,464.833 797.5,462.5 Z"/></g>
<g><path style="opacity:0.817" fill="#fefffe" d="M 914.5,462.5 C 925.833,462.5 937.167,462.5 948.5,462.5C 948.5,464.833 948.5,467.167 948.5,469.5C 940.167,469.5 931.833,469.5 923.5,469.5C 923.5,475.167 923.5,480.833 923.5,486.5C 931.5,486.5 939.5,486.5 947.5,486.5C 947.5,488.833 947.5,491.167 947.5,493.5C 939.5,493.5 931.5,493.5 923.5,493.5C 923.5,500.167 923.5,506.833 923.5,513.5C 931.833,513.5 940.167,513.5 948.5,513.5C 948.5,515.833 948.5,518.167 948.5,520.5C 937.167,520.5 925.833,520.5 914.5,520.5C 914.5,501.167 914.5,481.833 914.5,462.5 Z"/></g>
<g><path style="opacity:0.786" fill="#fefffe" d="M 959.5,462.5 C 968.506,462.334 977.506,462.5 986.5,463C 991.681,463.831 995.181,466.664 997,471.5C 1000.23,482.157 997.064,489.99 987.5,495C 992.846,503.196 997.512,511.696 1001.5,520.5C 998.102,520.82 994.768,520.487 991.5,519.5C 987.311,513.123 983.645,506.456 980.5,499.5C 977.041,496.769 973.041,495.769 968.5,496.5C 968.5,504.5 968.5,512.5 968.5,520.5C 965.5,520.5 962.5,520.5 959.5,520.5C 959.5,501.167 959.5,481.833 959.5,462.5 Z M 968.5,469.5 C 974.987,468.883 981.154,469.883 987,472.5C 990.42,478.327 989.586,483.494 984.5,488C 979.264,489.339 973.93,489.839 968.5,489.5C 968.5,482.833 968.5,476.167 968.5,469.5 Z"/></g>
<g><path style="opacity:0.761" fill="#fefffe" d="M 1001.5,462.5 C 1004.83,462.5 1008.17,462.5 1011.5,462.5C 1015.9,477.748 1021.06,492.748 1027,507.5C 1031.99,492.528 1036.82,477.528 1041.5,462.5C 1045.18,462.335 1048.85,462.501 1052.5,463C 1044.89,481.142 1038.06,499.642 1032,518.5C 1030.47,519.72 1028.64,520.387 1026.5,520.5C 1024.36,520.387 1022.53,519.72 1021,518.5C 1014.59,499.772 1008.09,481.106 1001.5,462.5 Z"/></g>
<g><path style="opacity:0.813" fill="#fefffe" d="M 1131.5,462.5 C 1142.83,462.5 1154.17,462.5 1165.5,462.5C 1165.5,464.833 1165.5,467.167 1165.5,469.5C 1157.17,469.5 1148.83,469.5 1140.5,469.5C 1140.5,475.167 1140.5,480.833 1140.5,486.5C 1148.5,486.5 1156.5,486.5 1164.5,486.5C 1164.5,488.833 1164.5,491.167 1164.5,493.5C 1156.5,493.5 1148.5,493.5 1140.5,493.5C 1140.5,500.167 1140.5,506.833 1140.5,513.5C 1148.83,513.5 1157.17,513.5 1165.5,513.5C 1165.5,515.833 1165.5,518.167 1165.5,520.5C 1154.17,520.5 1142.83,520.5 1131.5,520.5C 1131.5,501.167 1131.5,481.833 1131.5,462.5 Z"/></g>
<g><path style="opacity:0.759" fill="#fefffe" d="M 1256.5,462.5 C 1259.45,462.223 1262.28,462.556 1265,463.5C 1272.76,482.024 1280.26,500.69 1287.5,519.5C 1284.55,520.655 1281.55,520.821 1278.5,520C 1275.3,514.606 1272.64,508.939 1270.5,503C 1263.48,502.169 1256.48,502.336 1249.5,503.5C 1247.21,509.081 1245.21,514.748 1243.5,520.5C 1240.5,520.5 1237.5,520.5 1234.5,520.5C 1241.24,500.937 1248.58,481.603 1256.5,462.5 Z M 1260.5,475.5 C 1263.24,481.877 1265.91,488.377 1268.5,495C 1263.47,495.829 1258.47,495.662 1253.5,494.5C 1256.04,488.215 1258.37,481.882 1260.5,475.5 Z"/></g>
<g><path style="opacity:0.809" fill="#fefffe" d="M 1354.5,462.5 C 1363.84,462.334 1373.17,462.5 1382.5,463C 1396.74,466.791 1403.41,476.124 1402.5,491C 1402.44,500.183 1399.44,508.183 1393.5,515C 1389.72,517.225 1385.72,518.891 1381.5,520C 1372.51,520.5 1363.51,520.666 1354.5,520.5C 1354.5,501.167 1354.5,481.833 1354.5,462.5 Z M 1362.5,469.5 C 1387.45,467.465 1396.95,478.465 1391,502.5C 1387.44,508.364 1382.27,511.864 1375.5,513C 1371.18,513.499 1366.85,513.666 1362.5,513.5C 1362.5,498.833 1362.5,484.167 1362.5,469.5 Z"/></g>
<g><path style="opacity:0.764" fill="#fefffe" d="M 1652.5,462.5 C 1655.5,462.5 1658.5,462.5 1661.5,462.5C 1661.2,477.196 1661.53,491.863 1662.5,506.5C 1669.04,515.176 1677.04,516.676 1686.5,511C 1688.32,509.2 1689.48,507.034 1690,504.5C 1690.5,490.504 1690.67,476.504 1690.5,462.5C 1693.5,462.5 1696.5,462.5 1699.5,462.5C 1699.67,475.837 1699.5,489.171 1699,502.5C 1697.39,516.102 1689.73,522.435 1676,521.5C 1665.61,522.731 1658.28,518.731 1654,509.5C 1652.6,493.877 1652.1,478.21 1652.5,462.5 Z"/></g>
<g><path style="opacity:0.796" fill="#fefffe" d="M 1712.5,462.5 C 1715.5,462.5 1718.5,462.5 1721.5,462.5C 1721.5,479.5 1721.5,496.5 1721.5,513.5C 1729.83,513.5 1738.17,513.5 1746.5,513.5C 1746.5,515.833 1746.5,518.167 1746.5,520.5C 1735.17,520.5 1723.83,520.5 1712.5,520.5C 1712.5,501.167 1712.5,481.833 1712.5,462.5 Z"/></g>
<g><path style="opacity:0.841" fill="#fefffe" d="M 1746.5,462.5 C 1761.83,462.5 1777.17,462.5 1792.5,462.5C 1792.5,464.833 1792.5,467.167 1792.5,469.5C 1786.17,469.5 1779.83,469.5 1773.5,469.5C 1773.5,486.5 1773.5,503.5 1773.5,520.5C 1770.83,520.5 1768.17,520.5 1765.5,520.5C 1765.5,503.5 1765.5,486.5 1765.5,469.5C 1759.17,469.5 1752.83,469.5 1746.5,469.5C 1746.5,467.167 1746.5,464.833 1746.5,462.5 Z"/></g>
<g><path style="opacity:0.762" fill="#fefffe" d="M 1813.5,462.5 C 1817.36,461.962 1820.69,462.962 1823.5,465.5C 1830.97,483.58 1837.64,501.913 1843.5,520.5C 1840.5,520.5 1837.5,520.5 1834.5,520.5C 1832.78,514.832 1830.94,509.165 1829,503.5C 1821.91,502.354 1814.75,502.188 1807.5,503C 1805.21,508.419 1803.04,513.919 1801,519.5C 1797.94,520.451 1794.78,520.784 1791.5,520.5C 1793.35,513.777 1795.52,507.11 1798,500.5C 1803.85,488.134 1809.01,475.468 1813.5,462.5 Z M 1816.5,475.5 C 1817.5,475.47 1818.16,475.97 1818.5,477C 1820.76,483.275 1823.09,489.441 1825.5,495.5C 1820.46,495.827 1815.46,495.494 1810.5,494.5C 1813.27,488.399 1815.27,482.066 1816.5,475.5 Z"/></g>
<g><path style="opacity:0.122" fill="#af68ab" d="M 605.5,454.5 C 604.829,455.847 604.829,457.014 605.5,458C 598.293,471.339 590.96,484.506 583.5,497.5C 589.562,482.373 596.895,468.04 605.5,454.5 Z"/></g>
<g><path style="opacity:0.396" fill="#855b90" d="M 417.5,480.5 C 419.32,484.12 421.653,487.453 424.5,490.5C 428.139,499.112 432.306,507.446 437,515.5C 437.74,516.749 437.573,517.749 436.5,518.5C 429.735,506.475 423.068,494.309 416.5,482C 417.056,481.617 417.389,481.117 417.5,480.5 Z"/></g>
<g><path style="opacity:0.498" fill="#a660a7" d="M 581.5,502.5 C 578.951,508.599 576.118,514.599 573,520.5C 571.301,523.921 569.135,526.921 566.5,529.5C 570.112,519.472 574.945,510.139 581,501.5C 581.399,501.728 581.565,502.062 581.5,502.5 Z"/></g>
<g><path style="opacity:0.012" fill="#61769e" d="M 191.5,546.5 C 193.017,546.511 194.184,547.177 195,548.5C 198.356,553.345 201.856,558.012 205.5,562.5C 205.565,562.938 205.399,563.272 205,563.5C 198.793,558.542 194.293,552.875 191.5,546.5 Z"/></g>
<g><path style="opacity:0.876" fill="#8c4c78" d="M 492.5,573.5 C 503.978,575.271 515.311,574.604 526.5,571.5C 527.416,571.543 528.083,571.876 528.5,572.5C 526.956,573.914 525.289,574.247 523.5,573.5C 522.497,575.542 521.163,575.875 519.5,574.5C 514.907,576.317 510.074,577.317 505,577.5C 500.511,576.901 496.011,576.401 491.5,576C 479.248,573.476 468.248,566.976 458.5,556.5C 458.369,555.761 458.536,555.094 459,554.5C 467.799,565.041 478.965,571.374 492.5,573.5 Z"/></g>
</svg>
