<?xml version="1.0" encoding="UTF-8"?>
<!DOCTYPE svg PUBLIC "-//W3C//DTD SVG 1.1//EN" "http://www.w3.org/Graphics/SVG/1.1/DTD/svg11.dtd">
<svg xmlns="http://www.w3.org/2000/svg" version="1.1" width="9392px" height="2522px" style="shape-rendering:geometricPrecision; text-rendering:geometricPrecision; image-rendering:optimizeQuality; fill-rule:evenodd; clip-rule:evenodd" xmlns:xlink="http://www.w3.org/1999/xlink">
<g><path style="opacity:0.993" fill="#d5357d" d="M 2792.5,394.5 C 2797.17,394.5 2801.83,394.5 2806.5,394.5C 2806.5,440.5 2806.5,486.5 2806.5,532.5C 2801.9,533.383 2797.23,533.717 2792.5,533.5C 2792.5,487.167 2792.5,440.833 2792.5,394.5 Z"/></g>
<g><path style="opacity:0.993" fill="#d02e7c" d="M 2806.5,394.5 C 2810.83,395.39 2815.17,396.39 2819.5,397.5C 2819.5,441.5 2819.5,485.5 2819.5,529.5C 2815.48,531.373 2811.15,532.373 2806.5,532.5C 2806.5,486.5 2806.5,440.5 2806.5,394.5 Z"/></g>
<g><path style="opacity:0.993" fill="#da3c7e" d="M 2792.5,394.5 C 2792.5,440.833 2792.5,487.167 2792.5,533.5C 2788.55,532.619 2784.55,531.952 2780.5,531.5C 2780.5,486.5 2780.5,441.5 2780.5,396.5C 2784.45,395.619 2788.45,394.952 2792.5,394.5 Z"/></g>
<g><path style="opacity:0.992" fill="#de417e" d="M 2780.5,396.5 C 2780.5,441.5 2780.5,486.5 2780.5,531.5C 2776.27,530.205 2772.27,528.539 2768.5,526.5C 2768.5,484.833 2768.5,443.167 2768.5,401.5C 2772.1,399.072 2776.1,397.406 2780.5,396.5 Z"/></g>
<g><path style="opacity:0.992" fill="#cc287c" d="M 2819.5,397.5 C 2823.29,398.893 2826.95,400.559 2830.5,402.5C 2830.5,443.5 2830.5,484.5 2830.5,525.5C 2827.13,527.623 2823.47,528.956 2819.5,529.5C 2819.5,485.5 2819.5,441.5 2819.5,397.5 Z"/></g>
<g><path style="opacity:0.99" fill="#e2477f" d="M 2768.5,401.5 C 2768.5,443.167 2768.5,484.833 2768.5,526.5C 2763.98,524.957 2759.98,522.623 2756.5,519.5C 2756.5,482.5 2756.5,445.5 2756.5,408.5C 2759.83,405.161 2763.83,402.828 2768.5,401.5 Z"/></g>
<g><path style="opacity:0.989" fill="#c8227b" d="M 2830.5,402.5 C 2834.88,404.684 2838.88,407.35 2842.5,410.5C 2842.5,445.833 2842.5,481.167 2842.5,516.5C 2839.09,520.238 2835.09,523.238 2830.5,525.5C 2830.5,484.5 2830.5,443.5 2830.5,402.5 Z"/></g>
<g><path style="opacity:0.982" fill="#c21b7a" d="M 2842.5,410.5 C 2863.05,428.628 2870.88,451.295 2866,478.5C 2862.73,494.212 2854.9,506.878 2842.5,516.5C 2842.5,481.167 2842.5,445.833 2842.5,410.5 Z"/></g>
<g><path style="opacity:0.983" fill="#e84e80" d="M 2756.5,408.5 C 2756.5,445.5 2756.5,482.5 2756.5,519.5C 2750.83,515.833 2746.17,511.167 2742.5,505.5C 2742.5,477.833 2742.5,450.167 2742.5,422.5C 2746.17,416.833 2750.83,412.167 2756.5,408.5 Z"/></g>
<g><path style="opacity:0.972" fill="#ec5480" d="M 2742.5,422.5 C 2742.5,450.167 2742.5,477.833 2742.5,505.5C 2727.86,484.962 2724.69,462.628 2733,438.5C 2735.44,432.608 2738.6,427.274 2742.5,422.5 Z"/></g>
<g><path style="opacity:0.996" fill="#d93a7e" d="M 2591.5,525.5 C 2591.5,610.167 2591.5,694.833 2591.5,779.5C 2587.5,779.167 2583.5,778.833 2579.5,778.5C 2579.5,694.833 2579.5,611.167 2579.5,527.5C 2583.27,526.205 2587.27,525.539 2591.5,525.5 Z"/></g>
<g><path style="opacity:0.999" fill="#d5357d" d="M 2591.5,525.5 C 2600.17,525.5 2608.83,525.5 2617.5,525.5C 2617.5,610.167 2617.5,694.833 2617.5,779.5C 2608.8,780.181 2600.13,780.181 2591.5,779.5C 2591.5,694.833 2591.5,610.167 2591.5,525.5 Z"/></g>
<g><path style="opacity:0.996" fill="#d02e7c" d="M 2617.5,525.5 C 2625.17,527.035 2632.84,528.701 2640.5,530.5C 2640.5,611.833 2640.5,693.167 2640.5,774.5C 2632.89,776.555 2625.22,778.222 2617.5,779.5C 2617.5,694.833 2617.5,610.167 2617.5,525.5 Z"/></g>
<g><path style="opacity:0.996" fill="#db3d7e" d="M 2579.5,527.5 C 2579.5,611.167 2579.5,694.833 2579.5,778.5C 2576.01,777.743 2572.68,776.743 2569.5,775.5C 2569.5,693.5 2569.5,611.5 2569.5,529.5C 2572.59,528.215 2575.92,527.549 2579.5,527.5 Z"/></g>
<g><path style="opacity:0.996" fill="#de417e" d="M 2569.5,529.5 C 2569.5,611.5 2569.5,693.5 2569.5,775.5C 2561.69,773.917 2554.35,771.25 2547.5,767.5C 2547.5,690.833 2547.5,614.167 2547.5,537.5C 2554.35,533.75 2561.69,531.083 2569.5,529.5 Z"/></g>
<g><path style="opacity:0.995" fill="#cc287c" d="M 2640.5,530.5 C 2647.62,533.225 2654.62,536.225 2661.5,539.5C 2661.5,614.833 2661.5,690.167 2661.5,765.5C 2654.75,769.084 2647.75,772.084 2640.5,774.5C 2640.5,693.167 2640.5,611.833 2640.5,530.5 Z"/></g>
<g><path style="opacity:0.994" fill="#e2477f" d="M 2547.5,537.5 C 2547.5,614.167 2547.5,690.833 2547.5,767.5C 2538.99,764.086 2531.33,759.419 2524.5,753.5C 2524.5,686.167 2524.5,618.833 2524.5,551.5C 2531.33,545.581 2538.99,540.914 2547.5,537.5 Z"/></g>
<g><path style="opacity:0.994" fill="#c8227b" d="M 2661.5,539.5 C 2669.4,543.751 2676.74,548.751 2683.5,554.5C 2683.5,619.833 2683.5,685.167 2683.5,750.5C 2676.9,756.476 2669.56,761.476 2661.5,765.5C 2661.5,690.167 2661.5,614.833 2661.5,539.5 Z"/></g>
<g><path style="opacity:0.994" fill="#e64c80" d="M 2524.5,551.5 C 2524.5,618.833 2524.5,686.167 2524.5,753.5C 2520.52,750.848 2516.85,747.848 2513.5,744.5C 2513.5,683.5 2513.5,622.5 2513.5,561.5C 2516.54,557.456 2520.21,554.123 2524.5,551.5 Z"/></g>
<g><path style="opacity:0.991" fill="#c31c7b" d="M 2683.5,554.5 C 2687.4,557.708 2691.23,561.041 2695,564.5C 2699.67,569.87 2703.84,575.537 2707.5,581.5C 2707.5,628.833 2707.5,676.167 2707.5,723.5C 2703.84,729.463 2699.67,735.13 2695,740.5C 2691.59,744.416 2687.76,747.749 2683.5,750.5C 2683.5,685.167 2683.5,619.833 2683.5,554.5 Z"/></g>
<g><path style="opacity:0.991" fill="#e84f80" d="M 2513.5,561.5 C 2513.5,622.5 2513.5,683.5 2513.5,744.5C 2508.08,739.421 2503.42,733.754 2499.5,727.5C 2499.5,677.5 2499.5,627.5 2499.5,577.5C 2503.14,571.202 2507.8,565.868 2513.5,561.5 Z"/></g>
<g><path style="opacity:0.985" fill="#ec5480" d="M 2499.5,577.5 C 2499.5,627.5 2499.5,677.5 2499.5,727.5C 2482.73,705.489 2474.4,680.489 2474.5,652.5C 2474.4,624.511 2482.73,599.511 2499.5,577.5 Z"/></g>
<g><path style="opacity:0.964" fill="#bf167a" d="M 2707.5,581.5 C 2726.12,608.979 2732.95,639.312 2728,672.5C 2725.14,691.26 2718.31,708.26 2707.5,723.5C 2707.5,676.167 2707.5,628.833 2707.5,581.5 Z"/></g>
<g><path style="opacity:0.997" fill="#d5357d" d="M 2306.5,685.5 C 2306.5,753.167 2306.5,820.833 2306.5,888.5C 2299.5,888.5 2292.5,888.5 2285.5,888.5C 2285.5,820.833 2285.5,753.167 2285.5,685.5C 2292.35,684.306 2299.35,684.306 2306.5,685.5 Z"/></g>
<g><path style="opacity:0.996" fill="#d93b7e" d="M 2285.5,685.5 C 2285.5,753.167 2285.5,820.833 2285.5,888.5C 2279.38,888.147 2273.38,887.147 2267.5,885.5C 2267.5,819.833 2267.5,754.167 2267.5,688.5C 2273.16,686.238 2279.16,685.238 2285.5,685.5 Z"/></g>
<g><path style="opacity:0.995" fill="#d02e7c" d="M 2306.5,685.5 C 2312.66,686.209 2318.66,687.542 2324.5,689.5C 2324.5,754.5 2324.5,819.5 2324.5,884.5C 2318.5,885.965 2312.5,887.299 2306.5,888.5C 2306.5,820.833 2306.5,753.167 2306.5,685.5 Z"/></g>
<g><path style="opacity:0.995" fill="#de417e" d="M 2267.5,688.5 C 2267.5,754.167 2267.5,819.833 2267.5,885.5C 2261.69,883.896 2256.02,881.896 2250.5,879.5C 2250.5,817.833 2250.5,756.167 2250.5,694.5C 2255.67,691.332 2261.33,689.332 2267.5,688.5 Z"/></g>
<g><path style="opacity:0.995" fill="#cc287c" d="M 2324.5,689.5 C 2330.51,691.007 2336.18,693.341 2341.5,696.5C 2341.5,756.5 2341.5,816.5 2341.5,876.5C 2336.25,879.924 2330.58,882.59 2324.5,884.5C 2324.5,819.5 2324.5,754.5 2324.5,689.5 Z"/></g>
<g><path style="opacity:0.993" fill="#e2477f" d="M 2250.5,694.5 C 2250.5,756.167 2250.5,817.833 2250.5,879.5C 2243.95,876.592 2237.95,872.926 2232.5,868.5C 2232.5,814.167 2232.5,759.833 2232.5,705.5C 2233.72,703.549 2235.38,702.049 2237.5,701C 2241.58,698.295 2245.91,696.128 2250.5,694.5 Z"/></g>
<g><path style="opacity:0.993" fill="#c8227b" d="M 2341.5,696.5 C 2347.74,699.755 2353.41,703.755 2358.5,708.5C 2358.5,760.833 2358.5,813.167 2358.5,865.5C 2353.65,870.341 2347.98,874.007 2341.5,876.5C 2341.5,816.5 2341.5,756.5 2341.5,696.5 Z"/></g>
<g><path style="opacity:0.991" fill="#e64b80" d="M 2232.5,705.5 C 2232.5,759.833 2232.5,814.167 2232.5,868.5C 2228.88,866.547 2225.88,863.881 2223.5,860.5C 2223.5,811.167 2223.5,761.833 2223.5,712.5C 2226.21,709.791 2229.21,707.458 2232.5,705.5 Z"/></g>
<g><path style="opacity:0.989" fill="#c41c7b" d="M 2358.5,708.5 C 2366.19,713.857 2372.52,720.523 2377.5,728.5C 2377.5,767.167 2377.5,805.833 2377.5,844.5C 2374.96,849.217 2371.8,853.551 2368,857.5C 2364.89,860.293 2361.73,862.96 2358.5,865.5C 2358.5,813.167 2358.5,760.833 2358.5,708.5 Z"/></g>
<g><path style="opacity:0.989" fill="#e84f80" d="M 2223.5,712.5 C 2223.5,761.833 2223.5,811.167 2223.5,860.5C 2219.12,857.126 2215.46,853.126 2212.5,848.5C 2212.5,807.5 2212.5,766.5 2212.5,725.5C 2215.46,720.601 2219.12,716.268 2223.5,712.5 Z"/></g>
<g><path style="opacity:0.979" fill="#ec5480" d="M 2212.5,725.5 C 2212.5,766.5 2212.5,807.5 2212.5,848.5C 2194.9,825.098 2188.4,798.765 2193,769.5C 2195.56,752.941 2202.06,738.275 2212.5,725.5 Z"/></g>
<g><path style="opacity:0.956" fill="#bf167a" d="M 2377.5,728.5 C 2395.95,756.222 2400.45,786.222 2391,818.5C 2387.78,827.952 2383.28,836.618 2377.5,844.5C 2377.5,805.833 2377.5,767.167 2377.5,728.5 Z"/></g>
<g><path style="opacity:0.994" fill="#d5357d" d="M 2667.5,844.5 C 2673.17,844.5 2678.83,844.5 2684.5,844.5C 2684.5,900.167 2684.5,955.833 2684.5,1011.5C 2678.69,1012.71 2673.02,1012.71 2667.5,1011.5C 2667.5,955.833 2667.5,900.167 2667.5,844.5 Z"/></g>
<g><path style="opacity:0.994" fill="#d02e7c" d="M 2684.5,844.5 C 2689.72,845.338 2694.72,846.671 2699.5,848.5C 2699.5,901.833 2699.5,955.167 2699.5,1008.5C 2694.66,1010.14 2689.66,1011.14 2684.5,1011.5C 2684.5,955.833 2684.5,900.167 2684.5,844.5 Z"/></g>
<g><path style="opacity:0.994" fill="#da3c7e" d="M 2667.5,844.5 C 2667.5,900.167 2667.5,955.833 2667.5,1011.5C 2662.68,1011.65 2658.01,1010.98 2653.5,1009.5C 2653.5,955.5 2653.5,901.5 2653.5,847.5C 2657.91,845.87 2662.58,844.87 2667.5,844.5 Z"/></g>
<g><path style="opacity:0.994" fill="#de417e" d="M 2653.5,847.5 C 2653.5,901.5 2653.5,955.5 2653.5,1009.5C 2648.54,1008.62 2643.87,1006.96 2639.5,1004.5C 2639.5,953.833 2639.5,903.167 2639.5,852.5C 2643.66,849.666 2648.33,847.999 2653.5,847.5 Z"/></g>
<g><path style="opacity:0.993" fill="#cc287c" d="M 2699.5,848.5 C 2704.38,849.605 2709.04,851.272 2713.5,853.5C 2713.5,903.167 2713.5,952.833 2713.5,1002.5C 2709.16,1005.07 2704.49,1007.07 2699.5,1008.5C 2699.5,955.167 2699.5,901.833 2699.5,848.5 Z"/></g>
<g><path style="opacity:0.992" fill="#e2477f" d="M 2639.5,852.5 C 2639.5,903.167 2639.5,953.833 2639.5,1004.5C 2633.99,1002.25 2628.99,999.251 2624.5,995.5C 2624.5,950.833 2624.5,906.167 2624.5,861.5C 2628.66,857.246 2633.66,854.246 2639.5,852.5 Z"/></g>
<g><path style="opacity:0.999" fill="#0074a4" d="M 697.5,853.5 C 697.833,984.334 697.5,1115 696.5,1245.5C 692.426,1245.22 688.426,1244.55 684.5,1243.5C 679.358,1242.63 674.358,1241.3 669.5,1239.5C 669.5,1111.5 669.5,983.5 669.5,855.5C 678.746,854.35 688.079,853.683 697.5,853.5 Z"/></g>
<g><path style="opacity:1" fill="#0077a7" d="M 697.5,853.5 C 699.717,854.369 702.05,854.702 704.5,854.5C 705.165,985.504 704.498,1116.17 702.5,1246.5C 700.265,1246.79 698.265,1246.46 696.5,1245.5C 697.5,1115 697.833,984.334 697.5,853.5 Z"/></g>
<g><path style="opacity:0.992" fill="#c8227b" d="M 2713.5,853.5 C 2719.07,856.446 2724.07,860.112 2728.5,864.5C 2728.5,907.167 2728.5,949.833 2728.5,992.5C 2724.05,996.61 2719.05,999.944 2713.5,1002.5C 2713.5,952.833 2713.5,903.167 2713.5,853.5 Z"/></g>
<g><path style="opacity:0.999" fill="#007aab" d="M 704.5,854.5 C 713.889,855.007 723.223,856.007 732.5,857.5C 732.5,988.833 732.5,1120.17 732.5,1251.5C 722.233,1250.68 712.233,1249.01 702.5,1246.5C 704.498,1116.17 705.165,985.504 704.5,854.5 Z"/></g>
<g><path style="opacity:0.999" fill="#8a439b" d="M 1594.5,856.5 C 1594.5,933.833 1594.5,1011.17 1594.5,1088.5C 1592.83,1087.17 1591.17,1085.83 1589.5,1084.5C 1585.74,1079.24 1581.41,1074.41 1576.5,1070C 1569.62,1064.29 1562.62,1058.79 1555.5,1053.5C 1555.5,1053.17 1555.5,1052.83 1555.5,1052.5C 1556.5,987.002 1556.83,921.335 1556.5,855.5C 1569.08,854.067 1581.75,854.4 1594.5,856.5 Z"/></g>
<g><path style="opacity:0.999" fill="#0071a1" d="M 669.5,855.5 C 669.5,983.5 669.5,1111.5 669.5,1239.5C 666.311,1239.14 663.311,1238.47 660.5,1237.5C 661.5,1110.67 661.833,983.668 661.5,856.5C 664.054,855.612 666.721,855.279 669.5,855.5 Z"/></g>
<g><path style="opacity:0.998" fill="#87409a" d="M 1556.5,855.5 C 1556.83,921.335 1556.5,987.002 1555.5,1052.5C 1548.69,1048.26 1541.69,1044.26 1534.5,1040.5C 1525.76,1035.59 1516.76,1031.26 1507.5,1027.5C 1509.5,973.844 1510.16,919.844 1509.5,865.5C 1524.65,859.869 1540.32,856.536 1556.5,855.5 Z"/></g>
<g><path style="opacity:0.999" fill="#006e9e" d="M 661.5,856.5 C 661.833,983.668 661.5,1110.67 660.5,1237.5C 651.588,1235.69 642.921,1233.35 634.5,1230.5C 636.498,1107.84 637.165,984.838 636.5,861.5C 644.669,859.041 653.002,857.375 661.5,856.5 Z"/></g>
<g><path style="opacity:0.998" fill="#8e479d" d="M 1594.5,856.5 C 1608.04,858.135 1621.04,861.468 1633.5,866.5C 1633.83,962.001 1633.5,1057.33 1632.5,1152.5C 1628.5,1145.17 1624.5,1137.83 1620.5,1130.5C 1617.34,1123.5 1613.67,1116.84 1609.5,1110.5C 1604.49,1103.14 1599.49,1095.8 1594.5,1088.5C 1594.5,1011.17 1594.5,933.833 1594.5,856.5 Z"/></g>
<g><path style="opacity:0.999" fill="#007dae" d="M 732.5,857.5 C 735.115,858.291 737.782,858.957 740.5,859.5C 739.838,991.044 740.504,1122.38 742.5,1253.5C 740.139,1253.33 737.806,1252.99 735.5,1252.5C 734.391,1252.44 733.391,1252.11 732.5,1251.5C 732.5,1120.17 732.5,988.833 732.5,857.5 Z"/></g>
<g><path style="opacity:0.999" fill="#0080b1" d="M 740.5,859.5 C 751.852,862.173 762.852,865.84 773.5,870.5C 773.5,999.167 773.5,1127.83 773.5,1256.5C 775.099,1256.23 776.432,1256.57 777.5,1257.5C 765.803,1256.41 754.137,1255.08 742.5,1253.5C 740.504,1122.38 739.838,991.044 740.5,859.5 Z"/></g>
<g><path style="opacity:0.999" fill="#006b9b" d="M 636.5,861.5 C 637.165,984.838 636.498,1107.84 634.5,1230.5C 630.573,1230.07 626.907,1229.07 623.5,1227.5C 625.498,1107.17 626.165,986.505 625.5,865.5C 628.939,863.796 632.605,862.462 636.5,861.5 Z"/></g>
<g><path style="opacity:0.99" fill="#e64c80" d="M 2624.5,861.5 C 2624.5,906.167 2624.5,950.833 2624.5,995.5C 2621.22,993.883 2618.55,991.55 2616.5,988.5C 2616.5,948.167 2616.5,907.833 2616.5,867.5C 2618.88,865.122 2621.55,863.122 2624.5,861.5 Z"/></g>
<g><path style="opacity:0.987" fill="#c31c7b" d="M 2728.5,864.5 C 2734.86,868.528 2739.86,873.861 2743.5,880.5C 2743.5,912.167 2743.5,943.833 2743.5,975.5C 2739.61,982.062 2734.61,987.729 2728.5,992.5C 2728.5,949.833 2728.5,907.167 2728.5,864.5 Z"/></g>
<g><path style="opacity:0.999" fill="#006798" d="M 625.5,865.5 C 626.165,986.505 625.498,1107.17 623.5,1227.5C 622.833,1227.5 622.167,1227.5 621.5,1227.5C 611.625,1224.54 601.958,1221.21 592.5,1217.5C 593.5,1217.5 594.5,1217.5 595.5,1217.5C 595.5,1104.5 595.5,991.5 595.5,878.5C 604.775,872.626 614.775,868.292 625.5,865.5 Z"/></g>
<g><path style="opacity:0.997" fill="#843d98" d="M 1509.5,865.5 C 1510.16,919.844 1509.5,973.844 1507.5,1027.5C 1501.79,1025.99 1496.12,1024.32 1490.5,1022.5C 1486.79,1021.66 1483.12,1020.66 1479.5,1019.5C 1479.5,972.5 1479.5,925.5 1479.5,878.5C 1489.03,873.068 1499.03,868.735 1509.5,865.5 Z"/></g>
<g><path style="opacity:0.998" fill="#90499e" d="M 1633.5,866.5 C 1640.92,868.713 1647.92,871.713 1654.5,875.5C 1654.83,981.668 1654.5,1087.67 1653.5,1193.5C 1651.34,1188.5 1648.67,1183.84 1645.5,1179.5C 1641.42,1170.35 1637.09,1161.35 1632.5,1152.5C 1633.5,1057.33 1633.83,962.001 1633.5,866.5 Z"/></g>
<g><path style="opacity:0.986" fill="#e84f80" d="M 2616.5,867.5 C 2616.5,907.833 2616.5,948.167 2616.5,988.5C 2612.79,985.789 2609.79,982.456 2607.5,978.5C 2607.5,945.167 2607.5,911.833 2607.5,878.5C 2610.13,874.537 2613.13,870.871 2616.5,867.5 Z"/></g>
<g><path style="opacity:0.998" fill="#0084b5" d="M 773.5,870.5 C 775.284,870.893 776.95,871.559 778.5,872.5C 777.838,1001.04 778.505,1129.38 780.5,1257.5C 779.5,1257.5 778.5,1257.5 777.5,1257.5C 776.432,1256.57 775.099,1256.23 773.5,1256.5C 773.5,1127.83 773.5,999.167 773.5,870.5 Z"/></g>
<g><path style="opacity:0.998" fill="#0086b7" d="M 778.5,872.5 C 789.185,877.17 799.185,882.836 808.5,889.5C 808.5,1012.83 808.5,1136.17 808.5,1259.5C 806.5,1259.5 804.5,1259.5 802.5,1259.5C 795.144,1258.99 787.81,1258.32 780.5,1257.5C 778.505,1129.38 777.838,1001.04 778.5,872.5 Z"/></g>
<g><path style="opacity:0.998" fill="#934c9f" d="M 1654.5,875.5 C 1675.68,885.348 1694.34,898.682 1710.5,915.5C 1710.83,1044.67 1710.5,1173.67 1709.5,1302.5C 1708.4,1299.97 1707.07,1297.64 1705.5,1295.5C 1700.75,1285.67 1695.75,1276 1690.5,1266.5C 1687.93,1259.68 1684.59,1253.35 1680.5,1247.5C 1674.6,1234.02 1667.93,1221.02 1660.5,1208.5C 1658.44,1203.38 1656.1,1198.38 1653.5,1193.5C 1654.5,1087.67 1654.83,981.668 1654.5,875.5 Z"/></g>
<g><path style="opacity:0.998" fill="#006494" d="M 595.5,878.5 C 595.5,991.5 595.5,1104.5 595.5,1217.5C 594.5,1217.5 593.5,1217.5 592.5,1217.5C 589.843,1217.07 587.509,1216.07 585.5,1214.5C 585.5,1104.17 585.5,993.833 585.5,883.5C 588.55,881.308 591.883,879.642 595.5,878.5 Z"/></g>
<g><path style="opacity:0.995" fill="#823a97" d="M 1479.5,878.5 C 1479.5,925.5 1479.5,972.5 1479.5,1019.5C 1473.17,1018.42 1466.84,1017.42 1460.5,1016.5C 1454.16,1015.9 1447.82,1015.23 1441.5,1014.5C 1441.5,977.833 1441.5,941.167 1441.5,904.5C 1453.13,894.351 1465.79,885.684 1479.5,878.5 Z"/></g>
<g><path style="opacity:0.973" fill="#ec5480" d="M 2607.5,878.5 C 2607.5,911.833 2607.5,945.167 2607.5,978.5C 2593,958.869 2587.84,936.869 2592,912.5C 2594.24,899.692 2599.41,888.359 2607.5,878.5 Z"/></g>
<g><path style="opacity:0.998" fill="#006191" d="M 585.5,883.5 C 585.5,993.833 585.5,1104.17 585.5,1214.5C 576.395,1212.13 567.729,1208.8 559.5,1204.5C 559.5,1103.83 559.5,1003.17 559.5,902.5C 567.582,895.425 576.249,889.092 585.5,883.5 Z"/></g>
<g><path style="opacity:0.946" fill="#bf167a" d="M 2743.5,880.5 C 2759.07,903.98 2762.57,929.313 2754,956.5C 2751.5,963.508 2748,969.841 2743.5,975.5C 2743.5,943.833 2743.5,912.167 2743.5,880.5 Z"/></g>
<g><path style="opacity:0.998" fill="#0089ba" d="M 808.5,889.5 C 810.772,890.441 812.772,891.774 814.5,893.5C 814.5,1015.5 814.5,1137.5 814.5,1259.5C 817.385,1259.19 820.052,1259.53 822.5,1260.5C 817.786,1260.65 813.119,1260.31 808.5,1259.5C 808.5,1136.17 808.5,1012.83 808.5,889.5 Z"/></g>
<g><path style="opacity:0.998" fill="#008dbe" d="M 814.5,893.5 C 827.755,902.754 839.422,913.754 849.5,926.5C 849.5,1037.83 849.5,1149.17 849.5,1260.5C 859.833,1260.5 870.167,1260.5 880.5,1260.5C 881.833,1260.5 883.167,1260.5 884.5,1260.5C 870.01,1261.5 855.343,1261.83 840.5,1261.5C 834.536,1260.69 828.536,1260.36 822.5,1260.5C 820.052,1259.53 817.385,1259.19 814.5,1259.5C 814.5,1137.5 814.5,1015.5 814.5,893.5 Z"/></g>
<g><path style="opacity:0.998" fill="#005e8e" d="M 559.5,902.5 C 559.5,1003.17 559.5,1103.83 559.5,1204.5C 555.503,1203.4 551.836,1201.73 548.5,1199.5C 549.499,1103.67 549.833,1007.67 549.5,911.5C 552.808,908.529 556.141,905.529 559.5,902.5 Z"/></g>
<g><path style="opacity:0.992" fill="#7e3695" d="M 1441.5,904.5 C 1441.5,941.167 1441.5,977.833 1441.5,1014.5C 1434.14,1014.36 1426.8,1014.7 1419.5,1015.5C 1400.16,1016.78 1381.49,1020.94 1363.5,1028C 1361.93,1030.33 1360.27,1032.49 1358.5,1034.5C 1372.72,1006.4 1387.22,978.396 1402,950.5C 1413.05,933.418 1426.22,918.085 1441.5,904.5 Z"/></g>
<g><path style="opacity:0.996" fill="#005b8b" d="M 549.5,911.5 C 549.833,1007.67 549.499,1103.67 548.5,1199.5C 540.898,1196.7 533.565,1193.36 526.5,1189.5C 525.833,1187.5 525.167,1185.5 524.5,1183.5C 524.5,1102.83 524.5,1022.17 524.5,941.5C 531.333,930.326 539.666,920.326 549.5,911.5 Z"/></g>
<g><path style="opacity:0.998" fill="#9650a1" d="M 1710.5,915.5 C 1723.68,927.37 1733.35,941.703 1739.5,958.5C 1739.83,1092 1739.5,1225.33 1738.5,1358.5C 1737.97,1356.77 1736.97,1355.44 1735.5,1354.5C 1727.27,1336.94 1718.6,1319.61 1709.5,1302.5C 1710.5,1173.67 1710.83,1044.67 1710.5,915.5 Z"/></g>
<g><path style="opacity:0.994" fill="#d93a7e" d="M 2412.5,924.5 C 2412.5,963.5 2412.5,1002.5 2412.5,1041.5C 2409.21,1040.74 2405.88,1040.08 2402.5,1039.5C 2402.5,1001.5 2402.5,963.5 2402.5,925.5C 2405.81,924.949 2409.14,924.616 2412.5,924.5 Z"/></g>
<g><path style="opacity:0.993" fill="#d5357d" d="M 2412.5,924.5 C 2416.5,924.5 2420.5,924.5 2424.5,924.5C 2424.5,963.167 2424.5,1001.83 2424.5,1040.5C 2420.57,1041.36 2416.57,1041.69 2412.5,1041.5C 2412.5,1002.5 2412.5,963.5 2412.5,924.5 Z"/></g>
<g><path style="opacity:0.992" fill="#d02e7c" d="M 2424.5,924.5 C 2427.86,925.04 2431.2,925.706 2434.5,926.5C 2434.5,963.833 2434.5,1001.17 2434.5,1038.5C 2431.32,1039.79 2427.99,1040.46 2424.5,1040.5C 2424.5,1001.83 2424.5,963.167 2424.5,924.5 Z"/></g>
<g><path style="opacity:0.991" fill="#de417e" d="M 2402.5,925.5 C 2402.5,963.5 2402.5,1001.5 2402.5,1039.5C 2398.85,1038.73 2395.52,1037.4 2392.5,1035.5C 2392.5,1000.17 2392.5,964.833 2392.5,929.5C 2395.75,927.971 2399.09,926.638 2402.5,925.5 Z"/></g>
<g><path style="opacity:0.997" fill="#0093c4" d="M 849.5,926.5 C 862.322,940.79 872.655,956.79 880.5,974.5C 880.5,1069.83 880.5,1165.17 880.5,1260.5C 870.167,1260.5 859.833,1260.5 849.5,1260.5C 849.5,1149.17 849.5,1037.83 849.5,926.5 Z"/></g>
<g><path style="opacity:0.991" fill="#cc287c" d="M 2434.5,926.5 C 2438.15,927.657 2441.48,929.323 2444.5,931.5C 2444.5,965.833 2444.5,1000.17 2444.5,1034.5C 2441.4,1036.38 2438.06,1037.72 2434.5,1038.5C 2434.5,1001.17 2434.5,963.833 2434.5,926.5 Z"/></g>
<g><path style="opacity:0.99" fill="#e3477f" d="M 2392.5,929.5 C 2392.5,964.833 2392.5,1000.17 2392.5,1035.5C 2388.38,1034.27 2384.71,1032.27 2381.5,1029.5C 2381.5,998.5 2381.5,967.5 2381.5,936.5C 2384.62,933.432 2388.29,931.098 2392.5,929.5 Z"/></g>
<g><path style="opacity:0.989" fill="#c8227b" d="M 2444.5,931.5 C 2448.14,932.986 2451.47,934.986 2454.5,937.5C 2454.5,967.5 2454.5,997.5 2454.5,1027.5C 2451.55,1030.31 2448.22,1032.65 2444.5,1034.5C 2444.5,1000.17 2444.5,965.833 2444.5,931.5 Z"/></g>
<g><path style="opacity:0.98" fill="#c21b7a" d="M 2454.5,937.5 C 2475.73,957.496 2480.89,981.163 2470,1008.5C 2466.25,1016.01 2461.08,1022.34 2454.5,1027.5C 2454.5,997.5 2454.5,967.5 2454.5,937.5 Z"/></g>
<g><path style="opacity:0.986" fill="#000000" d="M 5562.5,938.5 C 5619.66,934.765 5673.66,945.932 5724.5,972C 5747.16,984.988 5767.16,1001.32 5784.5,1021C 5767.99,1036.85 5751.49,1052.68 5735,1068.5C 5683.76,1017.87 5622.26,998.035 5550.5,1009C 5486.15,1019.55 5437.65,1052.71 5405,1108.5C 5379.93,1157.54 5373.93,1208.88 5387,1262.5C 5409.91,1338.74 5460.08,1386.24 5537.5,1405C 5598.75,1418.19 5655.09,1407.19 5706.5,1372C 5716.3,1363.87 5725.8,1355.37 5735,1346.5C 5751.33,1362.17 5767.67,1377.83 5784,1393.5C 5783.25,1395.98 5781.92,1398.31 5780,1400.5C 5733.27,1446.94 5676.77,1472.44 5610.5,1477C 5530.08,1484.07 5458.41,1462.74 5395.5,1413C 5341.33,1365.16 5311.16,1305 5305,1232.5C 5297.54,1134.64 5331.7,1055.14 5407.5,994C 5453.84,960.72 5505.51,942.22 5562.5,938.5 Z"/></g>
<g><path style="opacity:0.986" fill="#000000" d="M 7607.5,938.5 C 7660.29,935.732 7711.29,943.898 7760.5,963C 7775.16,968.724 7788.49,976.391 7800.5,986C 7792.38,1006.36 7783.88,1026.53 7775,1046.5C 7712.13,1006.99 7644.29,994.826 7571.5,1010C 7547.65,1016 7528.48,1028.83 7514,1048.5C 7499.4,1074.34 7500.06,1099.68 7516,1124.5C 7527.83,1136.84 7541.67,1146.34 7557.5,1153C 7593.25,1165.02 7629.59,1175.02 7666.5,1183C 7692.44,1189.54 7717.77,1197.87 7742.5,1208C 7808.71,1239.59 7833.87,1291.42 7818,1363.5C 7805.32,1406.02 7778.82,1436.52 7738.5,1455C 7700.05,1471.38 7659.88,1479.22 7618,1478.5C 7558.79,1478.07 7502.96,1464.24 7450.5,1437C 7437.58,1430.04 7425.92,1421.37 7415.5,1411C 7424.7,1391.19 7434.37,1371.69 7444.5,1352.5C 7485.06,1385.1 7531.4,1404.6 7583.5,1411C 7609.54,1414.28 7635.54,1413.95 7661.5,1410C 7685.1,1407.36 7706.1,1398.7 7724.5,1384C 7749.03,1359.3 7753.87,1331.13 7739,1299.5C 7726.92,1283.53 7711.42,1272.03 7692.5,1265C 7679.96,1260.6 7667.29,1256.6 7654.5,1253C 7619.96,1244.78 7585.62,1235.78 7551.5,1226C 7524.74,1218.95 7500.07,1207.61 7477.5,1192C 7464.55,1181.38 7453.38,1169.22 7444,1155.5C 7428.81,1124.26 7424.81,1091.59 7432,1057.5C 7441,1019.97 7461.83,991.136 7494.5,971C 7529.61,950.976 7567.27,940.143 7607.5,938.5 Z"/></g>
<g><path style="opacity:0.98" fill="#e84e80" d="M 2381.5,936.5 C 2381.5,967.5 2381.5,998.5 2381.5,1029.5C 2377.1,1026.11 2373.44,1022.11 2370.5,1017.5C 2370.5,994.167 2370.5,970.833 2370.5,947.5C 2373.17,942.833 2376.83,939.167 2381.5,936.5 Z"/></g>
<g><path style="opacity:0.992" fill="#005888" d="M 524.5,941.5 C 524.5,1022.17 524.5,1102.83 524.5,1183.5C 520.915,1177.33 517.582,1171 514.5,1164.5C 514.5,1095.17 514.5,1025.83 514.5,956.5C 517.102,950.947 520.436,945.947 524.5,941.5 Z"/></g>
<g><path style="opacity:0.992" fill="#000000" d="M 3127.5,944.5 C 3170.17,944.5 3212.83,944.5 3255.5,944.5C 3294.36,1067.24 3333.52,1189.91 3373,1312.5C 3414.87,1190.06 3456.04,1067.39 3496.5,944.5C 3534.74,944.17 3572.91,944.504 3611,945.5C 3650.55,1068.7 3690.55,1191.7 3731,1314.5C 3771.6,1191.53 3812.1,1068.53 3852.5,945.5C 3891.83,944.167 3931.17,944.167 3970.5,945.5C 3913.17,1120.5 3855.83,1295.5 3798.5,1470.5C 3754.17,1471.5 3709.84,1471.83 3665.5,1471.5C 3627.84,1353.36 3589.68,1235.36 3551,1117.5C 3510.99,1235.35 3471.49,1353.35 3432.5,1471.5C 3388.26,1471.83 3344.09,1471.5 3300,1470.5C 3242.39,1295.18 3184.89,1119.85 3127.5,944.5 Z"/></g>
<g><path style="opacity:0.994" fill="#000000" d="M 4037.5,944.5 C 4170.5,944.5 4303.5,944.5 4436.5,944.5C 4436.5,977.5 4436.5,1010.5 4436.5,1043.5C 4344.17,1043.5 4251.83,1043.5 4159.5,1043.5C 4159.5,1081.17 4159.5,1118.83 4159.5,1156.5C 4241.17,1156.5 4322.83,1156.5 4404.5,1156.5C 4404.5,1188.5 4404.5,1220.5 4404.5,1252.5C 4322.83,1252.5 4241.17,1252.5 4159.5,1252.5C 4159.5,1292.83 4159.5,1333.17 4159.5,1373.5C 4255.17,1373.5 4350.83,1373.5 4446.5,1373.5C 4446.5,1406.17 4446.5,1438.83 4446.5,1471.5C 4310.17,1471.5 4173.83,1471.5 4037.5,1471.5C 4037.5,1295.83 4037.5,1120.17 4037.5,944.5 Z"/></g>
<g><path style="opacity:0.994" fill="#000000" d="M 4542.5,944.5 C 4641.51,944.035 4740.51,944.535 4839.5,946C 4872.18,948.251 4903.18,956.585 4932.5,971C 4983.06,999.29 5005.23,1042.46 4999,1100.5C 4992.38,1143.6 4970.21,1175.93 4932.5,1197.5C 4993.8,1219.32 5025.14,1262.82 5026.5,1328C 5025.47,1386.01 4998.47,1426.68 4945.5,1450C 4914.36,1462.36 4882.02,1469.36 4848.5,1471C 4746.5,1471.5 4644.5,1471.67 4542.5,1471.5C 4542.5,1295.83 4542.5,1120.17 4542.5,944.5 Z M 4664.5,1037.5 C 4711.17,1037.33 4757.83,1037.5 4804.5,1038C 4821.61,1039.04 4837.61,1043.71 4852.5,1052C 4868.78,1063.06 4876.78,1078.56 4876.5,1098.5C 4874.87,1128.9 4859.2,1147.74 4829.5,1155C 4818.67,1157.78 4807.67,1159.45 4796.5,1160C 4752.5,1160.5 4708.5,1160.67 4664.5,1160.5C 4664.5,1119.5 4664.5,1078.5 4664.5,1037.5 Z M 4664.5,1250.5 C 4718.83,1250.33 4773.17,1250.5 4827.5,1251C 4844.87,1252.09 4861.21,1256.76 4876.5,1265C 4894.38,1276.76 4903.05,1293.42 4902.5,1315C 4903.05,1337.57 4893.72,1354.57 4874.5,1366C 4856.15,1374.54 4836.81,1378.87 4816.5,1379C 4765.83,1379.5 4715.17,1379.67 4664.5,1379.5C 4664.5,1336.5 4664.5,1293.5 4664.5,1250.5 Z"/></g>
<g><path style="opacity:0.986" fill="#000000" d="M 5890.5,944.5 C 5966.83,944.333 6043.17,944.5 6119.5,945C 6168.8,946.145 6213.47,960.812 6253.5,989C 6297.05,1024.96 6318.39,1071.46 6317.5,1128.5C 6316.46,1210.64 6277.79,1266.14 6201.5,1295C 6242.92,1353.84 6284.59,1412.51 6326.5,1471C 6298.5,1471.67 6270.5,1471.67 6242.5,1471C 6205.08,1417.49 6167.41,1364.16 6129.5,1311C 6075.52,1311.46 6021.52,1311.62 5967.5,1311.5C 5967.5,1364.83 5967.5,1418.17 5967.5,1471.5C 5941.83,1471.5 5916.17,1471.5 5890.5,1471.5C 5890.5,1295.83 5890.5,1120.17 5890.5,944.5 Z M 5967.5,1010.5 C 6018.52,1010.08 6069.52,1010.58 6120.5,1012C 6151.61,1013.7 6179.61,1023.7 6204.5,1042C 6229.83,1065.14 6241.83,1093.97 6240.5,1128.5C 6238.87,1191.31 6207.2,1229.14 6145.5,1242C 6135.91,1243.91 6126.25,1245.24 6116.5,1246C 6066.83,1246.5 6017.17,1246.67 5967.5,1246.5C 5967.5,1167.83 5967.5,1089.17 5967.5,1010.5 Z"/></g>
<g><path style="opacity:0.988" fill="#000000" d="M 6596.5,944.5 C 6621.84,944.167 6647.18,944.5 6672.5,945.5C 6752.07,1120.73 6831.74,1295.89 6911.5,1471C 6884.83,1471.67 6858.17,1471.67 6831.5,1471C 6811.89,1427.78 6792.56,1384.45 6773.5,1341C 6680.5,1340.33 6587.5,1340.33 6494.5,1341C 6475.37,1384.09 6456.37,1427.26 6437.5,1470.5C 6411.17,1471.83 6384.83,1471.83 6358.5,1470.5C 6437.85,1295.15 6517.18,1119.81 6596.5,944.5 Z M 6633.5,1023.5 C 6671.39,1108.29 6709.06,1193.29 6746.5,1278.5C 6671.5,1279.83 6596.5,1279.83 6521.5,1278.5C 6559.12,1193.6 6596.45,1108.6 6633.5,1023.5 Z"/></g>
<g><path style="opacity:0.986" fill="#000000" d="M 6988.5,944.5 C 7112.83,944.5 7237.17,944.5 7361.5,944.5C 7361.5,966.5 7361.5,988.5 7361.5,1010.5C 7262.83,1010.5 7164.17,1010.5 7065.5,1010.5C 7065.5,1071.5 7065.5,1132.5 7065.5,1193.5C 7153.5,1193.5 7241.5,1193.5 7329.5,1193.5C 7329.5,1215.5 7329.5,1237.5 7329.5,1259.5C 7241.5,1259.5 7153.5,1259.5 7065.5,1259.5C 7065.5,1330.17 7065.5,1400.83 7065.5,1471.5C 7039.83,1471.5 7014.17,1471.5 6988.5,1471.5C 6988.5,1295.83 6988.5,1120.17 6988.5,944.5 Z"/></g>
<g><path style="opacity:0.988" fill="#000000" d="M 7930.5,944.5 C 8054.83,944.5 8179.17,944.5 8303.5,944.5C 8303.5,966.5 8303.5,988.5 8303.5,1010.5C 8204.83,1010.5 8106.17,1010.5 8007.5,1010.5C 8007.5,1064.17 8007.5,1117.83 8007.5,1171.5C 8095.5,1171.5 8183.5,1171.5 8271.5,1171.5C 8271.5,1193.17 8271.5,1214.83 8271.5,1236.5C 8183.5,1236.5 8095.5,1236.5 8007.5,1236.5C 8007.5,1292.83 8007.5,1349.17 8007.5,1405.5C 8109.83,1405.5 8212.17,1405.5 8314.5,1405.5C 8314.5,1427.5 8314.5,1449.5 8314.5,1471.5C 8186.5,1471.5 8058.5,1471.5 7930.5,1471.5C 7930.5,1295.83 7930.5,1120.17 7930.5,944.5 Z"/></g>
<g><path style="opacity:0.986" fill="#000000" d="M 8434.5,944.5 C 8510.83,944.333 8587.17,944.5 8663.5,945C 8712.8,946.145 8757.47,960.812 8797.5,989C 8841.05,1024.96 8862.39,1071.46 8861.5,1128.5C 8860.46,1210.64 8821.79,1266.14 8745.5,1295C 8786.92,1353.84 8828.59,1412.51 8870.5,1471C 8842.5,1471.67 8814.5,1471.67 8786.5,1471C 8749.08,1417.49 8711.41,1364.16 8673.5,1311C 8619.52,1311.46 8565.52,1311.62 8511.5,1311.5C 8511.5,1364.83 8511.5,1418.17 8511.5,1471.5C 8485.83,1471.5 8460.17,1471.5 8434.5,1471.5C 8434.5,1295.83 8434.5,1120.17 8434.5,944.5 Z M 8511.5,1010.5 C 8562.52,1010.08 8613.52,1010.58 8664.5,1012C 8695.61,1013.7 8723.61,1023.7 8748.5,1042C 8773.83,1065.14 8785.83,1093.97 8784.5,1128.5C 8782.87,1191.31 8751.2,1229.14 8689.5,1242C 8679.91,1243.91 8670.25,1245.24 8660.5,1246C 8610.83,1246.5 8561.17,1246.67 8511.5,1246.5C 8511.5,1167.83 8511.5,1089.17 8511.5,1010.5 Z"/></g>
<g><path style="opacity:0.966" fill="#ec5480" d="M 2370.5,947.5 C 2370.5,970.833 2370.5,994.167 2370.5,1017.5C 2362.27,1007.64 2358.27,996.136 2358.5,983C 2358.44,969.666 2362.44,957.833 2370.5,947.5 Z"/></g>
<g><path style="opacity:0.983" fill="#005585" d="M 514.5,956.5 C 514.5,1025.83 514.5,1095.17 514.5,1164.5C 481.168,1103.62 477.668,1040.96 504,976.5C 507.274,969.614 510.774,962.947 514.5,956.5 Z"/></g>
<g><path style="opacity:0.997" fill="#9852a1" d="M 1739.5,958.5 C 1744.59,966.354 1748.93,974.687 1752.5,983.5C 1752.83,1117.33 1752.5,1251 1751.5,1384.5C 1751.5,1383.83 1751.17,1383.5 1750.5,1383.5C 1746.75,1375.01 1742.75,1366.68 1738.5,1358.5C 1739.5,1225.33 1739.83,1092 1739.5,958.5 Z"/></g>
<g><path style="opacity:0.996" fill="#0098ca" d="M 880.5,974.5 C 894.34,1000.18 907.674,1026.18 920.5,1052.5C 920.5,1121.17 920.5,1189.83 920.5,1258.5C 922.167,1258.5 923.833,1258.5 925.5,1258.5C 920.36,1259.49 915.026,1259.82 909.5,1259.5C 901.174,1259.98 892.84,1260.31 884.5,1260.5C 883.167,1260.5 881.833,1260.5 880.5,1260.5C 880.5,1165.17 880.5,1069.83 880.5,974.5 Z"/></g>
<g><path style="opacity:0.997" fill="#9a54a3" d="M 1752.5,983.5 C 1768.42,1013.67 1784.08,1044 1799.5,1074.5C 1799.83,1208.33 1799.5,1342 1798.5,1475.5C 1797.74,1473.63 1796.74,1471.96 1795.5,1470.5C 1791.42,1462 1787.08,1453.67 1782.5,1445.5C 1772.44,1425.04 1762.1,1404.7 1751.5,1384.5C 1752.5,1251 1752.83,1117.33 1752.5,983.5 Z"/></g>
<g><path style="opacity:1" fill="#508ac5" d="M 1419.5,1015.5 C 1394.69,1071.92 1369.69,1128.25 1344.5,1184.5C 1342.08,1184.12 1339.75,1183.46 1337.5,1182.5C 1332.5,1180.5 1327.5,1178.5 1322.5,1176.5C 1315.92,1174.52 1309.25,1172.85 1302.5,1171.5C 1299.2,1170.71 1295.86,1170.04 1292.5,1169.5C 1291.51,1169.67 1290.84,1169.34 1290.5,1168.5C 1291.44,1166.95 1292.11,1165.28 1292.5,1163.5C 1296.66,1153.85 1301.33,1144.52 1306.5,1135.5C 1308.25,1134.34 1309.25,1132.67 1309.5,1130.5C 1313.66,1120.85 1318.33,1111.52 1323.5,1102.5C 1325.1,1101.71 1325.77,1100.38 1325.5,1098.5C 1326.91,1098.03 1327.57,1097.03 1327.5,1095.5C 1331.66,1085.85 1336.33,1076.52 1341.5,1067.5C 1343.25,1066.34 1344.25,1064.67 1344.5,1062.5C 1348.66,1052.85 1353.33,1043.52 1358.5,1034.5C 1360.27,1032.49 1361.93,1030.33 1363.5,1028C 1381.49,1020.94 1400.16,1016.78 1419.5,1015.5 Z"/></g>
<g><path style="opacity:1" fill="#5388c2" d="M 1441.5,1014.5 C 1447.82,1015.23 1454.16,1015.9 1460.5,1016.5C 1433.62,1079.26 1405.95,1141.59 1377.5,1203.5C 1375.67,1202.75 1374,1201.75 1372.5,1200.5C 1369.17,1198.5 1365.83,1196.5 1362.5,1194.5C 1356.46,1191.15 1350.46,1187.82 1344.5,1184.5C 1369.69,1128.25 1394.69,1071.92 1419.5,1015.5C 1426.8,1014.7 1434.14,1014.36 1441.5,1014.5 Z"/></g>
<g><path style="opacity:1" fill="#5687c0" d="M 1460.5,1016.5 C 1466.84,1017.42 1473.17,1018.42 1479.5,1019.5C 1483.12,1020.66 1486.79,1021.66 1490.5,1022.5C 1461.07,1089.69 1431.4,1156.69 1401.5,1223.5C 1398.12,1220.12 1394.46,1217.12 1390.5,1214.5C 1386.35,1210.6 1382.02,1206.93 1377.5,1203.5C 1405.95,1141.59 1433.62,1079.26 1460.5,1016.5 Z"/></g>
<g><path style="opacity:0.999" fill="#b41875" d="M 2262.5,1033.5 C 2262.5,1253.17 2262.5,1472.83 2262.5,1692.5C 2259.57,1693.3 2256.57,1693.63 2253.5,1693.5C 2253.5,1473.5 2253.5,1253.5 2253.5,1033.5C 2256.48,1032.32 2259.48,1032.32 2262.5,1033.5 Z"/></g>
<g><path style="opacity:0.999" fill="#b71875" d="M 2253.5,1033.5 C 2253.5,1253.5 2253.5,1473.5 2253.5,1693.5C 2241.75,1693.82 2230.08,1693.15 2218.5,1691.5C 2218.5,1475.17 2218.5,1258.83 2218.5,1042.5C 2229.3,1036.55 2240.96,1033.55 2253.5,1033.5 Z"/></g>
<g><path style="opacity:0.995" fill="#b11973" d="M 2262.5,1033.5 C 2285.2,1034.35 2304.2,1043.02 2319.5,1059.5C 2319.5,1100.17 2319.5,1140.83 2319.5,1181.5C 2317.62,1184.11 2315.29,1186.28 2312.5,1188C 2303.9,1192.94 2295.57,1198.27 2287.5,1204C 2278.91,1214.02 2273.07,1225.52 2270,1238.5C 2256.9,1283.04 2267.07,1321.21 2300.5,1353C 2306.25,1357.54 2312.58,1361.04 2319.5,1363.5C 2319.5,1468.83 2319.5,1574.17 2319.5,1679.5C 2301.21,1686.76 2282.21,1691.09 2262.5,1692.5C 2262.5,1472.83 2262.5,1253.17 2262.5,1033.5 Z"/></g>
<g><path style="opacity:1" fill="#5c82ba" d="M 1534.5,1040.5 C 1541.69,1044.26 1548.69,1048.26 1555.5,1052.5C 1555.5,1052.83 1555.5,1053.17 1555.5,1053.5C 1555.31,1055.56 1554.81,1057.56 1554,1059.5C 1519.21,1137.4 1484.71,1215.4 1450.5,1293.5C 1445.27,1284.01 1439.94,1274.51 1434.5,1265C 1467.7,1190.1 1501.04,1115.26 1534.5,1040.5 Z"/></g>
<g><path style="opacity:0.999" fill="#ba1777" d="M 2218.5,1042.5 C 2218.5,1258.83 2218.5,1475.17 2218.5,1691.5C 2210.84,1691.23 2203.51,1689.89 2196.5,1687.5C 2198.5,1477.17 2199.17,1266.5 2198.5,1055.5C 2204.13,1049.68 2210.8,1045.34 2218.5,1042.5 Z"/></g>
<g><path style="opacity:1" fill="#5f80b7" d="M 1555.5,1053.5 C 1562.62,1058.79 1569.62,1064.29 1576.5,1070C 1581.41,1074.41 1585.74,1079.24 1589.5,1084.5C 1550.95,1170.26 1512.95,1256.26 1475.5,1342.5C 1470.17,1332.5 1464.83,1322.5 1459.5,1312.5C 1456.24,1306.31 1453.24,1299.98 1450.5,1293.5C 1484.71,1215.4 1519.21,1137.4 1554,1059.5C 1554.81,1057.56 1555.31,1055.56 1555.5,1053.5 Z"/></g>
<g><path style="opacity:0.998" fill="#be1678" d="M 2198.5,1055.5 C 2199.17,1266.5 2198.5,1477.17 2196.5,1687.5C 2176.42,1683.12 2157.75,1675.45 2140.5,1664.5C 2141.5,1512 2141.83,1359.33 2141.5,1206.5C 2149.74,1190.69 2156.9,1174.35 2163,1157.5C 2168.62,1132.4 2174.62,1107.4 2181,1082.5C 2184.85,1072.1 2190.69,1063.1 2198.5,1055.5 Z"/></g>
<g><path style="opacity:0.993" fill="#009fd0" d="M 920.5,1052.5 C 933.007,1075.51 945.007,1098.85 956.5,1122.5C 956.5,1166.83 956.5,1211.17 956.5,1255.5C 951.553,1256.28 946.553,1256.95 941.5,1257.5C 936.155,1257.69 930.822,1258.02 925.5,1258.5C 923.833,1258.5 922.167,1258.5 920.5,1258.5C 920.5,1189.83 920.5,1121.17 920.5,1052.5 Z"/></g>
<g><path style="opacity:0.974" fill="#ad1a72" d="M 2319.5,1059.5 C 2336.59,1076.07 2344.92,1096.41 2344.5,1120.5C 2344.92,1144.59 2336.59,1164.93 2319.5,1181.5C 2319.5,1140.83 2319.5,1100.17 2319.5,1059.5 Z"/></g>
<g><path style="opacity:0.996" fill="#9a1c6b" d="M 2522.5,1062.5 C 2522.5,1163.5 2522.5,1264.5 2522.5,1365.5C 2512.34,1386.49 2501.67,1407.15 2490.5,1427.5C 2490.5,1307.17 2490.5,1186.83 2490.5,1066.5C 2500.94,1063.43 2511.6,1062.09 2522.5,1062.5 Z"/></g>
<g><path style="opacity:0.995" fill="#971d69" d="M 2522.5,1062.5 C 2533.63,1062.02 2544.3,1063.69 2554.5,1067.5C 2554.5,1151.5 2554.5,1235.5 2554.5,1319.5C 2543.34,1334.49 2532.67,1349.83 2522.5,1365.5C 2522.5,1264.5 2522.5,1163.5 2522.5,1062.5 Z"/></g>
<g><path style="opacity:0.533" fill="#71449d" d="M 1344.5,1062.5 C 1344.25,1064.67 1343.25,1066.34 1341.5,1067.5C 1341.75,1065.33 1342.75,1063.66 1344.5,1062.5 Z"/></g>
<g><path style="opacity:0.996" fill="#9f1c6c" d="M 2490.5,1066.5 C 2490.5,1186.83 2490.5,1307.17 2490.5,1427.5C 2472.26,1464.98 2453.26,1501.98 2433.5,1538.5C 2433.5,1395.5 2433.5,1252.5 2433.5,1109.5C 2447.61,1088.73 2466.61,1074.4 2490.5,1066.5 Z"/></g>
<g><path style="opacity:0.993" fill="#921e68" d="M 2554.5,1067.5 C 2573.47,1073.4 2589.63,1083.74 2603,1098.5C 2606.47,1102.12 2609.3,1106.12 2611.5,1110.5C 2611.5,1160.83 2611.5,1211.17 2611.5,1261.5C 2610.22,1263.95 2608.72,1266.28 2607,1268.5C 2588,1284 2570.5,1301 2554.5,1319.5C 2554.5,1235.5 2554.5,1151.5 2554.5,1067.5 Z"/></g>
<g><path style="opacity:0.997" fill="#9c57a3" d="M 1799.5,1074.5 C 1803.01,1080.18 1806.01,1086.18 1808.5,1092.5C 1808.83,1226.33 1808.5,1360 1807.5,1493.5C 1804.5,1487.5 1801.5,1481.5 1798.5,1475.5C 1799.5,1342 1799.83,1208.33 1799.5,1074.5 Z"/></g>
<g><path style="opacity:1" fill="#627eb4" d="M 1589.5,1084.5 C 1591.17,1085.83 1592.83,1087.17 1594.5,1088.5C 1599.49,1095.8 1604.49,1103.14 1609.5,1110.5C 1571.29,1199.24 1532.29,1287.58 1492.5,1375.5C 1487.18,1365.53 1481.85,1355.53 1476.5,1345.5C 1475.89,1344.61 1475.56,1343.61 1475.5,1342.5C 1512.95,1256.26 1550.95,1170.26 1589.5,1084.5 Z"/></g>
<g><path style="opacity:0.997" fill="#9f5aa5" d="M 1808.5,1092.5 C 1833.01,1138.85 1857.01,1185.51 1880.5,1232.5C 1880.5,1363.5 1880.5,1494.5 1880.5,1625.5C 1882.5,1625.5 1884.5,1625.5 1886.5,1625.5C 1883.04,1626.48 1879.37,1626.81 1875.5,1626.5C 1864.34,1603.51 1852.67,1580.85 1840.5,1558.5C 1830.01,1536.85 1819.01,1515.51 1807.5,1494.5C 1807.5,1494.17 1807.5,1493.83 1807.5,1493.5C 1808.5,1360 1808.83,1226.33 1808.5,1092.5 Z"/></g>
<g><path style="opacity:0.533" fill="#71419b" d="M 1327.5,1095.5 C 1327.57,1097.03 1326.91,1098.03 1325.5,1098.5C 1325.43,1096.97 1326.09,1095.97 1327.5,1095.5 Z"/></g>
<g><path style="opacity:0.565" fill="#70429c" d="M 1325.5,1098.5 C 1325.77,1100.38 1325.1,1101.71 1323.5,1102.5C 1323.66,1100.85 1324.33,1099.51 1325.5,1098.5 Z"/></g>
<g><path style="opacity:0.991" fill="#a51b6f" d="M 2433.5,1109.5 C 2433.5,1252.5 2433.5,1395.5 2433.5,1538.5C 2415.26,1575.98 2396.26,1612.98 2376.5,1649.5C 2376.17,1649.5 2375.83,1649.5 2375.5,1649.5C 2376.62,1648.35 2376.62,1647.35 2375.5,1646.5C 2376.5,1547.9 2376.83,1449.24 2376.5,1350.5C 2398.95,1327.59 2411.78,1299.92 2415,1267.5C 2418.04,1243.17 2416.37,1219.17 2410,1195.5C 2407.26,1163.78 2415.09,1135.12 2433.5,1109.5 Z"/></g>
<g><path style="opacity:0.97" fill="#8e1f66" d="M 2611.5,1110.5 C 2627.42,1132.96 2635.42,1158.13 2635.5,1186C 2635.18,1213.79 2627.18,1238.96 2611.5,1261.5C 2611.5,1211.17 2611.5,1160.83 2611.5,1110.5 Z"/></g>
<g><path style="opacity:1" fill="#647cb2" d="M 1609.5,1110.5 C 1613.67,1116.84 1617.34,1123.5 1620.5,1130.5C 1580.72,1218.86 1541.72,1307.53 1503.5,1396.5C 1502.17,1394.5 1500.83,1392.5 1499.5,1390.5C 1497.42,1385.35 1495.09,1380.35 1492.5,1375.5C 1532.29,1287.58 1571.29,1199.24 1609.5,1110.5 Z"/></g>
<g><path style="opacity:0.988" fill="#00a6d7" d="M 956.5,1122.5 C 978.673,1164.18 1000.34,1206.18 1021.5,1248.5C 1020.74,1248.08 1019.9,1247.74 1019,1247.5C 1002.88,1250.22 986.71,1252.55 970.5,1254.5C 965.848,1255 961.181,1255.33 956.5,1255.5C 956.5,1211.17 956.5,1166.83 956.5,1122.5 Z"/></g>
<g><path style="opacity:1" fill="#667bb0" d="M 1620.5,1130.5 C 1624.5,1137.83 1628.5,1145.17 1632.5,1152.5C 1637.09,1161.35 1641.42,1170.35 1645.5,1179.5C 1606.17,1267.5 1566.83,1355.5 1527.5,1443.5C 1524.59,1438.69 1521.93,1433.69 1519.5,1428.5C 1513.64,1418.12 1508.31,1407.45 1503.5,1396.5C 1541.72,1307.53 1580.72,1218.86 1620.5,1130.5 Z"/></g>
<g><path style="opacity:0.533" fill="#6e429c" d="M 1309.5,1130.5 C 1309.25,1132.67 1308.25,1134.34 1306.5,1135.5C 1306.75,1133.33 1307.75,1131.66 1309.5,1130.5 Z"/></g>
<g><path style="opacity:0.533" fill="#6d429d" d="M 1292.5,1163.5 C 1292.11,1165.28 1291.44,1166.95 1290.5,1168.5C 1290.17,1168.5 1289.83,1168.5 1289.5,1168.5C 1289.75,1166.33 1290.75,1164.66 1292.5,1163.5 Z"/></g>
<g><path style="opacity:0.998" fill="#6f74a7" d="M 1289.5,1168.5 C 1289.83,1168.5 1290.17,1168.5 1290.5,1168.5C 1290.84,1169.34 1291.51,1169.67 1292.5,1169.5C 1292.5,1460.83 1292.5,1752.17 1292.5,2043.5C 1288.22,2050.11 1283.22,2056.11 1277.5,2061.5C 1277.5,1771.83 1277.5,1482.17 1277.5,1192.5C 1280.99,1184.18 1284.99,1176.18 1289.5,1168.5 Z"/></g>
<g><path style="opacity:0.999" fill="#6d76a9" d="M 1292.5,1169.5 C 1295.86,1170.04 1299.2,1170.71 1302.5,1171.5C 1302.5,1457.83 1302.5,1744.17 1302.5,2030.5C 1299.88,2035.41 1296.55,2039.75 1292.5,2043.5C 1292.5,1752.17 1292.5,1460.83 1292.5,1169.5 Z"/></g>
<g><path style="opacity:0.999" fill="#6b77ab" d="M 1302.5,1171.5 C 1309.25,1172.85 1315.92,1174.52 1322.5,1176.5C 1322.5,1451.5 1322.5,1726.5 1322.5,2001.5C 1316.56,2011.73 1309.89,2021.39 1302.5,2030.5C 1302.5,1744.17 1302.5,1457.83 1302.5,1171.5 Z"/></g>
<g><path style="opacity:0.999" fill="#6979ad" d="M 1322.5,1176.5 C 1327.5,1178.5 1332.5,1180.5 1337.5,1182.5C 1337.5,1447.17 1337.5,1711.83 1337.5,1976.5C 1332.89,1985.1 1327.89,1993.43 1322.5,2001.5C 1322.5,1726.5 1322.5,1451.5 1322.5,1176.5 Z"/></g>
<g><path style="opacity:1" fill="#6979ad" d="M 1645.5,1179.5 C 1648.67,1183.84 1651.34,1188.5 1653.5,1193.5C 1656.1,1198.38 1658.44,1203.38 1660.5,1208.5C 1620.72,1296.86 1581.72,1385.53 1543.5,1474.5C 1537.92,1464.33 1532.58,1454 1527.5,1443.5C 1566.83,1355.5 1606.17,1267.5 1645.5,1179.5 Z"/></g>
<g><path style="opacity:0.999" fill="#667bb0" d="M 1337.5,1182.5 C 1339.75,1183.46 1342.08,1184.12 1344.5,1184.5C 1350.46,1187.82 1356.46,1191.15 1362.5,1194.5C 1362.5,1438.83 1362.5,1683.17 1362.5,1927.5C 1354.93,1944.31 1346.6,1960.64 1337.5,1976.5C 1337.5,1711.83 1337.5,1447.17 1337.5,1182.5 Z"/></g>
<g><path style="opacity:0.998" fill="#7272a4" d="M 1277.5,1192.5 C 1277.5,1482.17 1277.5,1771.83 1277.5,2061.5C 1268.8,2072.54 1258.8,2082.21 1247.5,2090.5C 1247.5,1810.5 1247.5,1530.5 1247.5,1250.5C 1256.99,1230.85 1266.99,1211.51 1277.5,1192.5 Z"/></g>
<g><path style="opacity:0.999" fill="#647db2" d="M 1362.5,1194.5 C 1365.83,1196.5 1369.17,1198.5 1372.5,1200.5C 1372.5,1436.5 1372.5,1672.5 1372.5,1908.5C 1369.93,1915.32 1366.59,1921.65 1362.5,1927.5C 1362.5,1683.17 1362.5,1438.83 1362.5,1194.5 Z"/></g>
<g><path style="opacity:0.998" fill="#627eb4" d="M 1372.5,1200.5 C 1374,1201.75 1375.67,1202.75 1377.5,1203.5C 1382.02,1206.93 1386.35,1210.6 1390.5,1214.5C 1390.5,1434.17 1390.5,1653.83 1390.5,1873.5C 1384.75,1885.33 1378.75,1897 1372.5,1908.5C 1372.5,1672.5 1372.5,1436.5 1372.5,1200.5 Z"/></g>
<g><path style="opacity:0.989" fill="#4f8bc6" d="M 526.5,1189.5 C 533.565,1193.36 540.898,1196.7 548.5,1199.5C 551.836,1201.73 555.503,1203.4 559.5,1204.5C 567.729,1208.8 576.395,1212.13 585.5,1214.5C 587.509,1216.07 589.843,1217.07 592.5,1217.5C 601.958,1221.21 611.625,1224.54 621.5,1227.5C 609.072,1252.03 596.405,1276.36 583.5,1300.5C 564.232,1263.63 545.232,1226.63 526.5,1189.5 Z"/></g>
<g><path style="opacity:0.997" fill="#c4157a" d="M 2141.5,1206.5 C 2141.83,1359.33 2141.5,1512 2140.5,1664.5C 2135.43,1663.03 2130.43,1661.36 2125.5,1659.5C 2109.57,1647.9 2095.57,1634.23 2083.5,1618.5C 2084.5,1518 2084.83,1417.33 2084.5,1316.5C 2102.48,1279.2 2121.48,1242.53 2141.5,1206.5 Z"/></g>
<g><path style="opacity:1" fill="#6b77ab" d="M 1660.5,1208.5 C 1667.93,1221.02 1674.6,1234.02 1680.5,1247.5C 1640.72,1335.86 1601.72,1424.53 1563.5,1513.5C 1556.58,1500.66 1549.92,1487.66 1543.5,1474.5C 1581.72,1385.53 1620.72,1296.86 1660.5,1208.5 Z"/></g>
<g><path style="opacity:0.998" fill="#5f80b7" d="M 1390.5,1214.5 C 1394.46,1217.12 1398.12,1220.12 1401.5,1223.5C 1406.54,1228.54 1411.21,1233.87 1415.5,1239.5C 1415.5,1434.5 1415.5,1629.5 1415.5,1824.5C 1407.93,1841.31 1399.6,1857.64 1390.5,1873.5C 1390.5,1653.83 1390.5,1434.17 1390.5,1214.5 Z"/></g>
<g><path style="opacity:0.997" fill="#a35ea7" d="M 1880.5,1232.5 C 1892.34,1254.18 1903.67,1276.18 1914.5,1298.5C 1914.5,1407.5 1914.5,1516.5 1914.5,1625.5C 1913.5,1625.5 1912.5,1625.5 1911.5,1625.5C 1903.17,1625.5 1894.83,1625.5 1886.5,1625.5C 1884.5,1625.5 1882.5,1625.5 1880.5,1625.5C 1880.5,1494.5 1880.5,1363.5 1880.5,1232.5 Z"/></g>
<g><path style="opacity:0.996" fill="#5389c2" d="M 621.5,1227.5 C 622.167,1227.5 622.833,1227.5 623.5,1227.5C 626.907,1229.07 630.573,1230.07 634.5,1230.5C 642.921,1233.35 651.588,1235.69 660.5,1237.5C 663.311,1238.47 666.311,1239.14 669.5,1239.5C 674.358,1241.3 679.358,1242.63 684.5,1243.5C 663.34,1285.82 641.673,1327.82 619.5,1369.5C 607.261,1346.69 595.261,1323.69 583.5,1300.5C 596.405,1276.36 609.072,1252.03 621.5,1227.5 Z"/></g>
<g><path style="opacity:0.998" fill="#5c82ba" d="M 1415.5,1239.5 C 1420.55,1245.25 1425.39,1251.25 1430,1257.5C 1430.5,1436.83 1430.67,1616.17 1430.5,1795.5C 1426.26,1805.65 1421.26,1815.31 1415.5,1824.5C 1415.5,1629.5 1415.5,1434.5 1415.5,1239.5 Z"/></g>
<g><path style="opacity:0.996" fill="#5687c0" d="M 684.5,1243.5 C 688.426,1244.55 692.426,1245.22 696.5,1245.5C 698.265,1246.46 700.265,1246.79 702.5,1246.5C 712.233,1249.01 722.233,1250.68 732.5,1251.5C 733.391,1252.11 734.391,1252.44 735.5,1252.5C 705.911,1309.34 676.578,1366.34 647.5,1423.5C 637.66,1405.82 628.327,1387.82 619.5,1369.5C 641.673,1327.82 663.34,1285.82 684.5,1243.5 Z"/></g>
<g><path style="opacity:0.999" fill="#667baf" d="M 1021.5,1248.5 C 1022.67,1249.51 1023.34,1250.85 1023.5,1252.5C 1022.88,1252.39 1022.38,1252.06 1022,1251.5C 946.333,1398.83 870.667,1546.17 795,1693.5C 793.609,1696.34 791.776,1698.67 789.5,1700.5C 781.308,1685.45 773.642,1670.12 766.5,1654.5C 771.103,1643.29 776.27,1632.29 782,1621.5C 845.37,1499.43 908.203,1377.09 970.5,1254.5C 986.71,1252.55 1002.88,1250.22 1019,1247.5C 1019.9,1247.74 1020.74,1248.08 1021.5,1248.5 Z"/></g>
<g><path style="opacity:1" fill="#6d75a9" d="M 1680.5,1247.5 C 1684.59,1253.35 1687.93,1259.68 1690.5,1266.5C 1652.01,1353.47 1613.51,1440.47 1575,1527.5C 1574.52,1529.18 1573.68,1529.84 1572.5,1529.5C 1571.73,1528.31 1570.73,1527.31 1569.5,1526.5C 1567.5,1522.17 1565.5,1517.83 1563.5,1513.5C 1601.72,1424.53 1640.72,1335.86 1680.5,1247.5 Z"/></g>
<g><path style="opacity:0.999" fill="#6979ad" d="M 1023.5,1252.5 C 1027.67,1259.52 1031.34,1266.85 1034.5,1274.5C 1035.83,1277.83 1037.17,1281.17 1038.5,1284.5C 961.422,1434.32 884.089,1583.99 806.5,1733.5C 801.089,1722.34 795.422,1711.34 789.5,1700.5C 791.776,1698.67 793.609,1696.34 795,1693.5C 870.667,1546.17 946.333,1398.83 1022,1251.5C 1022.38,1252.06 1022.88,1252.39 1023.5,1252.5 Z"/></g>
<g><path style="opacity:0.998" fill="#5984bc" d="M 735.5,1252.5 C 737.806,1252.99 740.139,1253.33 742.5,1253.5C 754.137,1255.08 765.803,1256.41 777.5,1257.5C 778.5,1257.5 779.5,1257.5 780.5,1257.5C 787.81,1258.32 795.144,1258.99 802.5,1259.5C 763.448,1336.6 724.115,1413.6 684.5,1490.5C 684.043,1491.3 683.376,1491.63 682.5,1491.5C 670.326,1469.15 658.66,1446.49 647.5,1423.5C 676.578,1366.34 705.911,1309.34 735.5,1252.5 Z"/></g>
<g><path style="opacity:1" fill="#647db2" d="M 970.5,1254.5 C 908.203,1377.09 845.37,1499.43 782,1621.5C 776.27,1632.29 771.103,1643.29 766.5,1654.5C 761.007,1645.52 756.007,1636.19 751.5,1626.5C 815.085,1503.66 878.418,1380.66 941.5,1257.5C 946.553,1256.95 951.553,1256.28 956.5,1255.5C 961.181,1255.33 965.848,1255 970.5,1254.5 Z"/></g>
<g><path style="opacity:0.999" fill="#627eb4" d="M 941.5,1257.5 C 878.418,1380.66 815.085,1503.66 751.5,1626.5C 744.911,1614.32 738.578,1601.99 732.5,1589.5C 788.877,1480.42 845.044,1371.08 901,1261.5C 903.939,1260.87 906.772,1260.21 909.5,1259.5C 915.026,1259.82 920.36,1259.49 925.5,1258.5C 930.822,1258.02 936.155,1257.69 941.5,1257.5 Z"/></g>
<g><path style="opacity:0.998" fill="#5c82ba" d="M 802.5,1259.5 C 804.5,1259.5 806.5,1259.5 808.5,1259.5C 813.119,1260.31 817.786,1260.65 822.5,1260.5C 828.536,1260.36 834.536,1260.69 840.5,1261.5C 794.755,1351.32 748.755,1440.99 702.5,1530.5C 695.071,1517.98 688.404,1504.98 682.5,1491.5C 683.376,1491.63 684.043,1491.3 684.5,1490.5C 724.115,1413.6 763.448,1336.6 802.5,1259.5 Z"/></g>
<g><path style="opacity:0.999" fill="#5f80b7" d="M 909.5,1259.5 C 906.772,1260.21 903.939,1260.87 901,1261.5C 845.044,1371.08 788.877,1480.42 732.5,1589.5C 722.231,1569.96 712.231,1550.3 702.5,1530.5C 748.755,1440.99 794.755,1351.32 840.5,1261.5C 855.343,1261.83 870.01,1261.5 884.5,1260.5C 892.84,1260.31 901.174,1259.98 909.5,1259.5 Z"/></g>
<g><path style="opacity:0.998" fill="#5984bc" d="M 1490.5,1022.5 C 1496.12,1024.32 1501.79,1025.99 1507.5,1027.5C 1516.76,1031.26 1525.76,1035.59 1534.5,1040.5C 1501.04,1115.26 1467.7,1190.1 1434.5,1265C 1439.94,1274.51 1445.27,1284.01 1450.5,1293.5C 1453.24,1299.98 1456.24,1306.31 1459.5,1312.5C 1458.5,1455.33 1458.17,1598.33 1458.5,1741.5C 1449.67,1759.82 1440.34,1777.82 1430.5,1795.5C 1430.67,1616.17 1430.5,1436.83 1430,1257.5C 1425.39,1251.25 1420.55,1245.25 1415.5,1239.5C 1411.21,1233.87 1406.54,1228.54 1401.5,1223.5C 1431.4,1156.69 1461.07,1089.69 1490.5,1022.5 Z"/></g>
<g><path style="opacity:0.998" fill="#7570a1" d="M 1247.5,1250.5 C 1247.5,1530.5 1247.5,1810.5 1247.5,2090.5C 1243.05,2094.56 1238.05,2097.9 1232.5,2100.5C 1232.5,1826.83 1232.5,1553.17 1232.5,1279.5C 1237.25,1269.67 1242.25,1260 1247.5,1250.5 Z"/></g>
<g><path style="opacity:0.999" fill="#6f74a7" d="M 1690.5,1266.5 C 1695.75,1276 1700.75,1285.67 1705.5,1295.5C 1666.68,1383.14 1627.85,1470.81 1589,1558.5C 1588.05,1556.91 1586.88,1555.57 1585.5,1554.5C 1580.93,1546.36 1576.59,1538.03 1572.5,1529.5C 1573.68,1529.84 1574.52,1529.18 1575,1527.5C 1613.51,1440.47 1652.01,1353.47 1690.5,1266.5 Z"/></g>
<g><path style="opacity:0.998" fill="#786e9e" d="M 1232.5,1279.5 C 1232.5,1553.17 1232.5,1826.83 1232.5,2100.5C 1222.1,2106.53 1211.1,2111.2 1199.5,2114.5C 1199.5,1857.5 1199.5,1600.5 1199.5,1343.5C 1209.99,1321.85 1220.99,1300.51 1232.5,1279.5 Z"/></g>
<g><path style="opacity:1" fill="#6b77aa" d="M 1038.5,1284.5 C 1046.07,1298.64 1053.41,1312.98 1060.5,1327.5C 983.248,1477 906.248,1626.67 829.5,1776.5C 821.595,1762.36 813.928,1748.03 806.5,1733.5C 884.089,1583.99 961.422,1434.32 1038.5,1284.5 Z"/></g>
<g><path style="opacity:0.999" fill="#7272a4" d="M 1705.5,1295.5 C 1707.07,1297.64 1708.4,1299.97 1709.5,1302.5C 1718.6,1319.61 1727.27,1336.94 1735.5,1354.5C 1696.58,1442.1 1657.74,1529.76 1619,1617.5C 1618.62,1616.94 1618.12,1616.61 1617.5,1616.5C 1606.33,1596.15 1595.66,1575.49 1585.5,1554.5C 1586.88,1555.57 1588.05,1556.91 1589,1558.5C 1627.85,1470.81 1666.68,1383.14 1705.5,1295.5 Z"/></g>
<g><path style="opacity:0.996" fill="#a661a9" d="M 1914.5,1298.5 C 1929.08,1326 1943.42,1353.67 1957.5,1381.5C 1957.5,1463.17 1957.5,1544.83 1957.5,1626.5C 1959.41,1626.22 1961.08,1626.55 1962.5,1627.5C 1959.83,1627.5 1957.17,1627.5 1954.5,1627.5C 1949.69,1626.51 1944.69,1626.18 1939.5,1626.5C 1931.35,1625.51 1923.02,1625.17 1914.5,1625.5C 1914.5,1516.5 1914.5,1407.5 1914.5,1298.5 Z"/></g>
<g><path style="opacity:0.997" fill="#5687c0" d="M 1459.5,1312.5 C 1464.83,1322.5 1470.17,1332.5 1475.5,1342.5C 1475.56,1343.61 1475.89,1344.61 1476.5,1345.5C 1475.5,1466.33 1475.17,1587.33 1475.5,1708.5C 1470.08,1719.66 1464.42,1730.66 1458.5,1741.5C 1458.17,1598.33 1458.5,1455.33 1459.5,1312.5 Z"/></g>
<g><path style="opacity:0.996" fill="#c8157c" d="M 2084.5,1316.5 C 2084.83,1417.33 2084.5,1518 2083.5,1618.5C 2077.09,1611.08 2071.42,1603.08 2066.5,1594.5C 2067.5,1513 2067.83,1431.34 2067.5,1349.5C 2072.4,1338.02 2078.07,1327.02 2084.5,1316.5 Z"/></g>
<g><path style="opacity:1" fill="#6d76a9" d="M 1060.5,1327.5 C 1062.44,1331.04 1064.1,1334.71 1065.5,1338.5C 988.774,1486.95 912.274,1635.62 836,1784.5C 835.51,1785.79 835.343,1787.13 835.5,1788.5C 832.992,1784.82 830.992,1780.82 829.5,1776.5C 906.248,1626.67 983.248,1477 1060.5,1327.5 Z"/></g>
<g><path style="opacity:1" fill="#6f75a7" d="M 1065.5,1338.5 C 1070.41,1347.31 1075.07,1356.31 1079.5,1365.5C 1002.52,1514.8 925.517,1664.13 848.5,1813.5C 843.405,1805.65 839.072,1797.31 835.5,1788.5C 835.343,1787.13 835.51,1785.79 836,1784.5C 912.274,1635.62 988.774,1486.95 1065.5,1338.5 Z"/></g>
<g><path style="opacity:0.746" fill="#08b6e7" d="M 1034.5,1274.5 C 1068.17,1339.17 1101.83,1403.83 1135.5,1468.5C 1134.83,1469.83 1134.17,1471.17 1133.5,1472.5C 1128.93,1464.36 1124.59,1456.03 1120.5,1447.5C 1116.83,1440.17 1113.17,1432.83 1109.5,1425.5C 1099.5,1405.5 1089.5,1385.5 1079.5,1365.5C 1075.07,1356.31 1070.41,1347.31 1065.5,1338.5C 1064.1,1334.71 1062.44,1331.04 1060.5,1327.5C 1053.41,1312.98 1046.07,1298.64 1038.5,1284.5C 1037.17,1281.17 1035.83,1277.83 1034.5,1274.5 Z"/></g>
<g><path style="opacity:0.998" fill="#7b6c9b" d="M 1199.5,1343.5 C 1199.5,1600.5 1199.5,1857.5 1199.5,2114.5C 1195.7,2116.12 1191.7,2117.46 1187.5,2118.5C 1187.5,1868.17 1187.5,1617.83 1187.5,1367.5C 1190.99,1359.18 1194.99,1351.18 1199.5,1343.5 Z"/></g>
<g><path style="opacity:0.997" fill="#5388c2" d="M 1476.5,1345.5 C 1481.85,1355.53 1487.18,1365.53 1492.5,1375.5C 1495.09,1380.35 1497.42,1385.35 1499.5,1390.5C 1498.5,1481.33 1498.17,1572.33 1498.5,1663.5C 1491.09,1678.66 1483.42,1693.66 1475.5,1708.5C 1475.17,1587.33 1475.5,1466.33 1476.5,1345.5 Z"/></g>
<g><path style="opacity:0.993" fill="#cb157d" d="M 2067.5,1349.5 C 2067.83,1431.34 2067.5,1513 2066.5,1594.5C 2055.83,1573.83 2045.17,1553.17 2034.5,1532.5C 2023.9,1512.3 2013.56,1491.96 2003.5,1471.5C 2024.83,1430.83 2046.17,1390.17 2067.5,1349.5 Z"/></g>
<g><path style="opacity:0.998" fill="#ab1a71" d="M 2376.5,1350.5 C 2376.83,1449.24 2376.5,1547.9 2375.5,1646.5C 2358.79,1660.53 2340.12,1671.53 2319.5,1679.5C 2319.5,1574.17 2319.5,1468.83 2319.5,1363.5C 2340.97,1370.01 2359.97,1365.67 2376.5,1350.5 Z"/></g>
<g><path style="opacity:1" fill="#7272a4" d="M 1079.5,1365.5 C 1089.5,1385.5 1099.5,1405.5 1109.5,1425.5C 1037.19,1564.13 965.352,1703.13 894,1842.5C 888.603,1852.63 883.769,1862.96 879.5,1873.5C 868.66,1853.82 858.327,1833.82 848.5,1813.5C 925.517,1664.13 1002.52,1514.8 1079.5,1365.5 Z"/></g>
<g><path style="opacity:0.998" fill="#7d6b9a" d="M 1187.5,1367.5 C 1187.5,1617.83 1187.5,1868.17 1187.5,2118.5C 1183.2,2119.63 1178.86,2120.63 1174.5,2121.5C 1174.5,1878.5 1174.5,1635.5 1174.5,1392.5C 1178.07,1383.69 1182.41,1375.35 1187.5,1367.5 Z"/></g>
<g><path style="opacity:0.999" fill="#7570a1" d="M 1735.5,1354.5 C 1736.97,1355.44 1737.97,1356.77 1738.5,1358.5C 1742.75,1366.68 1746.75,1375.01 1750.5,1383.5C 1711.5,1471.5 1672.5,1559.5 1633.5,1647.5C 1627.4,1637.64 1622.07,1627.31 1617.5,1616.5C 1618.12,1616.61 1618.62,1616.94 1619,1617.5C 1657.74,1529.76 1696.58,1442.1 1735.5,1354.5 Z"/></g>
<g><path style="opacity:0.996" fill="#ab66ab" d="M 1957.5,1381.5 C 1973.34,1411.18 1988.67,1441.18 2003.5,1471.5C 2013.56,1491.96 2023.9,1512.3 2034.5,1532.5C 2033.5,1567 2033.17,1601.66 2033.5,1636.5C 2019.97,1633.65 2006.3,1631.65 1992.5,1630.5C 1982.57,1628.9 1972.57,1627.9 1962.5,1627.5C 1961.08,1626.55 1959.41,1626.22 1957.5,1626.5C 1957.5,1544.83 1957.5,1463.17 1957.5,1381.5 Z"/></g>
<g><path style="opacity:0.999" fill="#786e9e" d="M 1750.5,1383.5 C 1751.17,1383.5 1751.5,1383.83 1751.5,1384.5C 1762.1,1404.7 1772.44,1425.04 1782.5,1445.5C 1782.66,1446.87 1782.49,1448.21 1782,1449.5C 1750.21,1520.74 1718.71,1592.07 1687.5,1663.5C 1685.01,1664.32 1682.68,1665.32 1680.5,1666.5C 1677.43,1667.3 1674.43,1668.3 1671.5,1669.5C 1664.66,1672.11 1657.99,1675.11 1651.5,1678.5C 1661.53,1698.18 1671.53,1717.85 1681.5,1737.5C 1681.5,1738.17 1681.17,1738.5 1680.5,1738.5C 1664.07,1708.64 1648.4,1678.31 1633.5,1647.5C 1672.5,1559.5 1711.5,1471.5 1750.5,1383.5 Z"/></g>
<g><path style="opacity:0.995" fill="#508bc6" d="M 1499.5,1390.5 C 1500.83,1392.5 1502.17,1394.5 1503.5,1396.5C 1508.31,1407.45 1513.64,1418.12 1519.5,1428.5C 1518.5,1493.66 1518.17,1559 1518.5,1624.5C 1512.6,1637.98 1505.93,1650.98 1498.5,1663.5C 1498.17,1572.33 1498.5,1481.33 1499.5,1390.5 Z"/></g>
<g><path style="opacity:0.998" fill="#7f6997" d="M 1174.5,1392.5 C 1174.5,1635.5 1174.5,1878.5 1174.5,2121.5C 1163.85,2123.33 1153.19,2124.66 1142.5,2125.5C 1142.5,1901.83 1142.5,1678.17 1142.5,1454.5C 1152.66,1433.51 1163.33,1412.85 1174.5,1392.5 Z"/></g>
<g><path style="opacity:1" fill="#7570a1" d="M 1109.5,1425.5 C 1113.17,1432.83 1116.83,1440.17 1120.5,1447.5C 1119.54,1447.95 1118.71,1448.62 1118,1449.5C 1042.33,1596.83 966.667,1744.17 891,1891.5C 890.51,1892.79 890.343,1894.13 890.5,1895.5C 886.325,1888.48 882.659,1881.15 879.5,1873.5C 883.769,1862.96 888.603,1852.63 894,1842.5C 965.352,1703.13 1037.19,1564.13 1109.5,1425.5 Z"/></g>
<g><path style="opacity:0.993" fill="#4c8ec9" d="M 1519.5,1428.5 C 1521.93,1433.69 1524.59,1438.69 1527.5,1443.5C 1532.58,1454 1537.92,1464.33 1543.5,1474.5C 1549.92,1487.66 1556.58,1500.66 1563.5,1513.5C 1565.5,1517.83 1567.5,1522.17 1569.5,1526.5C 1552.99,1559.52 1535.99,1592.18 1518.5,1624.5C 1518.17,1559 1518.5,1493.66 1519.5,1428.5 Z"/></g>
<g><path style="opacity:1" fill="#7b6c9b" d="M 1782.5,1445.5 C 1787.08,1453.67 1791.42,1462 1795.5,1470.5C 1768.5,1531.83 1741.5,1593.17 1714.5,1654.5C 1709.83,1656.17 1705.17,1657.83 1700.5,1659.5C 1696.17,1660.83 1691.83,1662.17 1687.5,1663.5C 1718.71,1592.07 1750.21,1520.74 1782,1449.5C 1782.49,1448.21 1782.66,1446.87 1782.5,1445.5 Z"/></g>
<g><path style="opacity:1" fill="#776f9f" d="M 1120.5,1447.5 C 1124.59,1456.03 1128.93,1464.36 1133.5,1472.5C 1131.8,1475.85 1130.14,1479.18 1128.5,1482.5C 1115.33,1506.85 1102.66,1531.51 1090.5,1556.5C 1086.26,1563.97 1082.26,1571.64 1078.5,1579.5C 1064.44,1607.29 1050.1,1634.96 1035.5,1662.5C 1029.09,1675.66 1022.42,1688.66 1015.5,1701.5C 1002.18,1727.47 988.849,1753.47 975.5,1779.5C 970.912,1787.68 966.578,1796.01 962.5,1804.5C 922.188,1872.44 918.855,1942.11 952.5,2013.5C 952.167,2013.5 951.833,2013.5 951.5,2013.5C 930.66,1974.49 910.327,1935.15 890.5,1895.5C 890.343,1894.13 890.51,1892.79 891,1891.5C 966.667,1744.17 1042.33,1596.83 1118,1449.5C 1118.71,1448.62 1119.54,1447.95 1120.5,1447.5 Z"/></g>
<g><path style="opacity:0.998" fill="#826794" d="M 1142.5,1454.5 C 1142.5,1678.17 1142.5,1901.83 1142.5,2125.5C 1138.17,2125.5 1133.83,2125.5 1129.5,2125.5C 1129.83,1911 1129.5,1696.67 1128.5,1482.5C 1130.14,1479.18 1131.8,1475.85 1133.5,1472.5C 1134.17,1471.17 1134.83,1469.83 1135.5,1468.5C 1137.33,1463.52 1139.66,1458.85 1142.5,1454.5 Z"/></g>
<g><path style="opacity:1" fill="#7d6b9a" d="M 1795.5,1470.5 C 1796.74,1471.96 1797.74,1473.63 1798.5,1475.5C 1801.5,1481.5 1804.5,1487.5 1807.5,1493.5C 1807.5,1493.83 1807.5,1494.17 1807.5,1494.5C 1785.78,1545.62 1763.78,1596.62 1741.5,1647.5C 1739.78,1647.63 1738.12,1647.96 1736.5,1648.5C 1729.17,1650.5 1721.83,1652.5 1714.5,1654.5C 1741.5,1593.17 1768.5,1531.83 1795.5,1470.5 Z"/></g>
<g><path style="opacity:0.999" fill="#856591" d="M 1128.5,1482.5 C 1129.5,1696.67 1129.83,1911 1129.5,2125.5C 1116.69,2124.82 1104.03,2123.15 1091.5,2120.5C 1091.83,1932.33 1091.5,1744.33 1090.5,1556.5C 1102.66,1531.51 1115.33,1506.85 1128.5,1482.5 Z"/></g>
<g><path style="opacity:1" fill="#7f6997" d="M 1807.5,1494.5 C 1819.01,1515.51 1830.01,1536.85 1840.5,1558.5C 1829.77,1583.62 1818.77,1608.62 1807.5,1633.5C 1805.78,1633.63 1804.12,1633.96 1802.5,1634.5C 1796.72,1635.04 1791.05,1636.04 1785.5,1637.5C 1782.06,1637.79 1778.73,1638.45 1775.5,1639.5C 1766.74,1641.12 1758.08,1643.12 1749.5,1645.5C 1746.67,1645.58 1744.01,1646.25 1741.5,1647.5C 1763.78,1596.62 1785.78,1545.62 1807.5,1494.5 Z"/></g>
<g><path style="opacity:1" fill="#b06bad" d="M 2034.5,1532.5 C 2045.17,1553.17 2055.83,1573.83 2066.5,1594.5C 2071.42,1603.08 2077.09,1611.08 2083.5,1618.5C 2095.57,1634.23 2109.57,1647.9 2125.5,1659.5C 2095.43,1649.65 2064.77,1641.98 2033.5,1636.5C 2033.17,1601.66 2033.5,1567 2034.5,1532.5 Z"/></g>
<g><path style="opacity:0.999" fill="#88628e" d="M 1090.5,1556.5 C 1091.5,1744.33 1091.83,1932.33 1091.5,2120.5C 1087.5,2119.5 1083.5,2118.5 1079.5,2117.5C 1079.83,1938 1079.5,1758.67 1078.5,1579.5C 1082.26,1571.64 1086.26,1563.97 1090.5,1556.5 Z"/></g>
<g><path style="opacity:0.999" fill="#8b608b" d="M 1078.5,1579.5 C 1079.5,1758.67 1079.83,1938 1079.5,2117.5C 1063.39,2113.61 1048.39,2107.27 1034.5,2098.5C 1035.83,2026.17 1036.5,1953.5 1036.5,1880.5C 1036.5,1807.67 1036.17,1735 1035.5,1662.5C 1050.1,1634.96 1064.44,1607.29 1078.5,1579.5 Z"/></g>
<g><path style="opacity:1" fill="#846693" d="M 1840.5,1558.5 C 1852.67,1580.85 1864.34,1603.51 1875.5,1626.5C 1870.45,1626.34 1865.45,1626.67 1860.5,1627.5C 1853.15,1627.95 1845.81,1628.61 1838.5,1629.5C 1828.12,1630.54 1817.79,1631.88 1807.5,1633.5C 1818.77,1608.62 1829.77,1583.62 1840.5,1558.5 Z"/></g>
<g><path style="opacity:1" fill="#7f3796" d="M 1911.5,1625.5 C 1912.5,1625.5 1913.5,1625.5 1914.5,1625.5C 1923.02,1625.17 1931.35,1625.51 1939.5,1626.5C 1936.5,1626.5 1933.5,1626.5 1930.5,1626.5C 1924.82,1626.33 1919.16,1626.5 1913.5,1627C 1997.03,1767.34 2080.7,1907.5 2164.5,2047.5C 2159.87,2053.8 2154.54,2059.46 2148.5,2064.5C 2142.19,2055.91 2136.36,2046.91 2131,2037.5C 2050.09,1900.67 1968.92,1764 1887.5,1627.5C 1895.66,1626.83 1903.66,1626.17 1911.5,1625.5 Z"/></g>
<g><path style="opacity:1" fill="#823a97" d="M 1886.5,1625.5 C 1894.83,1625.5 1903.17,1625.5 1911.5,1625.5C 1903.66,1626.17 1895.66,1626.83 1887.5,1627.5C 1968.92,1764 2050.09,1900.67 2131,2037.5C 2136.36,2046.91 2142.19,2055.91 2148.5,2064.5C 2142.45,2070.89 2135.78,2076.55 2128.5,2081.5C 2038.4,1930.81 1948.4,1779.98 1858.5,1629C 1859.42,1628.72 1860.08,1628.22 1860.5,1627.5C 1865.45,1626.67 1870.45,1626.34 1875.5,1626.5C 1879.37,1626.81 1883.04,1626.48 1886.5,1625.5 Z"/></g>
<g><path style="opacity:1" fill="#7d3595" d="M 1930.5,1626.5 C 2011.11,1763.1 2092.11,1899.43 2173.5,2035.5C 2171.24,2040.09 2168.24,2044.09 2164.5,2047.5C 2080.7,1907.5 1997.03,1767.34 1913.5,1627C 1919.16,1626.5 1924.82,1626.33 1930.5,1626.5 Z"/></g>
<g><path style="opacity:1" fill="#7b3294" d="M 1930.5,1626.5 C 1933.5,1626.5 1936.5,1626.5 1939.5,1626.5C 1944.69,1626.18 1949.69,1626.51 1954.5,1627.5C 2030.75,1757.67 2107.75,1887.34 2185.5,2016.5C 2182.25,2023.35 2178.25,2029.68 2173.5,2035.5C 2092.11,1899.43 2011.11,1763.1 1930.5,1626.5 Z"/></g>
<g><path style="opacity:1" fill="#782f92" d="M 1954.5,1627.5 C 1957.17,1627.5 1959.83,1627.5 1962.5,1627.5C 1972.57,1627.9 1982.57,1628.9 1992.5,1630.5C 2061.75,1748.67 2131.75,1866.34 2202.5,1983.5C 2197.6,1994.98 2191.93,2005.98 2185.5,2016.5C 2107.75,1887.34 2030.75,1757.67 1954.5,1627.5 Z"/></g>
<g><path style="opacity:1" fill="#843d98" d="M 1860.5,1627.5 C 1860.08,1628.22 1859.42,1628.72 1858.5,1629C 1948.4,1779.98 2038.4,1930.81 2128.5,2081.5C 2123.35,2085.91 2117.69,2089.58 2111.5,2092.5C 2019.99,1938.65 1928.32,1784.81 1836.5,1631C 1837.42,1630.72 1838.08,1630.22 1838.5,1629.5C 1845.81,1628.61 1853.15,1627.95 1860.5,1627.5 Z"/></g>
<g><path style="opacity:1" fill="#87409a" d="M 1838.5,1629.5 C 1838.08,1630.22 1837.42,1630.72 1836.5,1631C 1928.32,1784.81 2019.99,1938.65 2111.5,2092.5C 2102.76,2098.2 2093.43,2102.87 2083.5,2106.5C 1989.34,1949.53 1895.68,1792.2 1802.5,1634.5C 1804.12,1633.96 1805.78,1633.63 1807.5,1633.5C 1817.79,1631.88 1828.12,1630.54 1838.5,1629.5 Z"/></g>
<g><path style="opacity:1" fill="#752c91" d="M 1992.5,1630.5 C 2006.3,1631.65 2019.97,1633.65 2033.5,1636.5C 2064.77,1641.98 2095.43,1649.65 2125.5,1659.5C 2130.43,1661.36 2135.43,1663.03 2140.5,1664.5C 2157.75,1675.45 2176.42,1683.12 2196.5,1687.5C 2203.51,1689.89 2210.84,1691.23 2218.5,1691.5C 2230.08,1693.15 2241.75,1693.82 2253.5,1693.5C 2256.57,1693.63 2259.57,1693.3 2262.5,1692.5C 2282.21,1691.09 2301.21,1686.76 2319.5,1679.5C 2340.12,1671.53 2358.79,1660.53 2375.5,1646.5C 2376.62,1647.35 2376.62,1648.35 2375.5,1649.5C 2342.31,1712.55 2309.64,1775.88 2277.5,1839.5C 2252.5,1887.5 2227.5,1935.5 2202.5,1983.5C 2131.75,1866.34 2061.75,1748.67 1992.5,1630.5 Z"/></g>
<g><path style="opacity:1" fill="#8a439b" d="M 1802.5,1634.5 C 1895.68,1792.2 1989.34,1949.53 2083.5,2106.5C 2083.16,2107.34 2082.49,2107.67 2081.5,2107.5C 2076.58,2109.36 2071.58,2111.03 2066.5,2112.5C 1974.56,1957.39 1882.39,1802.39 1790,1647.5C 1788.19,1644.22 1786.69,1640.89 1785.5,1637.5C 1791.05,1636.04 1796.72,1635.04 1802.5,1634.5 Z"/></g>
<g><path style="opacity:1" fill="#8b459b" d="M 1785.5,1637.5 C 1786.69,1640.89 1788.19,1644.22 1790,1647.5C 1882.39,1802.39 1974.56,1957.39 2066.5,2112.5C 2063.63,2113.87 2060.63,2114.87 2057.5,2115.5C 1964.03,1956.57 1870.03,1797.91 1775.5,1639.5C 1778.73,1638.45 1782.06,1637.79 1785.5,1637.5 Z"/></g>
<g><path style="opacity:1" fill="#8d479d" d="M 1775.5,1639.5 C 1870.03,1797.91 1964.03,1956.57 2057.5,2115.5C 2049.65,2117.74 2041.65,2119.07 2033.5,2119.5C 2032.32,2119.72 2031.32,2119.39 2030.5,2118.5C 1936.57,1960.97 1842.9,1803.3 1749.5,1645.5C 1758.08,1643.12 1766.74,1641.12 1775.5,1639.5 Z"/></g>
<g><path style="opacity:1" fill="#90499e" d="M 1749.5,1645.5 C 1842.9,1803.3 1936.57,1960.97 2030.5,2118.5C 2031.32,2119.39 2032.32,2119.72 2033.5,2119.5C 2027.75,2121.15 2021.75,2121.82 2015.5,2121.5C 1922.3,1964.28 1828.97,1807.11 1735.5,1650C 1736.06,1649.62 1736.39,1649.12 1736.5,1648.5C 1738.12,1647.96 1739.78,1647.63 1741.5,1647.5C 1744.01,1646.25 1746.67,1645.58 1749.5,1645.5 Z"/></g>
<g><path style="opacity:1" fill="#934c9f" d="M 1736.5,1648.5 C 1736.39,1649.12 1736.06,1649.62 1735.5,1650C 1828.97,1807.11 1922.3,1964.28 2015.5,2121.5C 2001.15,2122.58 1986.82,2121.91 1972.5,2119.5C 1881.02,1967.23 1790.02,1814.56 1699.5,1661.5C 1699.86,1660.82 1700.2,1660.15 1700.5,1659.5C 1705.17,1657.83 1709.83,1656.17 1714.5,1654.5C 1721.83,1652.5 1729.17,1650.5 1736.5,1648.5 Z"/></g>
<g><path style="opacity:1" fill="#9650a1" d="M 1700.5,1659.5 C 1700.2,1660.15 1699.86,1660.82 1699.5,1661.5C 1790.02,1814.56 1881.02,1967.23 1972.5,2119.5C 1962.7,2117.63 1953.03,2115.3 1943.5,2112.5C 1859.19,1969.23 1774.36,1826.23 1689,1683.5C 1685.61,1678.05 1682.77,1672.38 1680.5,1666.5C 1682.68,1665.32 1685.01,1664.32 1687.5,1663.5C 1691.83,1662.17 1696.17,1660.83 1700.5,1659.5 Z"/></g>
<g><path style="opacity:1" fill="#8f5e88" d="M 1035.5,1662.5 C 1036.17,1735 1036.5,1807.67 1036.5,1880.5C 1036.5,1953.5 1035.83,2026.17 1034.5,2098.5C 1029.98,2096.96 1025.98,2094.62 1022.5,2091.5C 1022.03,2090.09 1021.03,2089.43 1019.5,2089.5C 1019.03,2088.09 1018.03,2087.43 1016.5,2087.5C 1016.5,2087.17 1016.5,2086.83 1016.5,2086.5C 1016.83,1958 1016.5,1829.67 1015.5,1701.5C 1022.42,1688.66 1029.09,1675.66 1035.5,1662.5 Z"/></g>
<g><path style="opacity:1" fill="#9852a1" d="M 1680.5,1666.5 C 1682.77,1672.38 1685.61,1678.05 1689,1683.5C 1774.36,1826.23 1859.19,1969.23 1943.5,2112.5C 1939.5,2111.17 1935.5,2109.83 1931.5,2108.5C 1844.83,1962.17 1758.17,1815.83 1671.5,1669.5C 1674.43,1668.3 1677.43,1667.3 1680.5,1666.5 Z"/></g>
<g><path style="opacity:1" fill="#9a54a3" d="M 1671.5,1669.5 C 1758.17,1815.83 1844.83,1962.17 1931.5,2108.5C 1930.61,2107.89 1929.61,2107.56 1928.5,2107.5C 1909.33,2099.09 1891.67,2088.43 1875.5,2075.5C 1829.77,1997.72 1783.77,1920.06 1737.5,1842.5C 1737.04,1841.7 1736.38,1841.37 1735.5,1841.5C 1717.47,1806.77 1699.47,1772.1 1681.5,1737.5C 1671.53,1717.85 1661.53,1698.18 1651.5,1678.5C 1657.99,1675.11 1664.66,1672.11 1671.5,1669.5 Z"/></g>
<g><path style="opacity:1" fill="#925c85" d="M 1015.5,1701.5 C 1016.5,1829.67 1016.83,1958 1016.5,2086.5C 1015.4,2085.4 1014.06,2084.73 1012.5,2084.5C 1011.74,2082.74 1010.4,2081.74 1008.5,2081.5C 1008.03,2080.09 1007.03,2079.43 1005.5,2079.5C 1004.5,2079.17 1003.83,2078.5 1003.5,2077.5C 1002.42,2075.41 1000.75,2074.08 998.5,2073.5C 997.5,2073.17 996.833,2072.5 996.5,2071.5C 991.833,2066.17 986.833,2061.17 981.5,2056.5C 980.833,2056.5 980.5,2056.17 980.5,2055.5C 979.246,2052.91 977.58,2050.57 975.5,2048.5C 976.833,1958.83 976.833,1869.17 975.5,1779.5C 988.849,1753.47 1002.18,1727.47 1015.5,1701.5 Z"/></g>
<g><path style="opacity:0.947" fill="#000000" d="M 3621.5,1712.5 C 3654.57,1710.18 3684.9,1718.02 3712.5,1736C 3710.23,1741.37 3707.56,1746.54 3704.5,1751.5C 3669.81,1729.27 3632.81,1724.44 3593.5,1737C 3563.74,1752.62 3556.24,1775.45 3571,1805.5C 3578.2,1813.19 3586.7,1819.02 3596.5,1823C 3617.57,1829.93 3638.9,1835.93 3660.5,1841C 3681.39,1845.02 3698.89,1854.86 3713,1870.5C 3721.63,1884.3 3724.63,1899.3 3722,1915.5C 3717.25,1938.92 3703.75,1955.09 3681.5,1964C 3659.51,1972.02 3636.84,1974.69 3613.5,1972C 3587.57,1969.47 3564.24,1960.47 3543.5,1945C 3540.98,1942.65 3538.65,1940.15 3536.5,1937.5C 3539.01,1932.46 3542.01,1927.79 3545.5,1923.5C 3579.37,1951.8 3618.04,1961.3 3661.5,1952C 3686.28,1946.06 3700.28,1930.56 3703.5,1905.5C 3703.02,1893.37 3698.35,1883.2 3689.5,1875C 3682.96,1870.23 3675.96,1866.23 3668.5,1863C 3648.01,1856.71 3627.34,1851.04 3606.5,1846C 3588.85,1842.13 3573.18,1834.47 3559.5,1823C 3546.39,1808.73 3541.22,1791.9 3544,1772.5C 3547.79,1748.72 3560.62,1731.88 3582.5,1722C 3595.15,1716.84 3608.15,1713.68 3621.5,1712.5 Z"/></g>
<g><path style="opacity:0.951" fill="#000000" d="M 4742.5,1712.5 C 4775.31,1710.03 4805.31,1717.87 4832.5,1736C 4836.97,1739.47 4841.13,1743.3 4845,1747.5C 4845.67,1748.17 4845.67,1748.83 4845,1749.5C 4841,1753.5 4837,1757.5 4833,1761.5C 4809.19,1738.67 4780.69,1728.5 4747.5,1731C 4700.14,1734.72 4666.98,1758.22 4648,1801.5C 4633.55,1844.48 4640.55,1883.48 4669,1918.5C 4698.56,1947.8 4734.06,1959.3 4775.5,1953C 4797.17,1949.5 4815.84,1940.16 4831.5,1925C 4832.5,1924.33 4833.5,1924.33 4834.5,1925C 4838.35,1928.68 4842.02,1932.52 4845.5,1936.5C 4833.54,1949.49 4819.21,1958.99 4802.5,1965C 4753.81,1980.46 4708.81,1973.46 4667.5,1944C 4631.91,1912.61 4616.75,1873.11 4622,1825.5C 4630.16,1770.69 4660.66,1734.85 4713.5,1718C 4723.19,1715.5 4732.85,1713.67 4742.5,1712.5 Z"/></g>
<g><path style="opacity:0.947" fill="#000000" d="M 5209.5,1712.5 C 5242.57,1710.18 5272.9,1718.02 5300.5,1736C 5298.23,1741.37 5295.56,1746.54 5292.5,1751.5C 5257.81,1729.27 5220.81,1724.44 5181.5,1737C 5151.74,1752.62 5144.24,1775.45 5159,1805.5C 5166.2,1813.19 5174.7,1819.02 5184.5,1823C 5205.57,1829.93 5226.9,1835.93 5248.5,1841C 5269.39,1845.02 5286.89,1854.86 5301,1870.5C 5309.63,1884.3 5312.63,1899.3 5310,1915.5C 5305.25,1938.92 5291.75,1955.09 5269.5,1964C 5247.51,1972.02 5224.84,1974.69 5201.5,1972C 5175.57,1969.47 5152.24,1960.47 5131.5,1945C 5128.98,1942.65 5126.65,1940.15 5124.5,1937.5C 5127.01,1932.46 5130.01,1927.79 5133.5,1923.5C 5167.37,1951.8 5206.04,1961.3 5249.5,1952C 5274.28,1946.06 5288.28,1930.56 5291.5,1905.5C 5291.02,1893.37 5286.35,1883.2 5277.5,1875C 5270.96,1870.23 5263.96,1866.23 5256.5,1863C 5236.01,1856.71 5215.34,1851.04 5194.5,1846C 5176.85,1842.13 5161.18,1834.47 5147.5,1823C 5134.39,1808.73 5129.22,1791.9 5132,1772.5C 5135.79,1748.72 5148.62,1731.88 5170.5,1722C 5183.15,1716.84 5196.15,1713.68 5209.5,1712.5 Z"/></g>
<g><path style="opacity:0.951" fill="#000000" d="M 6514.5,1712.5 C 6547.31,1710.03 6577.31,1717.87 6604.5,1736C 6608.97,1739.47 6613.13,1743.3 6617,1747.5C 6617.67,1748.17 6617.67,1748.83 6617,1749.5C 6613,1753.5 6609,1757.5 6605,1761.5C 6581.19,1738.67 6552.69,1728.5 6519.5,1731C 6472.14,1734.72 6438.98,1758.22 6420,1801.5C 6405.55,1844.48 6412.55,1883.48 6441,1918.5C 6470.56,1947.8 6506.06,1959.3 6547.5,1953C 6569.17,1949.5 6587.84,1940.16 6603.5,1925C 6604.5,1924.33 6605.5,1924.33 6606.5,1925C 6610.35,1928.68 6614.02,1932.52 6617.5,1936.5C 6605.54,1949.49 6591.21,1958.99 6574.5,1965C 6525.81,1980.46 6480.81,1973.46 6439.5,1944C 6403.91,1912.61 6388.75,1873.11 6394,1825.5C 6402.16,1770.69 6432.66,1734.85 6485.5,1718C 6495.19,1715.5 6504.85,1713.67 6514.5,1712.5 Z"/></g>
<g><path style="opacity:0.952" fill="#000000" d="M 6770.5,1712.5 C 6815.72,1709.4 6853.88,1724.06 6885,1756.5C 6912.36,1790.62 6921.7,1829.29 6913,1872.5C 6902.65,1915.51 6877.15,1945.68 6836.5,1963C 6787.49,1980.62 6741.49,1974.95 6698.5,1946C 6657.41,1911.08 6641.91,1866.91 6652,1813.5C 6663.93,1764.9 6693.77,1733.07 6741.5,1718C 6751.19,1715.55 6760.86,1713.72 6770.5,1712.5 Z M 6774.5,1730.5 C 6820.58,1728.95 6856.08,1747.29 6881,1785.5C 6895.98,1813.38 6899.65,1842.71 6892,1873.5C 6876.83,1920.67 6844.66,1947.5 6795.5,1954C 6756.95,1957.6 6724.12,1945.76 6697,1918.5C 6670.72,1886.69 6662.72,1850.69 6673,1810.5C 6689.95,1762.38 6723.78,1735.72 6774.5,1730.5 Z"/></g>
<g><path style="opacity:0.947" fill="#000000" d="M 7335.5,1712.5 C 7368.57,1710.18 7398.9,1718.02 7426.5,1736C 7424.23,1741.37 7421.56,1746.54 7418.5,1751.5C 7383.81,1729.27 7346.81,1724.44 7307.5,1737C 7277.74,1752.62 7270.24,1775.45 7285,1805.5C 7292.2,1813.19 7300.7,1819.02 7310.5,1823C 7331.57,1829.93 7352.9,1835.93 7374.5,1841C 7395.39,1845.02 7412.89,1854.86 7427,1870.5C 7435.63,1884.3 7438.63,1899.3 7436,1915.5C 7431.25,1938.92 7417.75,1955.09 7395.5,1964C 7373.51,1972.02 7350.84,1974.69 7327.5,1972C 7301.57,1969.47 7278.24,1960.47 7257.5,1945C 7254.98,1942.65 7252.65,1940.15 7250.5,1937.5C 7253.01,1932.46 7256.01,1927.79 7259.5,1923.5C 7293.37,1951.8 7332.04,1961.3 7375.5,1952C 7400.28,1946.06 7414.28,1930.56 7417.5,1905.5C 7417.02,1893.37 7412.35,1883.2 7403.5,1875C 7396.96,1870.23 7389.96,1866.23 7382.5,1863C 7362.01,1856.71 7341.34,1851.04 7320.5,1846C 7302.85,1842.13 7287.18,1834.47 7273.5,1823C 7260.39,1808.73 7255.22,1791.9 7258,1772.5C 7261.79,1748.72 7274.62,1731.88 7296.5,1722C 7309.15,1716.84 7322.15,1713.68 7335.5,1712.5 Z"/></g>
<g><path style="opacity:0.947" fill="#000000" d="M 8784.5,1712.5 C 8817.57,1710.18 8847.9,1718.02 8875.5,1736C 8873.23,1741.37 8870.56,1746.54 8867.5,1751.5C 8832.81,1729.27 8795.81,1724.44 8756.5,1737C 8726.74,1752.62 8719.24,1775.45 8734,1805.5C 8741.2,1813.19 8749.7,1819.02 8759.5,1823C 8780.57,1829.93 8801.9,1835.93 8823.5,1841C 8844.39,1845.02 8861.89,1854.86 8876,1870.5C 8884.63,1884.3 8887.63,1899.3 8885,1915.5C 8880.25,1938.92 8866.75,1955.09 8844.5,1964C 8822.51,1972.02 8799.84,1974.69 8776.5,1972C 8750.57,1969.47 8727.24,1960.47 8706.5,1945C 8703.98,1942.65 8701.65,1940.15 8699.5,1937.5C 8702.01,1932.46 8705.01,1927.79 8708.5,1923.5C 8742.37,1951.8 8781.04,1961.3 8824.5,1952C 8849.28,1946.06 8863.28,1930.56 8866.5,1905.5C 8866.02,1893.37 8861.35,1883.2 8852.5,1875C 8845.96,1870.23 8838.96,1866.23 8831.5,1863C 8811.01,1856.71 8790.34,1851.04 8769.5,1846C 8751.85,1842.13 8736.18,1834.47 8722.5,1823C 8709.39,1808.73 8704.22,1791.9 8707,1772.5C 8710.79,1748.72 8723.62,1731.88 8745.5,1722C 8758.15,1716.84 8771.15,1713.68 8784.5,1712.5 Z"/></g>
<g><path style="opacity:0.937" fill="#000000" d="M 3155.5,1714.5 C 3162.17,1714.5 3168.83,1714.5 3175.5,1714.5C 3175.5,1799.83 3175.5,1885.17 3175.5,1970.5C 3168.83,1970.5 3162.17,1970.5 3155.5,1970.5C 3155.5,1885.17 3155.5,1799.83 3155.5,1714.5 Z"/></g>
<g><path style="opacity:0.947" fill="#000000" d="M 3220.5,1714.5 C 3288.5,1714.5 3356.5,1714.5 3424.5,1714.5C 3424.5,1720.5 3424.5,1726.5 3424.5,1732.5C 3393.83,1732.5 3363.17,1732.5 3332.5,1732.5C 3332.5,1811.83 3332.5,1891.17 3332.5,1970.5C 3325.83,1970.5 3319.17,1970.5 3312.5,1970.5C 3312.5,1891.17 3312.5,1811.83 3312.5,1732.5C 3281.83,1732.5 3251.17,1732.5 3220.5,1732.5C 3220.5,1726.5 3220.5,1720.5 3220.5,1714.5 Z"/></g>
<g><path style="opacity:0.952" fill="#000000" d="M 3785.5,1714.5 C 3842.83,1714.5 3900.17,1714.5 3957.5,1714.5C 3957.5,1720.5 3957.5,1726.5 3957.5,1732.5C 3906.83,1732.5 3856.17,1732.5 3805.5,1732.5C 3805.5,1765.5 3805.5,1798.5 3805.5,1831.5C 3850.83,1831.5 3896.17,1831.5 3941.5,1831.5C 3941.5,1837.5 3941.5,1843.5 3941.5,1849.5C 3896.17,1849.5 3850.83,1849.5 3805.5,1849.5C 3805.5,1884.17 3805.5,1918.83 3805.5,1953.5C 3857.83,1953.5 3910.17,1953.5 3962.5,1953.5C 3962.5,1959.17 3962.5,1964.83 3962.5,1970.5C 3903.5,1970.5 3844.5,1970.5 3785.5,1970.5C 3785.5,1885.17 3785.5,1799.83 3785.5,1714.5 Z"/></g>
<g><path style="opacity:0.944" fill="#000000" d="M 4029.5,1714.5 C 4065.5,1714.33 4101.5,1714.5 4137.5,1715C 4166.06,1716.39 4189.89,1727.56 4209,1748.5C 4223.18,1769.4 4228.18,1792.4 4224,1817.5C 4219.81,1842.74 4206.65,1861.57 4184.5,1874C 4178.47,1876.67 4172.47,1879.34 4166.5,1882C 4187.25,1911.51 4208.25,1940.84 4229.5,1970C 4221.83,1970.67 4214.17,1970.67 4206.5,1970C 4186.5,1942 4166.5,1914 4146.5,1886C 4114.25,1887.4 4081.91,1887.9 4049.5,1887.5C 4049.5,1915.17 4049.5,1942.83 4049.5,1970.5C 4042.83,1970.5 4036.17,1970.5 4029.5,1970.5C 4029.5,1885.17 4029.5,1799.83 4029.5,1714.5 Z M 4049.5,1732.5 C 4078.84,1732.33 4108.17,1732.5 4137.5,1733C 4189.28,1739.73 4211.12,1768.9 4203,1820.5C 4195.66,1844.5 4179.83,1859.67 4155.5,1866C 4150.24,1867.39 4144.91,1868.39 4139.5,1869C 4109.5,1869.5 4079.5,1869.67 4049.5,1869.5C 4049.5,1823.83 4049.5,1778.17 4049.5,1732.5 Z"/></g>
<g><path style="opacity:0.95" fill="#000000" d="M 4250.5,1714.5 C 4257.75,1714.19 4264.92,1714.52 4272,1715.5C 4305.91,1791.65 4340.08,1867.65 4374.5,1943.5C 4408.92,1867.65 4443.09,1791.65 4477,1715.5C 4483.78,1714.19 4490.61,1714.19 4497.5,1715.5C 4459.83,1800.17 4422.17,1884.83 4384.5,1969.5C 4377.5,1970.83 4370.5,1970.83 4363.5,1969.5C 4325.54,1884.59 4287.87,1799.59 4250.5,1714.5 Z"/></g>
<g><path style="opacity:0.937" fill="#000000" d="M 4537.5,1714.5 C 4544.17,1714.5 4550.83,1714.5 4557.5,1714.5C 4557.5,1799.83 4557.5,1885.17 4557.5,1970.5C 4550.83,1970.5 4544.17,1970.5 4537.5,1970.5C 4537.5,1885.17 4537.5,1799.83 4537.5,1714.5 Z"/></g>
<g><path style="opacity:0.952" fill="#000000" d="M 4906.5,1714.5 C 4963.83,1714.5 5021.17,1714.5 5078.5,1714.5C 5078.5,1720.5 5078.5,1726.5 5078.5,1732.5C 5027.83,1732.5 4977.17,1732.5 4926.5,1732.5C 4926.5,1765.5 4926.5,1798.5 4926.5,1831.5C 4971.83,1831.5 5017.17,1831.5 5062.5,1831.5C 5062.5,1837.5 5062.5,1843.5 5062.5,1849.5C 5017.17,1849.5 4971.83,1849.5 4926.5,1849.5C 4926.5,1884.17 4926.5,1918.83 4926.5,1953.5C 4978.83,1953.5 5031.17,1953.5 5083.5,1953.5C 5083.5,1959.17 5083.5,1964.83 5083.5,1970.5C 5024.5,1970.5 4965.5,1970.5 4906.5,1970.5C 4906.5,1885.17 4906.5,1799.83 4906.5,1714.5 Z"/></g>
<g><path style="opacity:0.948" fill="#000000" d="M 5542.5,1714.5 C 5549.2,1714.17 5555.87,1714.5 5562.5,1715.5C 5601.5,1800.17 5640.5,1884.83 5679.5,1969.5C 5672.28,1970.81 5665.11,1970.81 5658,1969.5C 5647.2,1946.26 5636.7,1922.92 5626.5,1899.5C 5576.83,1899.5 5527.17,1899.5 5477.5,1899.5C 5467.73,1923.04 5457.4,1946.37 5446.5,1969.5C 5439.19,1970.66 5431.86,1970.83 5424.5,1970C 5463.98,1884.88 5503.31,1799.72 5542.5,1714.5 Z M 5551.5,1737.5 C 5573.93,1785.53 5596.26,1833.7 5618.5,1882C 5574.5,1882.83 5530.5,1882.67 5486.5,1881.5C 5508.18,1833.48 5529.85,1785.48 5551.5,1737.5 Z"/></g>
<g><path style="opacity:0.957" fill="#000000" d="M 5724.5,1714.5 C 5730.18,1714.33 5735.84,1714.5 5741.5,1715C 5799.12,1788.41 5856.62,1861.91 5914,1935.5C 5914.5,1861.83 5914.67,1788.17 5914.5,1714.5C 5920.83,1714.5 5927.17,1714.5 5933.5,1714.5C 5933.5,1799.83 5933.5,1885.17 5933.5,1970.5C 5927.82,1970.67 5922.16,1970.5 5916.5,1970C 5859.7,1896.89 5802.53,1824.06 5745,1751.5C 5744.5,1824.5 5744.33,1897.5 5744.5,1970.5C 5737.83,1970.5 5731.17,1970.5 5724.5,1970.5C 5724.5,1885.17 5724.5,1799.83 5724.5,1714.5 Z"/></g>
<g><path style="opacity:0.951" fill="#000000" d="M 6021.5,1714.5 C 6060.5,1714.33 6099.5,1714.5 6138.5,1715C 6186.3,1718.96 6222.14,1741.46 6246,1782.5C 6262.02,1818.14 6263.69,1854.48 6251,1891.5C 6229.99,1938.29 6193.82,1964.45 6142.5,1970C 6102.17,1970.5 6061.83,1970.67 6021.5,1970.5C 6021.5,1885.17 6021.5,1799.83 6021.5,1714.5 Z M 6041.5,1732.5 C 6073.5,1732.33 6105.5,1732.5 6137.5,1733C 6180.61,1736.95 6211.78,1758.11 6231,1796.5C 6240.74,1823.05 6242.07,1850.05 6235,1877.5C 6219.01,1921.14 6187.84,1945.97 6141.5,1952C 6108.19,1953.41 6074.85,1953.91 6041.5,1953.5C 6041.5,1879.83 6041.5,1806.17 6041.5,1732.5 Z"/></g>
<g><path style="opacity:0.957" fill="#000000" d="M 6979.5,1714.5 C 6985.18,1714.33 6990.84,1714.5 6996.5,1715C 7054.12,1788.41 7111.62,1861.91 7169,1935.5C 7169.5,1861.83 7169.67,1788.17 7169.5,1714.5C 7175.83,1714.5 7182.17,1714.5 7188.5,1714.5C 7188.5,1799.83 7188.5,1885.17 7188.5,1970.5C 7182.82,1970.67 7177.16,1970.5 7171.5,1970C 7114.7,1896.89 7057.53,1824.06 7000,1751.5C 6999.5,1824.5 6999.33,1897.5 6999.5,1970.5C 6992.83,1970.5 6986.17,1970.5 6979.5,1970.5C 6979.5,1885.17 6979.5,1799.83 6979.5,1714.5 Z"/></g>
<g><path style="opacity:0.956" fill="#000000" d="M 7496.5,1714.5 C 7502.83,1714.5 7509.17,1714.5 7515.5,1714.5C 7515.33,1764.5 7515.5,1814.5 7516,1864.5C 7515.35,1887.52 7521.35,1908.52 7534,1927.5C 7551.49,1946.73 7573.32,1955.73 7599.5,1954.5C 7650.89,1953.28 7678.39,1926.95 7682,1875.5C 7682.5,1821.83 7682.67,1768.17 7682.5,1714.5C 7689.17,1714.5 7695.83,1714.5 7702.5,1714.5C 7702.67,1766.5 7702.5,1818.5 7702,1870.5C 7702.38,1902.88 7690.88,1930.05 7667.5,1952C 7647.2,1966.95 7624.37,1973.79 7599,1972.5C 7536.91,1971.75 7502.91,1940.41 7497,1878.5C 7496.5,1823.83 7496.33,1769.17 7496.5,1714.5 Z"/></g>
<g><path style="opacity:0.958" fill="#000000" d="M 7788.5,1714.5 C 7795.17,1714.5 7801.83,1714.5 7808.5,1714.5C 7808.5,1794.17 7808.5,1873.83 7808.5,1953.5C 7857.5,1953.5 7906.5,1953.5 7955.5,1953.5C 7955.5,1959.17 7955.5,1964.83 7955.5,1970.5C 7899.83,1970.5 7844.17,1970.5 7788.5,1970.5C 7788.5,1885.17 7788.5,1799.83 7788.5,1714.5 Z"/></g>
<g><path style="opacity:0.947" fill="#000000" d="M 7934.5,1714.5 C 8002.5,1714.5 8070.5,1714.5 8138.5,1714.5C 8138.5,1720.5 8138.5,1726.5 8138.5,1732.5C 8107.83,1732.5 8077.17,1732.5 8046.5,1732.5C 8046.5,1811.83 8046.5,1891.17 8046.5,1970.5C 8039.83,1970.5 8033.17,1970.5 8026.5,1970.5C 8026.5,1891.17 8026.5,1811.83 8026.5,1732.5C 7995.83,1732.5 7965.17,1732.5 7934.5,1732.5C 7934.5,1726.5 7934.5,1720.5 7934.5,1714.5 Z"/></g>
<g><path style="opacity:0.948" fill="#000000" d="M 8245.5,1714.5 C 8252.2,1714.17 8258.87,1714.5 8265.5,1715.5C 8304.5,1800.17 8343.5,1884.83 8382.5,1969.5C 8375.28,1970.81 8368.11,1970.81 8361,1969.5C 8350.2,1946.26 8339.7,1922.92 8329.5,1899.5C 8279.83,1899.5 8230.17,1899.5 8180.5,1899.5C 8170.73,1923.04 8160.4,1946.37 8149.5,1969.5C 8142.19,1970.66 8134.86,1970.83 8127.5,1970C 8166.98,1884.88 8206.31,1799.72 8245.5,1714.5 Z M 8254.5,1737.5 C 8276.93,1785.53 8299.26,1833.7 8321.5,1882C 8277.5,1882.83 8233.5,1882.67 8189.5,1881.5C 8211.18,1833.48 8232.85,1785.48 8254.5,1737.5 Z"/></g>
<g><path style="opacity:0.957" fill="#000000" d="M 8428.5,1714.5 C 8434.18,1714.33 8439.84,1714.5 8445.5,1715C 8503.12,1788.41 8560.62,1861.91 8618,1935.5C 8618.5,1861.83 8618.67,1788.17 8618.5,1714.5C 8624.83,1714.5 8631.17,1714.5 8637.5,1714.5C 8637.5,1799.83 8637.5,1885.17 8637.5,1970.5C 8631.82,1970.67 8626.16,1970.5 8620.5,1970C 8563.7,1896.89 8506.53,1824.06 8449,1751.5C 8448.5,1824.5 8448.33,1897.5 8448.5,1970.5C 8441.83,1970.5 8435.17,1970.5 8428.5,1970.5C 8428.5,1885.17 8428.5,1799.83 8428.5,1714.5 Z"/></g>
<g><path style="opacity:0.602" fill="#be7bb5" d="M 2375.5,1649.5 C 2375.83,1649.5 2376.17,1649.5 2376.5,1649.5C 2344.01,1713.82 2311.01,1777.82 2277.5,1841.5C 2277.5,1840.83 2277.5,1840.17 2277.5,1839.5C 2309.64,1775.88 2342.31,1712.55 2375.5,1649.5 Z"/></g>
<g><path style="opacity:1" fill="#945a83" d="M 975.5,1779.5 C 976.833,1869.17 976.833,1958.83 975.5,2048.5C 970.677,2042.85 966.343,2036.85 962.5,2030.5C 963.833,1955.17 963.833,1879.83 962.5,1804.5C 966.578,1796.01 970.912,1787.68 975.5,1779.5 Z"/></g>
<g><path style="opacity:1" fill="#965981" d="M 962.5,1804.5 C 963.833,1879.83 963.833,1955.17 962.5,2030.5C 958.915,2025 955.581,2019.33 952.5,2013.5C 918.855,1942.11 922.188,1872.44 962.5,1804.5 Z"/></g>
<g><path style="opacity:1" fill="#9c57a3" d="M 1735.5,1841.5 C 1736.38,1841.37 1737.04,1841.7 1737.5,1842.5C 1783.77,1920.06 1829.77,1997.72 1875.5,2075.5C 1868.15,2069.48 1861.15,2063.15 1854.5,2056.5C 1842.62,2043.78 1832.45,2029.78 1824,2014.5C 1801.55,1971.27 1779.38,1927.93 1757.5,1884.5C 1749.9,1870.3 1742.56,1855.96 1735.5,1841.5 Z"/></g>
<g><path style="opacity:0.748" fill="#846596" d="M 1681.5,1737.5 C 1699.47,1772.1 1717.47,1806.77 1735.5,1841.5C 1742.56,1855.96 1749.9,1870.3 1757.5,1884.5C 1756.83,1884.83 1756.17,1885.17 1755.5,1885.5C 1730.23,1836.63 1705.23,1787.63 1680.5,1738.5C 1681.17,1738.5 1681.5,1738.17 1681.5,1737.5 Z"/></g>
<g><path style="opacity:0.59" fill="#b673b1" d="M 2277.5,1839.5 C 2277.5,1840.17 2277.5,1840.83 2277.5,1841.5C 2249.62,1896.94 2221.45,1952.27 2193,2007.5C 2173.44,2047.46 2144.28,2078.3 2105.5,2100C 2097.83,2104.34 2089.83,2107.84 2081.5,2110.5C 2081.5,2109.5 2081.5,2108.5 2081.5,2107.5C 2082.49,2107.67 2083.16,2107.34 2083.5,2106.5C 2093.43,2102.87 2102.76,2098.2 2111.5,2092.5C 2117.69,2089.58 2123.35,2085.91 2128.5,2081.5C 2135.78,2076.55 2142.45,2070.89 2148.5,2064.5C 2154.54,2059.46 2159.87,2053.8 2164.5,2047.5C 2168.24,2044.09 2171.24,2040.09 2173.5,2035.5C 2178.25,2029.68 2182.25,2023.35 2185.5,2016.5C 2191.93,2005.98 2197.6,1994.98 2202.5,1983.5C 2227.5,1935.5 2252.5,1887.5 2277.5,1839.5 Z"/></g>
<g><path style="opacity:0.76" fill="#8c608d" d="M 1757.5,1884.5 C 1779.38,1927.93 1801.55,1971.27 1824,2014.5C 1832.45,2029.78 1842.62,2043.78 1854.5,2056.5C 1853.17,2056.5 1852.5,2057.17 1852.5,2058.5C 1842.8,2048.13 1834.3,2036.8 1827,2024.5C 1803.15,1978.14 1779.32,1931.81 1755.5,1885.5C 1756.17,1885.17 1756.83,1884.83 1757.5,1884.5 Z"/></g>
<g><path style="opacity:0.345" fill="#219ccc" d="M 951.5,2013.5 C 951.833,2013.5 952.167,2013.5 952.5,2013.5C 955.581,2019.33 958.915,2025 962.5,2030.5C 966.343,2036.85 970.677,2042.85 975.5,2048.5C 977.58,2050.57 979.246,2052.91 980.5,2055.5C 968.5,2043.16 958.833,2029.16 951.5,2013.5 Z"/></g>
<g><path style="opacity:0.825" fill="#935b86" d="M 1854.5,2056.5 C 1861.15,2063.15 1868.15,2069.48 1875.5,2075.5C 1891.67,2088.43 1909.33,2099.09 1928.5,2107.5C 1927.89,2108.39 1927.56,2109.39 1927.5,2110.5C 1898.52,2098.85 1873.52,2081.51 1852.5,2058.5C 1852.5,2057.17 1853.17,2056.5 1854.5,2056.5 Z"/></g>
<g><path style="opacity:0.063" fill="#289aca" d="M 981.5,2056.5 C 986.833,2061.17 991.833,2066.17 996.5,2071.5C 990.5,2067.5 985.5,2062.5 981.5,2056.5 Z"/></g>
<g><path style="opacity:0.91" fill="#548ab8" d="M 998.5,2073.5 C 1000.75,2074.08 1002.42,2075.41 1003.5,2077.5C 1001.25,2076.92 999.585,2075.59 998.5,2073.5 Z"/></g>
<g><path style="opacity:0.827" fill="#4a8ab8" d="M 1005.5,2079.5 C 1007.03,2079.43 1008.03,2080.09 1008.5,2081.5C 1006.97,2081.57 1005.97,2080.91 1005.5,2079.5 Z"/></g>
<g><path style="opacity:0.969" fill="#6a7da9" d="M 1008.5,2081.5 C 1010.4,2081.74 1011.74,2082.74 1012.5,2084.5C 1010.6,2084.26 1009.26,2083.26 1008.5,2081.5 Z"/></g>
<g><path style="opacity:0.886" fill="#657eaa" d="M 1012.5,2084.5 C 1014.06,2084.73 1015.4,2085.4 1016.5,2086.5C 1016.5,2086.83 1016.5,2087.17 1016.5,2087.5C 1014.6,2087.26 1013.26,2086.26 1012.5,2084.5 Z"/></g>
<g><path style="opacity:0.784" fill="#5e83b0" d="M 1016.5,2087.5 C 1018.03,2087.43 1019.03,2088.09 1019.5,2089.5C 1017.97,2089.57 1016.97,2088.91 1016.5,2087.5 Z"/></g>
<g><path style="opacity:0.784" fill="#5e83b0" d="M 1019.5,2089.5 C 1021.03,2089.43 1022.03,2090.09 1022.5,2091.5C 1020.97,2091.57 1019.97,2090.91 1019.5,2089.5 Z"/></g>
<g><path style="opacity:0.874" fill="#975781" d="M 1928.5,2107.5 C 1929.61,2107.56 1930.61,2107.89 1931.5,2108.5C 1935.5,2109.83 1939.5,2111.17 1943.5,2112.5C 1953.03,2115.3 1962.7,2117.63 1972.5,2119.5C 1986.82,2121.91 2001.15,2122.58 2015.5,2121.5C 2021.75,2121.82 2027.75,2121.15 2033.5,2119.5C 2041.65,2119.07 2049.65,2117.74 2057.5,2115.5C 2060.63,2114.87 2063.63,2113.87 2066.5,2112.5C 2071.58,2111.03 2076.58,2109.36 2081.5,2107.5C 2081.5,2108.5 2081.5,2109.5 2081.5,2110.5C 2080.94,2111.79 2079.94,2112.62 2078.5,2113C 2027.72,2131.42 1977.39,2130.59 1927.5,2110.5C 1927.56,2109.39 1927.89,2108.39 1928.5,2107.5 Z"/></g>
</svg>
